<?xml version="1.0" standalone="no"?>
<!DOCTYPE svg PUBLIC "-//W3C//DTD SVG 1.1//EN" "http://www.w3.org/Graphics/SVG/1.1/DTD/svg11.dtd" >
<svg xmlns="http://www.w3.org/2000/svg">
<metadata>
This is a custom SVG webfont generated by Font Squirrel.
Copyright   : Copyright c 20042005 by Johan Winge
</metadata>
<defs>
<font id="TengwarAnnatarItalic" horiz-adv-x="0" >
<font-face units-per-em="2048" ascent="1638" descent="-410" />
<missing-glyph horiz-adv-x="610" />
<glyph unicode=" "  horiz-adv-x="610" />
<glyph unicode="&#x09;" horiz-adv-x="610" />
<glyph unicode="&#xa0;" horiz-adv-x="610" />
<glyph unicode="!" horiz-adv-x="1271" d="M-1657 -2241q0 37 84 110l54 50q61 54 202 195l155 159q652 692 1049 1492q56 114 107 229q72 161 159 409l222 636q252 729 536 1100q112 147 268 286q60 54 99 54q11 -2 11 -14q0 -28 -73 -100q-78 -77 -91 -91q-230 -251 -419 -699l-64 -160q-52 -134 -160 -451 l-124 -357l-4 -10q142 142 288 223q124 68 218 68q143 0 231 -104q78 -92 78 -227q0 -175 -139 -340q-39 -45 -85 -85q-169 -145 -325 -148h-6q-154 0 -154 106q0 35 28 75q40 56 109 56q45 0 76 -33q27 -28 42 -35q18 -9 44 -9q158 0 213 148q22 59 23 129v6 q0 146 -102 235q-62 53 -136 64q-12 2 -35 2q-75 0 -180 -66q-178 -111 -279 -324q-19 -38 -45 -106l-27 -69q-233 -569 -675 -1187q-117 -163 -235 -309l-114 -137l-233 -261l-44 -46q-90 -100 -339 -333l-111 -102q-50 -42 -82 -42q-15 0 -15 13z" />
<glyph unicode="&#x22;" d="M-2086 -277q0 32 62 81q41 32 58 32l129 -22q66 -8 154 -12q28 -1 477 -1q486 0 572 7q62 5 162 24q18 4 23 4q11 0 11 -12q-2 -25 -44 -64q-43 -40 -89 -49q-124 -25 -242 -29q-97 -4 -504 -4q-473 0 -533 4q-51 3 -111 11q-115 16 -123 24q-2 2 -2 6z" />
<glyph unicode="#" d="M-968 1573q0 48 35 63q11 4 26 4q73 -2 102 -150q10 -54 10 -100q0 -200 -49 -200q-24 0 -32 38l-23 135q-17 82 -53 156q-16 34 -16 54zM-764 1337l23 208q30 214 104 228q6 1 12 1q29 0 50 -25q17 -22 17 -56q0 -53 -109 -293q-25 -55 -35 -72q-14 -25 -33 -25 q-20 0 -27 19q-3 7 -2 15zM-718 1211q0 43 112 198l30 39q76 93 117 99q5 1 15 1q40 -2 53 -39q4 -10 4 -21q0 -39 -74 -105l-123 -107q-31 -30 -56 -57q-34 -33 -51 -36q-22 0 -26 22q-1 2 -1 6z" />
<glyph unicode="$" d="M-1022 1127q0 18 50 57l80 63q170 137 435 326q236 169 266 169q34 0 45 -29q4 -8 4 -16q0 -27 -25 -49q-83 -73 -482 -332q-325 -211 -348 -211q-22 0 -25 22z" />
<glyph unicode="%" d="M-757 1301q0 16 63 167q60 144 83 165q19 16 39 16q32 0 43 -31q2 -8 2 -17q0 -38 -81 -159l-88 -130q-21 -31 -31 -34q-4 -2 -9 -2q-21 0 -21 25z" />
<glyph unicode="&#x26;" d="M-1319 750q0 23 39 62q18 17 40 32q2 2 293 162q369 201 461 257q196 121 263 216q13 19 23 39q25 49 25 96q0 49 -33 101q-54 82 -161 82q-68 0 -97 -25q-6 -5 -9 -11q-15 -29 -15 -60q0 -64 52 -98q24 -16 49 -17q21 -1 46 15q12 8 24 8t12 -11q0 -32 -58 -78 q-71 -56 -132 -56q-73 0 -108 63q-18 33 -18 72q0 95 97 193q92 92 199 119q32 8 61 8q123 0 186 -81q39 -51 39 -121q0 -206 -352 -460q-102 -73 -227 -145l-386 -212q-282 -155 -289 -157q-8 -2 -13 -2q-11 0 -11 9z" />
<glyph unicode="'" d="M-1424 -276q0 31 61 79q41 33 60 33q2 0 33 -11q80 -24 193 -24q20 0 41 1h21h152q263 0 310 7q33 4 74 19q24 8 30 8q11 0 11 -12q-3 -31 -49 -69q-66 -54 -178 -70q-40 -6 -148 -6h-162h-153h-129q-97 8 -149 30q-18 8 -18 15z" />
<glyph unicode="(" d="M-1345 -723q0 40 104 181l76 104q27 31 41 34q18 -5 21 -25q0 -10 -25 -66l-66 -144q-45 -95 -67 -116q-18 -17 -40 -17q-32 0 -42 32q-2 8 -2 17z" />
<glyph unicode=")" d="M-779 2335q0 29 62 84q115 102 281 142q83 21 168 21q130 0 367 -45q231 -43 337 -48q27 -2 53 -2q191 0 293 78l55 44q19 12 38 12q11 0 11 -9q0 -22 -56 -76q-112 -106 -265 -148q-37 -10 -74 -15q-55 -8 -116 -8q-139 0 -348 42q-205 41 -308 48q-49 4 -98 4 q-195 0 -303 -82l-54 -42q-17 -10 -33 -10q-10 0 -10 10z" />
<glyph unicode="*" horiz-adv-x="854" d="M78 368q0 279 397 821q348 476 887 1005l66 64q133 130 152 147q131 120 171 120q16 0 16 -13q0 -36 -87 -113q-488 -445 -871 -910q-425 -516 -527 -828q-29 -88 -29 -155q0 -158 95 -262q91 -100 231 -100q136 0 255 46q66 26 109 63q61 54 95 54q15 0 15 -13 q0 -32 -67 -96q-119 -116 -297 -174q-119 -38 -245 -40h-6q-170 0 -271 122q-89 107 -89 262z" />
<glyph unicode="+" horiz-adv-x="958" d="M-659 28q0 39 68 92q36 28 59 34q14 2 57 2q224 0 521 -25q129 -11 183 -22q200 -38 306 -182q75 -103 75 -222q0 -122 -94 -247q-101 -134 -248 -185q-70 -24 -141 -24q-115 0 -213 63q-111 73 -123 189q-1 9 -1 18q0 72 68 152q59 68 112 75q20 0 20 -15q0 -20 -20 -44 q-24 -27 -24 -58q0 -73 69 -143q89 -89 219 -94h13q205 0 207 202v5q0 118 -89 220q-100 116 -266 148q-120 25 -523 41q-108 4 -172 4q-56 0 -61 7q-2 3 -2 9z" />
<glyph unicode="," horiz-adv-x="819" d="M-940 -1703q2 33 61 86q29 26 66 50q557 353 879 737q233 277 277 488q9 42 9 78q0 122 -78 197q-61 60 -147 60q-58 0 -101 -31q-41 -30 -63 -37l-14 -4q-18 0 -18 15q0 27 51 79q81 83 212 128q162 55 276 137q36 26 55 48q50 56 50 132q0 123 -84 210q-90 93 -232 93 q-107 0 -150 -8q-123 -21 -227 -115q-74 -65 -109 -65q-16 0 -16 13q0 39 107 131q101 87 199 136q112 57 258 66l31 2h61q49 0 80 -7q124 -27 197 -134q59 -86 59 -189q0 -136 -141 -284q-88 -93 -227 -180q139 -77 145 -246q1 -7 1 -14q0 -164 -145 -402 q-96 -160 -247 -330q-297 -333 -732 -649q-164 -119 -287 -192q-26 -14 -41 -14t-15 15z" />
<glyph unicode="-" horiz-adv-x="540" d="M72 174q0 33 24 65q29 37 76 37q67 0 92 -54q10 -21 10 -47q0 -65 -53 -90q-22 -11 -48 -11q-62 0 -89 52q-12 22 -12 48zM246 697q0 58 51 88q22 13 44 13q80 0 102 -65q5 -17 5 -35q0 -61 -48 -89q-24 -13 -53 -13q-61 0 -89 52q-12 23 -12 49z" />
<glyph unicode="." horiz-adv-x="974" d="M17 328q0 185 153 346q124 129 287 186q82 28 153 28q151 0 238 -110q73 -93 73 -232q0 -187 -155 -350q-83 -86 -191 -144q-129 -68 -261 -68q-139 0 -223 109q-74 95 -74 235zM191 459q0 -139 84 -232q76 -84 183 -84q84 0 159 31q40 15 62 37q60 58 67 183q1 11 1 20 q0 146 -87 236q-75 78 -188 78q-73 0 -149 -29q-54 -21 -76 -52q-56 -76 -56 -188z" />
<glyph unicode="/" d="M-2887 -2226q0 24 48 70q93 89 220 104q22 3 44 3q65 0 189 -25q98 -20 166 -20q89 0 130 36q25 21 36 24q9 3 21 3q10 0 10 -8q0 -23 -44 -68q-90 -93 -222 -107q-20 -2 -41 -2q-68 0 -205 25q-97 19 -157 19q-84 0 -131 -38q-27 -22 -40 -25q-6 -1 -13 -1q-11 0 -11 10 z" />
<glyph unicode="0" d="M-118 2335q0 25 50 73q96 90 226 107q27 4 53 4q73 0 215 -27q116 -23 190 -23q94 0 156 46q32 23 45 25q3 1 6 1q11 0 11 -10q0 -25 -51 -73q-95 -90 -226 -108q-27 -4 -54 -4q-66 0 -218 28q-118 22 -183 22q-95 0 -159 -46q-37 -24 -49 -25q-12 0 -12 10z" />
<glyph unicode="1" horiz-adv-x="1271" d="M-1657 -2241q0 28 62 89l186 178l24 23q714 712 1325 1848q194 360 255 581q21 73 21 117q0 74 -41 118q-32 33 -82 33q-109 0 -184 -51q-40 -28 -51 -31q-8 -2 -16 -2q-16 0 -16 13q0 29 54 84q100 102 246 135q42 10 86 12q10 1 19 1q62 0 92 -24q25 -18 44 -55 q23 -45 23 -102q0 -58 -23 -127q1 0 32 29q57 56 149 123q195 135 327 138q124 0 211 -90q93 -95 93 -247q0 -138 -105 -290t-253 -227q-100 -51 -198 -51q-143 0 -152 93q-1 6 -1 12q0 44 32 84q37 46 103 48h3q45 0 77 -32q27 -29 39 -35q19 -10 46 -10q147 0 207 139 q28 65 28 138q0 142 -92 232q-77 75 -180 75q-145 0 -299 -165q-116 -126 -192 -297q-159 -359 -453 -831q-428 -688 -900 -1203l-94 -101q-70 -77 -257 -253q-75 -71 -102 -93q-49 -40 -78 -40q-15 0 -15 14z" />
<glyph unicode="2" horiz-adv-x="1921" d="M-1657 -2241q0 28 62 89l186 178l24 23q714 712 1325 1848q194 360 255 581q21 73 21 117q0 74 -41 118q-32 33 -82 33q-109 0 -184 -51q-40 -28 -51 -31q-8 -2 -16 -2q-16 0 -16 13q0 28 53 83q99 103 243 136q44 10 90 12h12q135 0 161 -126q5 -25 5 -54q0 -47 -12 -90 q-2 -5 -3 -8v-1q3 0 56 51q217 210 386 210q135 0 213 -121q47 -72 59 -167q262 288 465 288q93 0 169 -73q70 -68 92 -175q8 -37 8 -82q0 -171 -132 -338q-107 -136 -246 -200q-78 -37 -145 -37q-113 0 -145 61q-11 20 -11 46q0 66 61 107q36 24 73 24q48 0 81 -34 q29 -29 43 -35q18 -9 42 -9q91 0 131 59q73 102 73 233q0 101 -60 189q-73 105 -183 105q-114 0 -222 -135q-15 -19 -29 -40q-43 -63 -103 -184q-54 -108 -118 -180l-23 -25q-172 -181 -341 -181q-153 6 -158 105q0 35 28 75q38 55 105 57h3q45 0 79 -33q29 -29 42 -36 q18 -9 41 -9q60 0 105 28q33 21 66 98q36 82 36 163q0 177 -129 258q-62 39 -116 39q-144 0 -300 -229q-70 -103 -127 -230q-163 -365 -457 -838q-428 -687 -898 -1200l-94 -101q-70 -77 -257 -253q-75 -71 -102 -93q-49 -40 -78 -40q-15 0 -15 14z" />
<glyph unicode="3" horiz-adv-x="1259" d="M-35 -3q0 17 19 39q59 65 109 181q39 90 80 219q222 701 278 854q34 91 82 200q205 468 492 782q189 206 251 206q14 0 14 -13q0 -29 -68 -97l-106 -105l-22 -25q-169 -193 -291 -432q-186 -362 -402 -1076l-40 -123q-1 -5 -1 -10q4 0 61 54q254 237 447 237 q134 0 221 -97q84 -93 84 -234q0 -168 -129 -330q-112 -139 -261 -205q-87 -38 -166 -38q-132 0 -150 83q-3 11 -3 22q0 52 44 94q39 38 89 38q48 0 80 -33q28 -28 41 -34q20 -10 48 -10q130 0 187 104q10 19 20 44q26 67 26 134q0 146 -104 236q-63 54 -138 65q-11 1 -31 1 q-158 0 -325 -201q-95 -115 -165 -260q-85 -178 -187 -253q-41 -30 -68 -30q-16 0 -16 13z" />
<glyph unicode="4" horiz-adv-x="1914" d="M-35 -3q0 17 19 39q59 65 109 181q39 90 80 219q222 701 278 854q34 91 82 200q205 468 492 782q189 206 251 206q14 0 14 -13q0 -29 -68 -97l-106 -105l-22 -25q-169 -193 -291 -432q-186 -362 -402 -1076l-32 -105l24 24q239 239 416 239q131 0 211 -116 q51 -76 62 -173q93 109 211 191q141 99 248 99q104 0 182 -80q65 -67 86 -172q8 -33 8 -75q0 -173 -131 -340q-106 -137 -245 -202q-78 -36 -146 -36q-140 0 -155 87q-2 9 -2 18q0 56 47 98q38 34 88 34q46 0 79 -33q29 -29 43 -36q18 -8 43 -8q89 0 128 54q75 103 76 231 q0 151 -110 250q-56 50 -134 50q-99 0 -196 -105q-67 -72 -135 -206q-63 -125 -95 -170q-9 -13 -18 -24q-153 -197 -333 -234q-33 -6 -63 -6q-124 0 -150 74q-5 15 -5 31q0 52 44 94q39 38 93 38q47 0 79 -34q27 -28 39 -34q18 -10 43 -10q72 0 112 33q5 3 8 7q81 93 88 231 v16q0 135 -86 225q-56 60 -129 72q-11 1 -30 1q-205 0 -431 -466q-80 -165 -180 -244q-44 -34 -72 -34q-16 0 -16 13z" />
<glyph unicode="5" horiz-adv-x="1910" d="M-174 675q0 30 55 86q103 101 254 134q39 8 79 11h29q87 0 125 -81q21 -44 21 -102q0 -49 -11 -89q-1 -4 -2 -6q2 0 54 50q191 185 346 208q14 2 39 2q131 0 210 -117q51 -75 62 -172q122 141 255 221q114 69 207 69q105 0 183 -85q62 -66 83 -167q7 -33 7 -73 q0 -177 -132 -344q-108 -138 -249 -201q-78 -35 -146 -35q-126 0 -148 78q-4 13 -4 28q0 52 43 93q39 38 93 38q47 0 80 -34q28 -29 40 -35q18 -9 42 -9q72 0 111 35q13 11 24 26q71 102 71 226q0 149 -102 240q-27 25 -54 38q-42 21 -87 21q-154 0 -297 -248 q-16 -28 -72 -138q-24 -47 -55 -91q-83 -116 -195 -191q-91 -62 -180 -75q-13 -2 -41 -2q-137 0 -152 87q-2 9 -2 19q0 51 44 94q38 37 89 37q46 0 84 -36q31 -30 46 -36q13 -5 28 -5h9q89 0 133 61q12 15 28 46q43 87 43 179q0 122 -71 210q-29 36 -67 58q-51 31 -107 31 q-143 0 -302 -243q-38 -58 -142 -245q-44 -80 -68 -112q-92 -123 -160 -143q-9 -2 -17 -2q-16 0 -16 13q0 20 51 81q17 20 22 28q86 128 146 329q32 105 32 155q0 99 -61 139q-26 18 -60 18q-109 0 -184 -52q-41 -28 -53 -31q-7 -2 -15 -2q-16 0 -16 13z" />
<glyph unicode="6" horiz-adv-x="1261" d="M-174 675q0 30 55 86q103 101 254 134q39 8 79 11h29q87 0 125 -81q21 -44 21 -102q0 -41 -20 -125l24 23q110 110 241 187q137 81 238 81q146 0 238 -121q17 -23 29 -46q39 -74 39 -155q0 -191 -146 -360q-70 -81 -162 -141q-125 -82 -248 -82q-127 0 -149 78 q-3 13 -3 27q0 55 45 97q39 35 90 35q46 0 80 -34q29 -29 42 -36q17 -7 38 -7q158 0 215 146q24 62 24 136q0 149 -111 241q-26 22 -52 35q-55 27 -112 27q-92 0 -195 -76l-42 -34q-103 -85 -202 -261l-96 -172q-19 -33 -37 -57q-92 -123 -160 -143q-9 -2 -17 -2 q-16 0 -16 13q0 20 51 81q17 20 22 28q86 128 146 329q32 105 32 155q0 99 -61 139q-26 18 -60 18q-109 0 -184 -52q-41 -28 -53 -31q-7 -2 -15 -2q-16 0 -16 13z" />
<glyph unicode="7" horiz-adv-x="1028" d="M-991 -1806q0 34 91 116q865 782 1348 1599l15 25q-112 102 -175 323l-70 273q-43 143 -109 182q-9 6 -20 10q-19 6 -34 6h-9q-65 0 -135 -49q-45 -32 -62 -34q-3 -1 -7 -1q-16 0 -16 13q0 42 80 109q103 86 216 113q36 9 68 9q99 0 159 -107q10 -18 20 -41 q54 54 153 105q117 61 211 61q149 0 179 -99q9 -30 9 -73q0 -210 -312 -740q-477 -809 -1311 -1596l-139 -131q-97 -86 -137 -86q-13 0 -13 13zM394 669q80 -331 122 -425q25 -55 63 -103q50 76 112 242q56 151 56 221q0 121 -115 139q-24 3 -53 3h-2q-89 0 -183 -77z" />
<glyph unicode="8" horiz-adv-x="1132" d="M105 380q0 174 184 488q100 171 247 367l64 84q269 347 610 696q422 432 531 497q16 12 36 13q15 0 15 -14q0 -29 -56 -84l-249 -235l-251 -253q-478 -502 -735 -902q-222 -344 -222 -536q0 -147 95 -254q69 -78 160 -97q30 -6 65 -6q87 0 168 31q47 18 72 43 q52 53 64 155q2 16 2 29q0 62 -41 115q-31 41 -38 59q-5 16 -5 35q0 37 28 78q39 55 107 55q64 0 97 -67q25 -50 25 -132q0 -161 -125 -312q-123 -148 -304 -213q-55 -20 -111 -30q-41 -6 -84 -6q-157 0 -256 118q-93 111 -93 278z" />
<glyph unicode="9" horiz-adv-x="958" d="M-399 102q0 32 60 88q59 57 96 58q9 0 33 -23q49 -47 109 -53q10 -1 20 -1q90 0 187 94q111 107 150 255q17 61 17 122q0 32 -11 112q-8 56 -8 130q0 524 403 1044q175 225 449 480q105 98 142 112q12 5 23 5q15 0 15 -13q0 -30 -41 -70l-149 -138q-95 -91 -194 -203 q-460 -516 -473 -1039q-1 -21 -1 -44q0 -214 91 -456q88 -235 205 -340q54 -49 106 -59q9 -2 24 -2q80 0 142 49l73 61q18 14 37 24q23 12 38 12q13 -7 14 -16q0 -31 -79 -105q-117 -109 -242 -159q-68 -26 -122 -26q-151 0 -287 240q-60 106 -88 194q-2 0 -20 -29 q-46 -73 -140 -165q-202 -200 -363 -226q-22 -4 -42 -4q-88 0 -149 55q-25 23 -25 36z" />
<glyph unicode=":" d="M-2068 -381q0 29 62 84q115 102 282 142q83 21 169 21q139 0 349 -42q206 -41 309 -49q48 -3 97 -3q194 0 297 79l54 44q18 11 35 11q12 0 12 -7q0 -35 -81 -100q-159 -130 -355 -147q-36 -4 -76 -4q-127 0 -358 44t-340 50q-30 1 -58 1q-194 0 -297 -79l-54 -44 q-18 -11 -36 -11q-11 0 -11 10z" />
<glyph unicode=";" d="M-1406 -346q0 27 52 75q97 90 231 110q31 4 62 4q78 0 229 -29q125 -25 200 -25q97 0 165 48q42 26 54 28q11 0 11 -10q0 -24 -48 -71q-96 -93 -239 -113q-32 -4 -65 -4q-78 0 -217 28q-123 25 -206 25q-100 0 -166 -49q-34 -24 -45 -26q-3 -1 -7 -1q-11 0 -11 10z" />
<glyph unicode="&#x3c;" horiz-adv-x="1044" d="M-1046 -1857q0 28 58 85l48 46q273 254 446 433q535 552 856 1015q335 483 335 737q0 128 -74 207q-59 63 -141 63q-84 0 -163 -55q-48 -33 -62 -37q-8 -2 -15 -2q-15 0 -15 13q0 39 81 107l18 15q106 85 217 109l138 27q23 6 45 13q262 88 331 245q23 50 23 104 q0 151 -122 249q-80 64 -176 78q-28 5 -57 5q-111 0 -203 -38q-47 -19 -59 -39q-26 -43 -26 -100q0 -58 43 -112q34 -43 41 -58q8 -18 8 -39q0 -56 -45 -97q-38 -35 -90 -35q-73 0 -110 82q-22 50 -22 117q0 121 103 245q116 141 295 200q99 33 204 33q177 0 288 -112 q102 -103 102 -253q0 -94 -78 -217q-124 -195 -378 -332q-20 -11 -21 -12q0 -2 16 -19q44 -44 67 -130q10 -39 11 -91q0 -328 -469 -963q-298 -402 -731 -855l-49 -52l-300 -299q-234 -224 -281 -259q-43 -33 -68 -35q-19 0 -19 13z" />
<glyph unicode="=" horiz-adv-x="540" d="M160 436q0 32 24 64q28 37 76 37q64 0 91 -52q11 -22 11 -49q0 -60 -49 -88q-23 -12 -52 -12q-62 0 -89 51q-12 23 -12 49z" />
<glyph unicode="&#x3e;" d="M-917 -617q0 29 30 62q25 28 95 89q93 81 127 119q27 30 39 35q6 1 12 1q23 -6 27 -30q0 -42 -110 -190q-56 -74 -90 -108q-37 -36 -72 -36q-41 0 -55 36q-3 11 -3 22zM-746 -821q0 54 99 268l30 66q17 40 28 49q9 7 20 7q21 0 27 -21q1 -4 1 -8q0 -20 -21.5 -169.5 t-37.5 -195.5q-21 -63 -62 -74l-18 -2q-38 0 -57 38q-9 19 -9 42zM-510 -517q0 199 50 199q24 0 32 -37l22 -134q18 -82 54 -158q16 -36 16 -56q0 -41 -31 -58q-12 -6 -27 -6q-55 0 -89 83q-27 68 -27 167z" />
<glyph unicode="?" d="M-3530 -2227q0 28 61 82q111 101 272 138q74 17 149 17q116 0 340 -42q221 -41 327 -44h27q174 0 271 73l50 39q18 11 34 11q12 0 12 -10q0 -28 -61 -83q-112 -100 -273 -137q-72 -17 -146 -17q-115 0 -337 42t-329 45h-27q-180 0 -275 -73l-49 -40q-18 -10 -35 -10 q-11 0 -11 9z" />
<glyph unicode="@" horiz-adv-x="1921" d="M-1657 -2241q0 37 84 110l54 50q61 54 202 195l155 159q652 692 1049 1492q56 114 107 229q72 161 159 409l222 636q252 729 536 1100q112 147 268 286q60 54 99 54q11 -2 11 -14q0 -28 -73 -100q-78 -77 -91 -91q-230 -251 -419 -699l-64 -160q-28 -72 -175 -495 l-102 -293l107 98q188 163 333 163q135 0 213 -120q48 -72 60 -169q263 289 465 289q131 0 214 -129q23 -36 34 -69q21 -62 21 -130q0 -156 -118 -320q-103 -142 -239 -212q-50 -26 -98 -37q-27 -6 -65 -7q-150 10 -158 105q0 45 31 84q36 46 102 48h3q46 0 77 -32 q28 -28 39 -34q19 -11 47 -11q88 0 128 53q73 96 77 221v11q0 147 -100 239q-27 25 -53 38q-45 23 -90 23q-144 0 -274 -209q-14 -22 -75 -140q-79 -150 -172 -240l-24 -22q-153 -135 -295 -135q-124 0 -150 74q-5 14 -5 30q0 67 58 108q37 26 76 26q47 0 79 -33 q28 -28 41 -35q20 -9 47 -9q102 0 152 88q10 19 21 45q31 77 31 155q0 177 -128 258q-60 38 -113 38h-8q-73 0 -170 -81q-118 -99 -208 -276q-25 -51 -60 -139l-27 -69q-233 -569 -675 -1187q-117 -163 -235 -309l-114 -137l-233 -261l-44 -46q-90 -100 -339 -333l-111 -102 q-50 -42 -82 -42q-15 0 -15 13z" />
<glyph unicode="A" horiz-adv-x="1236" d="M-893 -2089q0 29 58 86l282 261q36 36 63 60l235 235q118 118 303 335l183 226q388 508 584 1009l39 103l-102 -85q-184 -144 -329 -156q-9 -1 -25 -1q-133 0 -221 98q-84 94 -84 230q0 180 140 347q112 134 259 196q80 33 148 33h15q120 0 145 -79q4 -16 4 -33 q0 -70 -61 -110q-36 -24 -74 -24q-42 0 -82 40q-32 34 -46 40q-13 6 -27 6h-13q-155 0 -211 -147q-23 -62 -23 -135q0 -134 86 -221q79 -81 195 -81t254 130q28 27 48 51q52 62 83 130q40 86 151 414q120 352 129 376q218 602 494 973q87 117 181 215q165 172 216 172 q16 0 16 -14q0 -30 -72 -101l-88 -86q-315 -341 -570 -1034q-27 -74 -125 -361l-147 -422q-137 -378 -214 -547q-71 -156 -168 -325q-306 -540 -842 -1109l-51 -54q-58 -63 -242 -241l-348 -327q-82 -70 -106 -81q-13 -5 -26 -5h-5q-9 0 -9 13z" />
<glyph unicode="B" d="M-147 1301q0 23 55 173q59 158 84 174q15 10 32 10q31 0 42 -33q3 -9 3 -19q0 -40 -122 -236l-38 -64q-18 -29 -34 -30q-16 0 -21 18q-1 3 -1 7z" />
<glyph unicode="C" d="M-358 1576q0 42 31 58q13 6 30 6q75 -2 103 -156q9 -52 9 -94q0 -200 -49 -200q-23 0 -31 34l-22 133q-18 84 -55 162q-16 34 -16 57zM-153 1338q0 30 32 231q12 77 20 108q24 97 86 97q40 0 59 -40q8 -18 8 -41q0 -52 -99 -268l-30 -65q-17 -36 -20 -41q-12 -16 -28 -16 q-21 0 -27 24q-1 5 -1 11zM-107 1214q0 28 64 130q94 148 168 191q23 13 41 13q39 0 53 -37q4 -11 4 -23q0 -28 -30 -61q-25 -28 -95 -89q-48 -42 -127 -123q-30 -31 -51 -32q-23 8 -27 31z" />
<glyph unicode="D" d="M-481 1576q0 39 29 57q12 7 28 7h4q76 -2 103 -157q9 -52 9 -92q0 -201 -49 -201q-24 0 -32 34l-21 134q-17 83 -55 161q-16 34 -16 57zM-276 1338l22 203q31 223 109 232q4 1 7 1q40 0 59 -40q8 -18 8 -41q0 -52 -99 -268l-30 -65q-26 -54 -48 -57q-20 0 -27 21 q-2 7 -1 14zM-230 1214q0 40 85 159q89 126 149 164q13 8 22 10q5 1 18 1q40 -2 52 -38q4 -10 4 -22q0 -28 -30 -61q-25 -28 -95 -89q-47 -41 -128 -123q-30 -31 -50 -32q-22 0 -26 22q-1 4 -1 9z" />
<glyph unicode="E" d="M-620 1576q0 42 31 58q13 6 30 6q75 -2 103 -156q9 -52 9 -94q0 -200 -49 -200q-24 0 -33 39l-23 137q-17 81 -52 153q-16 34 -16 57zM-416 1336l22 203q31 225 110 234q3 1 7 1q42 0 60 -42q7 -17 7 -39q0 -56 -105 -282q-30 -64 -38 -83q-11 -25 -34 -25q-20 0 -27 20 q-2 6 -2 13zM-369 1214q0 26 62 125q94 152 169 196q23 13 42 13q39 0 53 -37q4 -11 4 -23q0 -38 -76 -107l-127 -112q-28 -26 -50 -50q-35 -33 -50 -36q-23 8 -27 31z" />
<glyph unicode="F" d="M-532 1127q0 39 451 484l109 107q34 33 61 33q33 0 43 -29q3 -8 3 -17q0 -24 -28 -54q-9 -10 -112 -109q-334 -317 -459 -412q-35 -26 -44 -26h-2q-19 0 -22 23z" />
<glyph unicode="G" d="M-339 1301v3q107 278 152 325q18 18 39 18q34 0 43 -33q2 -8 2 -16q0 -37 -88 -164l-90 -126q-20 -32 -37 -32q-21 0 -21 25z" />
<glyph unicode="H" d="M-937 750q0 10 8 23l380 559q275 398 505 529q99 56 183 56q98 0 158 -72q47 -57 47 -138q0 -123 -106 -234q-86 -91 -186 -116q-26 -7 -50 -7q-77 0 -118 56q-23 32 -23 72q0 65 70 134q51 51 83 51h1q11 0 11 -10q0 -13 -17 -35q-14 -18 -14 -35q0 -37 28 -71 q32 -39 91 -39q55 0 74 34l11 27q11 34 11 68q0 93 -68 150q-50 42 -115 42q-149 0 -345 -251l-22 -29q-55 -72 -244 -349l-56 -83l-167 -245q-43 -60 -82 -82q-5 -2 -10 -5q-18 -9 -27 -9q-11 0 -11 9z" />
<glyph unicode="I" horiz-adv-x="784" d="M-1012 -1711q0 27 53 79l239 224q154 149 323 329q523 557 772 971q182 302 182 481q0 161 -110 267q-82 80 -180 88h-16h-20q-225 0 -345 -87l-68 -52q-23 -15 -45 -15q-17 0 -17 15q0 32 64 90q181 163 425 200q47 7 98 9h40q155 0 255 -118q92 -109 93 -267 q0 -261 -362 -776q-340 -483 -879 -1025l-366 -350q-85 -77 -121 -77q-15 0 -15 14z" />
<glyph unicode="J" d="M-953 751q0 39 119 120q35 23 294 182l283 180q239 158 317 280q46 73 46 140q0 84 -65 138q-53 44 -127 44q-95 0 -114 -60q-6 -18 -6 -42q0 -81 71 -111q22 -8 38 -8q9 0 37 17q18 11 31 11q11 0 11 -10q0 -18 -41 -62q-75 -78 -152 -78q-73 0 -109 63q-20 35 -20 76 q0 89 87 185q91 101 208 132q37 10 73 10q103 0 165 -72q47 -56 47 -131q0 -213 -368 -497q-100 -77 -222 -155l-566 -354q-17 -8 -26 -8q-11 0 -11 10z" />
<glyph unicode="K" horiz-adv-x="878" d="M86 281q0 103 81 215q103 144 288 261q4 2 8 5q-105 63 -137 161q-15 48 -15 104q0 240 273 586q78 98 177 202q376 396 899 733q80 51 99 56q5 1 9 1q16 0 16 -15q0 -30 -53 -80q-30 -28 -72 -55q-503 -318 -830 -673q-263 -285 -325 -500q-19 -68 -19 -124 q0 -165 134 -235q60 -32 112 -32q55 0 100 34q40 24 60 26q12 -4 13 -16q0 -31 -63 -89q-90 -83 -193 -108q-222 -54 -325 -173q-62 -72 -62 -151q0 -127 86 -215q89 -90 228 -90q218 0 346 101l86 75q29 22 57 22q14 0 14 -13q0 -37 -68 -97q-181 -162 -325 -212 q-36 -12 -74 -20q-70 -15 -179 -16q-80 0 -136 22q-116 46 -173 157q-37 72 -37 153z" />
<glyph unicode="L" d="M-1101 -114q0 35 57 116l123 169q20 29 30 33q5 2 10 2q18 0 22 -22q0 -14 -38 -94l-53 -120q-45 -94 -68 -116q-17 -17 -37 -17q-34 0 -43 30q-3 9 -3 19z" />
<glyph unicode="M" d="M-554 750q0 24 37 62q12 12 24 20l369 254q156 113 244 235q76 105 76 192q0 50 -34 102q-52 82 -157 82q-96 0 -112 -73q-3 -17 -3 -37q0 -73 57 -109q24 -15 53 -17q48 39 70 39q11 0 11 -10q0 -24 -48 -73q-75 -77 -147 -78q-65 0 -103 55q-27 39 -27 92q0 91 79 182 q44 51 109 94q89 57 168 57q120 0 180 -82q37 -52 37 -123q0 -178 -252 -425q-72 -71 -146 -129q-105 -83 -316 -225q-141 -94 -158 -94q-11 0 -11 9z" />
<glyph unicode="N" d="M-589 750q0 17 181 367l28 52q172 328 387 483q127 91 223 91q93 0 154 -68q53 -60 53 -147q0 -122 -104 -232q-85 -89 -181 -114q-25 -6 -46 -6q-80 0 -120 56q-22 31 -22 69q0 70 79 136q47 40 71 40q11 0 11 -10q0 -11 -17 -35q-10 -14 -10 -25q0 -73 74 -100 q24 -8 42 -8q66 0 82 62q6 26 6 63q0 106 -77 162q-47 34 -105 34q-156 0 -343 -323q-51 -88 -172 -334q-45 -92 -68 -131q-27 -46 -81 -78q-22 -13 -34 -13q-11 0 -11 9z" />
<glyph unicode="O" d="M-1114 -725q0 31 91 170t125 151q21 0 21 -25v-3q-109 -277 -151 -323q-18 -20 -41 -20q-31 0 -42 31q-3 9 -3 19z" />
<glyph unicode="P" d="M-1580 977q0 29 62 84q115 102 280 143q83 20 168 20q128 0 357 -43q229 -44 339 -49q32 -2 63 -2q193 0 295 79l54 43q18 12 35 12q13 0 13 -10q0 -25 -49 -69q-164 -148 -371 -173q-44 -5 -92 -5q-135 0 -365 44q-222 42 -327 48q-33 2 -64 2q-195 0 -296 -78l-55 -44 q-18 -12 -36 -12q-11 0 -11 10z" />
<glyph unicode="Q" horiz-adv-x="1271" d="M-1657 -2241q0 37 84 110l54 50q101 90 282 275l170 182q642 709 1024 1536l45 99l110 278q84 225 187 528l76 222q252 729 536 1100q112 147 268 286q60 54 99 54q11 -2 11 -14q0 -28 -73 -100q-78 -77 -91 -91q-230 -251 -419 -699l-64 -160q-51 -134 -175 -495 l-97 -279l-15 -45q0 8 133 115q32 26 49 38q174 126 299 137q18 2 39 2q19 0 28 -1q51 0 118 -40q127 -74 140 -213q1 -14 1 -30q0 -94 -66 -214q-71 -128 -193 -229h6q30 -4 112 -4q206 0 319 81l63 47q21 13 41 13h4q13 0 13 -15q0 -31 -61 -89q-116 -108 -296 -154 q-102 -26 -212 -26q-86 0 -254 18q-127 13 -243 13q-117 0 -271 -33l-12 -26q-323 -692 -831 -1319l-114 -137l-233 -261l-44 -46q-90 -100 -339 -333l-111 -102q-50 -42 -82 -42q-15 0 -15 13zM182 142q155 45 345 47l151 -3q115 0 181 34q13 7 23 15q58 51 88 132 q18 49 18 98v5q-4 139 -105 211q-68 48 -158 48q-82 0 -190 -71q-124 -80 -216 -221q-38 -56 -67 -120l-39 -97l-31 -74v-4z" />
<glyph unicode="R" d="M-690 1127q0 14 26 38l57 52q154 140 395 334q187 150 213 154q7 2 14 2q37 0 46 -37q1 -5 1 -9q0 -25 -37 -58q-12 -10 -153 -120q-325 -249 -477 -346q-51 -32 -63 -32q-15 0 -20 14q-2 4 -2 8z" />
<glyph unicode="S" horiz-adv-x="1871" d="M-258 -2090q0 32 68 97l334 311q458 432 800 903q334 458 496 879l37 94q-90 -90 -200 -152q-84 -47 -152 -57l-33 -1h-1q-118 0 -195 95q-49 60 -72 153l-15 -15q-145 -145 -290 -203q-76 -30 -143 -30q-111 0 -189 89q-84 95 -84 244q0 145 108 303q102 148 240 221 q91 48 177 48q110 0 145 -62q12 -22 12 -52q0 -66 -59 -108q-36 -25 -72 -25q-47 0 -82 36q-29 31 -39 38q-21 13 -50 13q-92 0 -138 -65q-13 -17 -27 -46q-41 -87 -41 -175q0 -151 105 -244q27 -23 53 -36q42 -20 88 -20q93 0 178 70q95 77 130 212q36 137 153 269 q130 145 275 183q41 11 81 11q159 0 160 -115q0 -66 -62 -107q-36 -24 -73 -24q-44 0 -77 36q-30 31 -42 38q-21 13 -49 13q-94 0 -141 -68q-12 -18 -26 -47q-39 -83 -39 -171q0 -121 71 -210q29 -37 67 -59q52 -31 108 -31q115 0 231 144q80 100 129 231l122 351 q117 345 148 428q244 656 571 1041l85 95q164 172 216 172q16 0 16 -14q0 -31 -74 -103q-74 -71 -86 -84q-276 -299 -489 -825l-8 -20q-83 -209 -199 -550l-146 -422q-137 -378 -214 -547q-71 -156 -168 -325q-393 -689 -1145 -1414l-338 -317q-86 -73 -111 -83 q-10 -3 -22 -3h-4q-7 0 -9 12z" />
<glyph unicode="T" d="M-409 1303q38 109 80 215q42 100 65 121q15 14 34 14q33 0 43 -32q3 -9 3 -19q0 -28 -47 -106l-20 -34l-69 -106l-38 -60q-15 -20 -30 -20q-19 5 -21 27z" />
<glyph unicode="U" d="M-1111 751q0 25 43 66q18 17 37 28l597 347q213 128 303 217q110 110 110 214q0 83 -65 137q-53 44 -128 44q-65 0 -94 -23q-7 -5 -10 -11q-15 -30 -15 -66q0 -79 68 -107q20 -9 35 -9q5 0 10 1q4 0 31 16q17 9 29 9q11 0 11 -9q0 -31 -57 -79q-72 -60 -134 -60 q-73 0 -109 64q-18 33 -18 72q0 94 93 191q91 96 203 125q35 9 67 9h2q106 0 169 -75q46 -56 46 -129q0 -216 -388 -496q-112 -80 -265 -169l-536 -310q-15 -7 -24 -7q-11 0 -11 10z" />
<glyph unicode="V" d="M-411 1124v4q0 20 215 299q191 248 252 308q22 21 46 21q37 0 45 -38q1 -6 1 -10q0 -27 -49 -85l-113 -130q-176 -203 -324 -351q-36 -36 -43 -38q-3 -1 -9 -1q-18 0 -21 21z" />
<glyph unicode="W" horiz-adv-x="1921" d="M-1657 -2241q0 37 84 110l54 50q101 90 282 275l170 182q642 709 1024 1536l45 99l110 278q84 225 187 528l76 222q252 729 536 1100q112 147 268 286q60 54 99 54q11 -2 11 -14q0 -28 -73 -100q-78 -77 -91 -91q-230 -251 -419 -699l-64 -160q-52 -134 -204 -581 l-73 -208q1 0 10 9q153 150 270 209q90 44 168 44q123 0 201 -101q56 -73 63 -161q1 -11 2 -11l55 57l68 59q182 150 314 157h17q111 0 187 -81q76 -82 76 -207q0 -152 -116 -305q-49 -63 -125 -139h14h14q293 0 418 90q8 6 16 13q45 39 76 39h4q13 0 13 -14q0 -32 -58 -88 q-115 -109 -306 -155q-57 -14 -118 -20q-75 -8 -169 -8q-147 0 -417 20q-182 13 -327 13h-35q-303 0 -558 -44q-3 -1 -26 -50q-51 -111 -137 -271q-227 -423 -526 -816l-152 -198l-114 -137l-233 -261l-44 -46q-90 -100 -339 -333l-111 -102q-50 -42 -82 -42q-15 0 -15 13z M180 135q71 21 357 43q206 15 246 28q19 6 25 13q87 99 95 224q1 10 1 19q0 164 -130 235q-58 32 -107 32q-81 0 -169 -75l-41 -37q-122 -117 -204 -301q-14 -31 -27 -64l-43 -108q-3 -7 -3 -8v-1zM881 191q14 -3 34 -2h1q109 -2 327 -19q43 -4 66 -4q10 -1 30 -1 q122 0 179 53q6 5 11 11q85 96 93 215v20q0 165 -130 235q-56 30 -105 30q-10 0 -15 -1q-105 0 -209 -133q-36 -46 -133 -200q-84 -134 -141 -195q-8 -8 -8 -9z" />
<glyph unicode="X" horiz-adv-x="1837" d="M-293 -2089q0 35 60 90l117 105l163 152q36 36 63 60l235 235q118 118 303 335l183 226q345 452 542 910q31 72 59 144l11 28q-1 0 -53 -45q-192 -167 -339 -167q-162 0 -236 156q-11 24 -29 84l-16 -16q-133 -129 -271 -188q-84 -36 -155 -36q-117 0 -194 86 q-74 83 -74 207q0 147 120 306q59 79 168 174l11 9h-27q-333 -10 -484 -140q-50 -43 -82 -43q-16 0 -16 15q0 33 67 93q127 115 338 174q158 44 337 44q106 0 380 -25q256 -23 441 -23q177 0 310 13q20 2 37 2l10 1l17 47q118 349 187 521q307 759 731 1116q49 42 83 44 q16 0 16 -14q0 -30 -72 -101q-76 -73 -88 -86q-278 -301 -496 -845q-48 -120 -262 -729q-187 -535 -266 -718q-323 -739 -1014 -1476l-79 -84q-58 -63 -242 -241l-348 -327q-82 -70 -106 -81q-13 -5 -26 -5h-5q-9 0 -9 13zM250 408q0 -165 131 -234q57 -30 108 -30 q93 0 189 76q22 17 35 32q53 60 89 150q37 95 65 140q52 85 156 180h-9l-475 38q-56 0 -133 -58q-113 -85 -145 -210q-11 -41 -11 -84zM956 414q0 -169 131 -239q58 -32 108 -32q114 0 232 141q85 102 134 231l68 192l11 33v1l-174 -16q-73 -4 -172 -6q-111 -3 -146 -12 q-83 -20 -137 -109q-52 -87 -55 -184z" />
<glyph unicode="Y" d="M-1111 750q0 15 13 31q393 489 558 669q227 248 384 328q80 41 158 51l23 1q144 0 195 -114q19 -44 19 -94q0 -114 -100 -224q-87 -96 -190 -125q-31 -9 -59 -9q-81 0 -121 60q-20 31 -20 69q0 77 82 150q50 44 77 45q11 0 11 -9q0 -14 -18 -37q-19 -22 -19 -48 q0 -36 29 -69q33 -38 91 -38h3q63 0 79 40q21 43 21 93q0 94 -70 149q-48 39 -113 39q-171 0 -419 -289l-304 -366l-155 -192q-103 -121 -145 -121q-10 0 -10 10z" />
<glyph unicode="Z" horiz-adv-x="1236" d="M-893 -2089q0 29 58 86l282 261q36 36 63 60l235 235q118 118 303 335l183 226q329 431 526 873q46 104 86 210q13 32 13 33q-2 0 -19 -16q-244 -219 -429 -230h-17q-122 0 -207 82t-85 206q0 104 78 232q87 140 235 251q0 5 -91 7h-32q-230 0 -378 -102l-86 -63 q-21 -13 -41 -15q-17 0 -17 16q0 31 70 95q124 113 303 171q82 26 165 36q47 6 104 6q87 0 254 -23q139 -19 246 -19q74 0 176 9l17 49q116 342 178 497q311 779 741 1142q49 42 83 44q16 0 16 -14q0 -30 -72 -101q-76 -73 -88 -86q-276 -299 -492 -836q-55 -136 -266 -738 q-187 -535 -266 -718q-319 -730 -1000 -1461l-93 -99q-58 -63 -242 -241l-348 -327q-82 -70 -106 -81q-13 -5 -26 -5h-5q-9 0 -9 13zM274 403q0 -120 90 -196q74 -63 172 -63q78 0 178 62q167 105 246 307l79 225q-115 -15 -244 -17q-50 0 -169 9q-16 1 -27 1 q-135 0 -233 -107q-81 -89 -91 -197q-1 -12 -1 -24z" />
<glyph unicode="[" d="M-884 1082q0 31 61 79q42 33 60 33q4 0 34 -11q36 -14 98 -21q12 -2 258 -3q264 0 306 6q33 4 82 22q18 7 26 7q9 0 9 -10q0 -26 -51 -72q-12 -11 -23 -19q-53 -38 -159 -52q-18 -3 -35 -4q-16 -1 -255 -1q-263 0 -312 8q-29 5 -80 23q-18 6 -19 15z" />
<glyph unicode="\" horiz-adv-x="696" d="M-23 386q0 21 45 66q88 87 205 98q14 1 28 1q44 0 172 -23q81 -14 129 -14q72 0 104 30q21 19 35 21q7 2 15 2q10 0 10 -11q0 -24 -46 -68q-90 -86 -211 -95q-13 -1 -26 -1q-28 0 -186 24q-77 12 -109 12q-67 0 -109 -32q-25 -20 -44 -21q-12 0 -12 11z" />
<glyph unicode="]" horiz-adv-x="958" d="M107 304v14q0 96 66 214q86 152 248 257q134 87 262 98q16 1 31 1q82 0 120 -20q32 -16 47 -47q9 -19 9 -44q0 -86 -83 -122q-29 -13 -51 -13q-45 0 -77 35q-28 31 -38 38q-22 14 -54 14q-95 0 -172 -37q-32 -16 -53 -37q-66 -66 -78 -179q-3 -21 -3 -41q0 -172 158 -251 q69 -35 136 -40q35 -1 128 -1q188 0 318 91l77 58q25 15 45 15q14 0 14 -14q0 -42 -94 -119q-111 -91 -250 -145q-106 -42 -205 -45q-21 -1 -57 -1q-113 0 -154 6q-157 22 -234 135q-54 78 -56 180z" />
<glyph unicode="^" d="M-1355 751q0 16 22 42q58 69 401 452q166 184 213 232q268 271 462 329q42 13 75 13q8 1 22 1q108 0 167 -82q39 -55 39 -127q0 -98 -88 -206q-85 -105 -190 -139q-37 -12 -72 -12q-82 0 -123 59q-22 32 -22 71q0 64 68 137q54 58 94 60q11 0 11 -10q0 -14 -19 -37 q-19 -22 -19 -47q0 -57 49 -90q31 -20 71 -20q57 0 74 24q32 48 32 110q0 89 -65 144q-51 42 -120 42q-161 0 -382 -227l-52 -56l-343 -385q-198 -224 -216 -242q-49 -45 -78 -46q-11 0 -11 10z" />
<glyph unicode="_" horiz-adv-x="1132" d="M-426 35q0 40 69 92q36 28 58 33q49 9 218 9q69 0 359 -13q94 -4 157 -4q178 0 278 -116q81 -95 81 -236q0 -127 -94 -260q-101 -141 -249 -198q-78 -30 -157 -30q-153 0 -252 95q-54 52 -71 115q-6 24 -6 52q0 95 91 176q54 49 92 53q15 0 16 -16q0 -19 -20 -43 q-24 -29 -24 -62q0 -77 73 -145q90 -83 219 -83q179 0 218 158q9 37 9 81q0 107 -65 197q-74 103 -197 116q-104 11 -470 19q-57 1 -90 1q-80 0 -205 -7h-20q-18 0 -18 16z" />
<glyph unicode="`" horiz-adv-x="479" d="M-174 675q0 30 55 86q103 101 254 134q39 8 79 11h29q87 0 125 -81q21 -44 21 -102q0 -95 -69 -279q-91 -243 -208 -369q-69 -75 -119 -89q-7 -2 -13 -2q-16 0 -16 13q0 20 51 81q17 20 22 28q86 128 146 329q32 105 32 155q0 99 -61 139q-26 18 -60 18q-109 0 -184 -52 q-41 -28 -53 -31q-7 -2 -15 -2q-16 0 -16 13z" />
<glyph unicode="a" horiz-adv-x="1253" d="M-877 -2089q0 35 85 111l315 292q998 953 1296 1786l43 128q-115 -97 -168 -134q-161 -111 -288 -111q-123 0 -211 90q-95 96 -95 243q0 226 228 428q148 132 301 144h30q136 0 153 -91q2 -10 2 -22q0 -55 -46 -97q-38 -36 -90 -36q-44 0 -82 41q-31 33 -44 39 q-12 7 -25 7q-4 0 -18 -1q-126 0 -182 -94q-14 -22 -26 -53q-26 -66 -26 -134q0 -97 51 -178q51 -80 142 -112q38 -13 81 -13q96 0 199 77q59 45 109 111q44 58 118 200q73 138 128 198q42 47 93 76q27 15 43 15q14 0 14 -15q0 -22 -46 -73q-20 -22 -25 -30 q-52 -80 -158 -386q-71 -204 -94 -258q-333 -764 -1115 -1557l-286 -279q-234 -220 -310 -284q-48 -38 -81 -41q-15 0 -15 13z" />
<glyph unicode="b" horiz-adv-x="1845" d="M-233 598q0 34 69 96q128 115 334 175q159 46 335 46q174 0 412 -22q337 -32 757 -35h103q136 0 193 31q22 12 38 12q17 0 17 -16q0 -50 -86 -103q-73 -43 -163 -62q-69 -207 -79 -244q-41 -147 -58 -328q-2 -24 -5 -34q-22 -54 -93 -102q-42 -28 -64 -28q-12 6 -13 16 q0 65 28 218q2 12 4 20q-2 0 -19 -16q-209 -209 -376 -235q-22 -3 -42 -3q-197 0 -261 230q-2 10 -3 10l-16 -16q-130 -126 -266 -186q-87 -38 -160 -38q-114 0 -191 83q-76 83 -76 210q0 230 287 480l17 15h-3q-259 0 -429 -86q-54 -27 -95 -62q-47 -41 -79 -41 q-17 0 -17 15zM260 406q0 -133 94 -210q40 -32 86 -45q28 -7 57 -7q101 0 197 81q19 15 32 30q54 62 86 147q33 89 59 132q51 85 160 187q9 8 9 9h-1q-12 0 -323 27q-125 11 -163 11q-89 0 -191 -117q-45 -50 -66 -92q-36 -77 -36 -153zM966 411q0 -167 131 -237 q58 -30 106 -30q71 0 139 52q117 90 180 214q15 31 74 176l14 35q22 52 51 93l-88 1l-336 6q-165 0 -236 -159q-35 -78 -35 -151z" />
<glyph unicode="c" horiz-adv-x="1247" d="M-233 598q0 33 62 89q247 216 581 219q76 0 254 -23q146 -19 252 -19q110 0 153 8q4 0 5 1l48 158q219 698 560 1148q80 106 169 203q204 223 266 223q16 0 16 -15q0 -28 -52 -79q-294 -266 -500 -660q-324 -616 -539 -1713q-12 -62 -90 -119q-46 -35 -71 -35 q-15 0 -15 12t54 261q3 15 3 16v1q-1 0 -30 -29q-47 -44 -121 -99q-194 -145 -323 -160q-19 -2 -40 -2q-124 0 -208 83q-85 81 -85 206q0 108 81 237q32 52 75 101q56 65 133 125l17 13q5 3 5 4q0 6 -112 10h-29q-222 0 -374 -101q-24 -16 -45 -34q-53 -46 -83 -46 q-17 0 -17 16zM292 403q0 -161 140 -229q63 -31 121 -31q104 0 228 96q125 96 180 221q7 15 12 31l64 247v1q-49 -12 -219 -18h-29l-172 8q-142 0 -240 -111q-78 -90 -85 -198v-17z" />
<glyph unicode="d" horiz-adv-x="1236" d="M97 312q0 180 140 347q113 134 259 196q79 33 147 33q165 0 165 -110v-3q0 -72 -65 -112q-34 -21 -69 -21q-43 0 -83 41q-32 33 -46 39q-13 6 -27 6h-13q-153 0 -209 -144q-25 -64 -25 -138q0 -151 113 -243q25 -21 50 -33q55 -26 111 -26q102 0 225 96q121 95 175 213 q8 18 14 36l92 350q27 96 57 192q219 701 566 1156q78 101 164 195q204 223 265 223q16 0 16 -14q0 -33 -65 -93q-285 -259 -491 -657q-315 -611 -534 -1703q-13 -67 -94 -123q-45 -31 -67 -31q-15 0 -15 12q0 26 47 235q8 35 10 42q-2 0 -16 -14q-224 -214 -405 -263 q-46 -12 -88 -12q-119 0 -207 86q-97 95 -97 242z" />
<glyph unicode="e" horiz-adv-x="1253" d="M-35 -3q0 22 19 43q50 57 90 140q26 55 54 129q41 109 101 309l136 432q141 421 304 716q160 292 356 506q189 206 251 206q14 0 14 -13q0 -29 -68 -97l-106 -105l-22 -25q-169 -193 -291 -431q-186 -362 -401 -1073l-43 -141q0 12 142 123q61 49 92 69q159 104 282 104 q122 0 207 -82q84 -82 84 -206q0 -120 -87 -253q-64 -97 -166 -182q-5 -5 -5 -6q3 -3 78 -3q222 0 337 81l62 47q21 13 43 13h4q13 0 13 -14q0 -33 -65 -92q-119 -106 -300 -152q-102 -26 -210 -26q-84 0 -272 20q-117 12 -200 12q-194 0 -380 -54q-29 -8 -38 -8 q-15 0 -15 13zM170 147l117 24q109 18 226 18l177 -7q129 0 192 51q7 5 12 10q80 79 95 190q3 19 3 37q0 117 -83 192q-74 66 -184 66h-12q-83 0 -191 -84q-159 -123 -284 -372q-42 -86 -65 -120q-3 -4 -3 -5z" />
<glyph unicode="f" horiz-adv-x="1863" d="M99 314q0 164 123 328q105 140 244 207q60 29 116 37q12 2 43 2q135 0 153 -88q3 -11 3 -24q0 -71 -64 -112q-35 -22 -70 -22q-47 0 -79 36q-27 30 -37 37q-22 14 -54 14q-94 0 -140 -69q-11 -17 -23 -43q-41 -82 -41 -174q0 -151 105 -244q27 -23 53 -36q42 -20 88 -20 q92 0 178 70q96 78 131 215q37 145 164 279q128 134 265 171q40 11 77 11q147 0 161 -96q1 -9 1 -18q0 -53 -46 -96q-39 -37 -90 -37q-44 0 -77 35q-28 31 -38 38q-22 14 -52 14q-94 0 -140 -68q-13 -19 -27 -48q-39 -83 -39 -170q0 -124 73 -213q28 -34 65 -56 q50 -30 106 -30q103 0 217 121q89 95 130 202q11 30 45 169q43 173 112 395q218 698 562 1151q79 104 168 200q204 223 265 223q16 0 16 -14q0 -33 -65 -93q-147 -133 -263 -290q-241 -323 -420 -802q-195 -520 -342 -1268q-13 -67 -94 -123q-45 -31 -67 -31q-15 0 -15 13 l51 251v1q-1 0 -19 -18q-251 -247 -425 -247q-117 0 -195 95q-49 61 -72 153l-15 -15q-177 -173 -338 -219q-50 -14 -95 -14q-110 0 -189 89q-84 95 -84 241z" />
<glyph unicode="g" horiz-adv-x="1880" d="M102 310q0 211 188 405q128 133 264 165q23 6 49 8h13q151 0 166 -90q2 -11 2 -23q0 -66 -60 -108q-36 -25 -75 -25q-44 0 -77 35q-28 31 -38 38q-21 14 -52 14q-87 0 -129 -54q-74 -105 -76 -232q0 -108 63 -197q72 -103 181 -103q103 0 190 79q82 74 119 199 q49 167 184 303q134 136 276 160q26 5 51 5q129 0 153 -82q5 -15 5 -31q0 -68 -61 -110q-35 -24 -71 -24q-48 0 -81 36q-28 31 -38 37q-21 14 -52 14q-66 0 -107 -31q-6 -4 -10 -9q-75 -83 -87 -217q-1 -16 -1 -29q0 -186 134 -264q59 -35 111 -35q106 0 207 119 q23 27 42 57q42 65 111 204q60 121 123 192q21 24 45 47q60 53 100 58q15 0 15 -15q0 -19 -25 -48q-57 -65 -93 -139q-16 -35 -31 -75q-63 -165 -63 -353l3 -62q0 -41 -74 -99q-57 -46 -84 -46q-14 0 -17 12q-2 10 -2 68q0 102 11 154l-1 1l-32 -29q-43 -42 -108 -91 q-154 -115 -271 -115q-100 0 -178 75q-68 67 -90 173q-3 0 -28 -26q-48 -48 -122 -102q-166 -120 -297 -120q-99 0 -176 76q-70 68 -91 175q-8 34 -8 75z" />
<glyph unicode="h" horiz-adv-x="1253" d="M101 312q0 172 134 339q111 136 254 201q82 36 152 36q136 0 164 -65q9 -21 9 -48q0 -55 -46 -97q-39 -36 -89 -36q-45 0 -78 36q-29 31 -39 38q-22 13 -51 13q-155 0 -212 -146q-24 -63 -24 -137q0 -150 112 -243q26 -21 51 -33q55 -27 112 -27q95 0 195 76 q75 56 136 147q38 57 106 187q58 112 122 180q14 15 30 30q60 55 100 58q14 0 14 -15q0 -22 -26 -51q-53 -60 -83 -120q-21 -40 -40 -91q-62 -169 -62 -350l2 -65q0 -40 -73 -99q-58 -46 -84 -46q-14 0 -17 12t-3 72q0 88 16 182l-17 -17q-121 -119 -256 -189 q-114 -60 -205 -60q-121 0 -209 88q-95 96 -95 240z" />
<glyph unicode="i" horiz-adv-x="1148" d="M-698 -1711q0 33 86 111q523 476 923 966q423 520 528 842q31 94 31 165q0 122 -69 222q-78 111 -211 132q-12 1 -39 1q-234 0 -291 -160q-16 -44 -16 -96q0 -64 43 -118q34 -41 40 -55q9 -20 9 -42q0 -71 -63 -111q-35 -22 -72 -22q-73 0 -109 82q-22 50 -22 118 q0 194 161 355q130 130 304 184q69 21 131 25h35q140 0 239 -106q99 -107 104 -263v-16q0 -261 -361 -775q-339 -482 -877 -1024q-184 -185 -373 -357q-80 -72 -117 -72q-14 0 -14 14z" />
<glyph unicode="j" horiz-adv-x="1740" d="M-174 657q0 28 59 86q108 104 256 145q42 11 85 16q43 4 91 4q152 0 403 -49q243 -47 348 -56q66 -6 128 -6q214 0 327 84l68 55q23 15 47 15q16 0 16 -14q0 -41 -102 -123q-39 -33 -82 -60q-172 -110 -387 -117h-35q-99 0 -240 21q-20 3 -32 4q-249 -44 -419 -175 q-211 -163 -211 -407q0 -212 146 -363q145 -152 380 -185q57 -8 116 -8q248 0 399 114q66 50 106 119t40 127q0 33 -33 75q-34 44 -39 72q-1 8 -1 17q0 66 58 108q37 25 76 25q52 0 85 -48q29 -42 29 -109q0 -159 -181 -353q-33 -35 -66 -65q-258 -230 -583 -241 q-15 -1 -31 -1q-276 0 -464 147q-160 126 -199 314q-11 53 -11 107q0 157 73 295l15 28q123 215 370 376q62 40 121 70q0 10 -222 35q-115 12 -160 12q-164 0 -248 -61l-44 -33q-17 -10 -36 -10q-16 0 -16 13z" />
<glyph unicode="k" horiz-adv-x="1044" d="M-348 -529q0 164 174 345q129 134 305 224q-83 75 -94 209q-1 18 -1 37q0 288 426 866q346 468 855 976l210 204q124 116 153 140q64 53 93 53q15 0 15 -14q0 -33 -81 -107q-521 -472 -923 -963q-429 -523 -540 -850q-35 -101 -35 -176q0 -73 35 -148q57 -124 178 -124 q88 0 165 54q46 33 58 37q10 4 18 4q16 0 16 -14q0 -26 -55 -83q-102 -105 -243 -142q-31 -9 -63 -13q-122 -15 -251 -78q-96 -47 -156 -108q-85 -84 -85 -195q0 -139 103 -235q107 -95 252 -97q116 0 208 39q44 18 55 38q26 43 26 102q0 54 -40 106q-33 43 -39 63 q-5 15 -5 32q0 87 83 122q29 12 52 12q68 0 102 -81q21 -50 21 -115q0 -126 -107 -251q-119 -140 -302 -196q-96 -31 -197 -31q-171 0 -282 111q-100 98 -104 236v11z" />
<glyph unicode="l" horiz-adv-x="958" d="M-399 102q0 32 60 88q59 57 96 58q13 0 25 -15q23 -28 56 -44q38 -18 81 -18q79 0 163 75q164 146 204 258q12 34 12 64q0 66 -52 121q-54 57 -131 57q-109 0 -191 -59q-47 -33 -56 -37q-13 -6 -25 -6q-16 0 -16 13q0 25 53 81q102 108 244 149q66 19 134 19h7 q93 -1 154 -68q58 -64 144 -260l95 -213q91 -182 173 -201q13 -3 29 -3q72 0 167 74q70 53 80 59q22 13 37 13q13 -7 14 -16q0 -31 -79 -105q-116 -110 -242 -159q-67 -26 -121 -26q-88 0 -153 86q-52 69 -138 266l-47 110q-72 -103 -196 -222q-240 -230 -405 -230 q-92 0 -153 57q-23 22 -23 34z" />
<glyph unicode="m" horiz-adv-x="1462" d="M-428 -1793q0 26 58 68l68 45q418 261 642 457q355 310 480 656q19 52 33 106q12 47 12 87q0 128 -85 204q-70 63 -176 63q-46 0 -163 -19q-66 -10 -113 -10q-145 0 -231 101q-75 87 -75 220q0 194 161 375q87 98 199 165q5 3 5 4q-21 10 -170 18q-28 1 -43 1 q-168 0 -253 -62l-44 -32q-17 -10 -35 -10q-16 0 -16 13q0 28 59 86q108 104 256 145q42 11 85 16q43 4 91 4q157 0 405 -49q237 -46 337 -55q69 -7 134 -7q217 0 331 85l67 54q23 15 47 15q16 0 16 -14q0 -41 -102 -123q-39 -33 -82 -60q-168 -107 -378 -116q-23 -1 -47 -1 q-111 0 -248 22q-92 15 -165 15q-315 0 -405 -203q-31 -69 -31 -155q0 -140 93 -224q74 -68 179 -68q45 0 163 18q69 11 119 11q145 0 226 -101q63 -79 63 -196q0 -109 -86 -305l-33 -71q-251 -504 -950 -968l-98 -64l-197 -125q-50 -29 -83 -29q-20 0 -20 13z" />
<glyph unicode="n" horiz-adv-x="1253" d="M-233 598q0 33 69 96q125 114 315 174q120 37 247 43h52q95 -1 292 -25q236 -28 485 -28q88 0 151 31q25 12 38 12q17 0 17 -16q0 -50 -86 -103q-73 -43 -163 -62q-69 -207 -79 -244q-41 -147 -58 -328q-2 -24 -5 -34q-22 -54 -93 -102q-42 -28 -64 -28q-12 6 -13 16 q0 61 27 200q10 47 10 65q-115 -115 -250 -195q-144 -86 -252 -86q-128 0 -213 89q-77 81 -77 198q0 196 209 396q52 50 112 95q-40 6 -127 6q-236 0 -380 -95l-99 -72q-6 -4 -12 -7q-22 -12 -36 -12q-17 0 -17 16zM292 403q0 -120 86 -195q73 -64 175 -64q126 0 256 122 q119 112 173 260q45 131 87 188l-113 4q-146 4 -299 20q-28 3 -47 3q-91 0 -184 -75q-106 -86 -129 -207q-5 -28 -5 -56z" />
<glyph unicode="o" horiz-adv-x="1566" d="M87 287q0 175 179 317q102 80 204 112q7 2 13 4q53 14 107 14q120 0 209 -83q71 -65 170 -229l25 -41l11 17q129 216 228 567l128 477q104 362 247 593q73 118 164 220q154 173 213 173q16 0 16 -13q0 -26 -51 -78q-82 -86 -105 -112q-34 -41 -62 -84 q-139 -211 -238 -544q-12 -40 -105 -381q-48 -180 -90 -305q-105 -315 -235 -507q-30 -46 -63 -86q-9 -11 -9 -13l1 -2l32 -43q68 -85 142 -114q49 -20 103 -20q164 0 294 96l86 66q28 19 50 19q14 0 14 -13q0 -41 -90 -119q-128 -111 -292 -170q-84 -29 -161 -37 q-15 -1 -43 -1q-167 0 -281 155q-10 14 -17 20q-2 0 -48 -35q-184 -141 -382 -141q-160 0 -264 94q-100 90 -100 227zM261 415q0 -77 42 -142q67 -100 194 -134q48 -13 98 -13q133 0 236 70q10 6 10 8l-46 76q-107 177 -183 237q-71 56 -160 56h-32q-89 -10 -121 -39 q-38 -35 -38 -119z" />
<glyph unicode="p" d="M-902 1012q0 25 50 73q96 90 228 110q31 4 61 4q73 0 227 -29q123 -23 194 -23q101 0 143 34l32 26q14 9 32 14h9q10 -1 10 -10q0 -24 -49 -71q-97 -91 -228 -111q-30 -5 -61 -5q-76 0 -224 28q-122 24 -195 24q-103 0 -164 -46q-31 -24 -42 -27q-5 -1 -12 -1 q-11 0 -11 10z" />
<glyph unicode="q" horiz-adv-x="1271" d="M-1657 -2241q0 28 62 89l186 178l24 23q693 693 1283 1769l113 213q47 78 124 281q81 211 81 283q0 74 -41 118q-32 33 -82 33q-109 0 -184 -51q-40 -28 -51 -31q-8 -2 -16 -2q-16 0 -16 13q0 29 54 84q100 102 246 135q42 10 86 12h18q78 0 114 -40q32 -35 44 -103 q2 -9 2 -32q0 -57 -24 -138q71 79 188 162q190 134 326 134q126 0 211 -86q81 -81 81 -202q0 -166 -162 -347q-46 -51 -97 -94l97 -3q218 0 330 81l62 47q21 13 42 13h4q13 0 13 -15q0 -31 -61 -89q-116 -108 -296 -154q-102 -26 -212 -26q-82 0 -258 19q-57 6 -102 9 q-46 3 -135 3q-125 0 -282 -35l-13 -25q-357 -661 -727 -1161q-257 -348 -536 -646l-44 -47q-70 -77 -257 -253q-75 -71 -102 -93q-49 -40 -78 -40q-15 0 -15 14zM185 142q121 36 280 45q32 2 62 2l174 -4q140 0 205 64q9 8 17 18q75 91 75 202q0 121 -87 195 q-74 64 -184 64q-134 0 -298 -175q-57 -60 -93 -114q-54 -82 -136 -265q-11 -24 -15 -32z" />
<glyph unicode="r" horiz-adv-x="1908" d="M-35 -3q0 22 19 43q50 57 90 140q26 55 54 129q41 109 101 309l136 432q141 421 304 716q160 292 356 506q189 206 251 206q14 0 14 -13q0 -29 -68 -97l-106 -105l-22 -25q-174 -200 -304 -458q-182 -362 -386 -1039q-26 -84 -35 -117l110 100q192 165 334 165 q152 0 228 -138q39 -70 40 -130q0 -3 1 -6l83 80q113 103 214 153q84 41 154 41q113 0 190 -83t77 -211q0 -169 -164 -359q-37 -43 -78 -81l38 1q275 5 394 89l55 42q19 11 39 11h4q13 0 13 -17q-2 -32 -57 -83q-157 -138 -382 -171q-95 -15 -228 -15q-120 0 -412 21 q-202 14 -347 14q-343 0 -673 -60q-16 -3 -22 -3q-15 0 -15 13zM164 138l144 23q121 15 320 26q163 8 184 32q87 99 95 224q1 10 1 19q0 117 -75 195q-68 71 -167 71q-169 0 -356 -324q-15 -25 -108 -200q-20 -38 -31 -55zM882 189h6q64 0 347 -20q83 -6 117 -6 q133 0 198 85q16 20 32 51q45 80 45 168q0 61 -34 130q-66 132 -206 132q-8 0 -11 -1q-134 0 -290 -246q-24 -37 -52 -87q-63 -109 -136 -188z" />
<glyph unicode="s" horiz-adv-x="1880" d="M-250 -2089q0 35 85 111l314 292q938 893 1258 1685l22 56l48 138q-104 -89 -149 -120q-129 -89 -234 -89q-103 0 -181 78q-66 66 -88 170q-2 0 -26 -25q-41 -41 -102 -87q-181 -136 -319 -136q-99 0 -176 76q-70 68 -91 175q-8 34 -8 75q0 169 126 335q107 140 247 206 q63 30 122 37h16q155 0 170 -89q2 -10 2 -22q0 -85 -83 -122q-30 -13 -52 -13q-45 0 -76 34q-27 31 -36 37q-25 16 -62 16q-84 -1 -123 -54q-74 -105 -76 -232q0 -108 63 -197q72 -103 181 -103q108 0 196 85q79 75 115 201q45 156 176 290q132 134 271 163q32 7 62 7 q128 0 153 -81q5 -15 5 -32q0 -68 -61 -109q-36 -25 -74 -25q-44 0 -78 37q-31 32 -44 39q-20 11 -46 11q-104 0 -162 -105q-43 -78 -43 -181q0 -141 90 -231q22 -22 47 -38q47 -30 107 -30q152 0 295 251l11 19l81 162q74 135 165 206q49 39 77 39q3 0 5 -1q10 0 10 -14 q0 -20 -23 -45q-53 -59 -88 -131q-19 -38 -38 -85q-19 -50 -86 -253q-41 -124 -88 -233q-333 -764 -1115 -1557l-286 -279q-237 -224 -310 -284q-47 -38 -81 -41q-15 0 -15 13z" />
<glyph unicode="t" horiz-adv-x="1910" d="M-174 675q0 30 55 86q103 101 254 134q39 8 79 11h29q87 0 125 -81q21 -44 21 -102q0 -34 -13 -96q1 0 26 23q242 239 419 239q150 0 226 -138q39 -70 40 -130q0 -3 1 -6q13 10 94 86q138 130 248 168q57 19 113 19q107 0 184 -80q80 -84 80 -210q0 -183 -183 -383 q-29 -31 -60 -60l36 1q278 6 393 90l54 41q18 11 38 11h4q13 0 13 -17q-2 -38 -72 -98q-124 -106 -317 -147q-47 -10 -96 -15q-67 -8 -182 -8q-122 0 -412 20q-200 14 -348 14q-339 0 -671 -60q-19 -3 -25 -3q-15 0 -15 13q0 23 41 70q24 26 32 38q85 126 145 326 q33 107 33 159q0 99 -61 139q-26 18 -60 18q-109 0 -184 -52q-41 -28 -53 -31q-7 -2 -15 -2q-16 0 -16 13zM164 138q57 19 325 37q265 18 323 37q102 113 102 250q0 62 -34 132q-66 135 -205 135q-146 0 -306 -242q-41 -62 -147 -251q-37 -66 -58 -98zM890 189h1 q73 0 352 -20q79 -6 112 -6q126 0 185 68q84 95 93 213v22q0 125 -89 204q-53 46 -117 57q-14 1 -35 1q-112 0 -217 -132q-38 -47 -132 -197q-84 -134 -141 -195q-12 -13 -12 -15z" />
<glyph unicode="u" horiz-adv-x="1009" d="M-991 -1806q0 30 60 88l234 215q231 220 484 507q133 153 151 181q0 3 -16 16q-60 45 -60 162q0 174 218 474l171 227q46 67 66 100l-7 21q-16 50 -70 258q-46 176 -89 231q-6 8 -13 15q-39 39 -83 39h-9q-65 0 -135 -49q-45 -32 -62 -34q-3 -1 -7 -1q-16 0 -16 13 q0 42 80 109q103 86 216 113q36 9 68 9q99 0 159 -107q10 -18 20 -41q54 54 153 105q117 61 211 61q149 0 179 -99q9 -30 9 -73q0 -210 -312 -740q-477 -809 -1311 -1596l-139 -131q-97 -86 -137 -86q-13 0 -13 13zM35 -506q0 -80 44 -132q43 43 253 364q81 123 116 183 l15 25q-66 60 -104 136q-225 -300 -279 -406q-42 -82 -45 -170zM394 669q80 -331 122 -425q25 -55 63 -103q50 76 112 242q56 151 56 221q0 121 -115 139q-24 3 -53 3h-2q-89 0 -183 -77z" />
<glyph unicode="v" horiz-adv-x="1839" d="M-233 598q0 33 66 93q127 115 337 174q158 44 336 44q122 0 383 -25q241 -23 420 -23q180 0 314 13q22 2 41 2l3 1l5 15q272 940 744 1462q81 90 178 179q78 72 114 72q16 0 16 -14q0 -33 -60 -89q-288 -262 -492 -654q-321 -614 -538 -1710q-13 -67 -94 -123 q-44 -31 -67 -31q-15 0 -15 13l52 256l-18 -18q-255 -251 -433 -251q-197 0 -261 230q-2 10 -3 10l-16 -16q-146 -141 -291 -196q-73 -28 -136 -28q-113 0 -190 83q-76 83 -76 210q0 177 169 362q53 58 130 127h-34q-330 -8 -484 -138q-52 -45 -84 -45q-16 0 -16 15z M260 408q0 -165 130 -234q58 -30 108 -30q100 0 195 81q37 32 63 69q32 48 65 133q35 93 94 169q19 25 43 52q46 48 64 64q8 8 8 9t-7 1q-45 0 -363 29q-87 8 -109 8q-60 0 -113 -40q-178 -134 -178 -311zM966 411q0 -160 126 -233q60 -34 111 -34q71 0 145 57l29 23 q144 122 190 278q5 16 20 76l30 117q12 39 12 44v2q-69 -7 -325 -23q-143 -9 -197 -34q-56 -27 -92 -97q-49 -96 -49 -176z" />
<glyph unicode="w" horiz-adv-x="1921" d="M-1657 -2241q0 28 62 89l186 178l24 23q693 693 1283 1769l113 213q47 78 124 281q81 211 81 283q0 74 -41 118q-32 33 -82 33q-109 0 -184 -51q-40 -28 -51 -31q-8 -2 -16 -2q-16 0 -16 13q0 29 54 84q100 102 246 135q42 10 86 12q10 1 19 1q62 0 92 -24q25 -18 44 -55 q23 -44 23 -101q0 -42 -16 -102v-1q2 0 55 51q222 213 394 213q156 0 229 -144q32 -62 36 -118q1 -11 2 -11l88 85q206 188 352 188h14q109 0 186 -82q78 -84 78 -214q0 -105 -75 -233q-51 -87 -132 -168l-35 -35h9h12q294 0 419 94l11 9q45 39 76 39h4q13 0 13 -14 q0 -32 -58 -88q-115 -109 -306 -155q-57 -14 -118 -20q-75 -8 -169 -8q-147 0 -417 20q-182 13 -327 13h-124q-229 -7 -445 -41l-36 -5l-11 -20q-339 -645 -772 -1219q-216 -287 -438 -529l-94 -101q-70 -77 -257 -253q-75 -71 -102 -93q-49 -40 -78 -40q-15 0 -15 14z M182 136h1q4 0 91 14q140 24 369 36q140 8 169 28q6 3 10 8q89 113 93 240q0 166 -131 236q-57 31 -107 31q-151 0 -310 -235q-71 -105 -129 -237l-49 -106zM890 190l29 -1q56 -1 337 -20q70 -5 102 -5q120 0 183 65q36 38 63 102q30 68 30 135q0 114 -72 190 q-68 72 -169 72q-134 0 -273 -205q-36 -53 -93 -152q-48 -85 -121 -163z" />
<glyph unicode="x" horiz-adv-x="1845" d="M-285 -2089q0 35 85 111l315 292q326 312 543 566q504 590 741 1185q51 129 51 132q-3 0 -55 -46q-190 -167 -337 -167q-160 0 -234 153q-14 28 -31 88l-15 -14q-108 -108 -233 -172q-106 -55 -193 -55q-114 0 -192 83q-76 83 -76 210q0 161 149 341q60 72 142 142 q11 11 13 11q0 1 -8 1q-251 0 -419 -83q-57 -28 -99 -65q-47 -41 -79 -41q-17 0 -17 15q0 34 69 96q128 115 334 175q159 46 335 46q174 0 412 -22q338 -32 759 -35h102q135 0 192 31q22 12 38 12q17 0 17 -15q0 -32 -48 -75q-76 -68 -201 -92q-3 -3 -34 -87l-73 -198 q-97 -265 -156 -397q-335 -755 -1112 -1542l-279 -272q-237 -224 -310 -284q-47 -38 -81 -41q-15 0 -15 13zM257 406q0 -140 109 -219q26 -19 51 -29q37 -14 78 -14q93 0 185 73q47 38 78 85q16 25 57 121q59 137 145 231q32 35 70 68q8 7 8 8h-1q-13 0 -310 26 q-132 12 -175 12q-60 0 -125 -55q-14 -11 -51 -45q-88 -79 -112 -201q-7 -31 -7 -61zM964 412q0 -122 80 -201q15 -15 33 -27q58 -40 125 -40q133 0 258 175q68 95 115 216q38 97 53 125q14 28 32 54l-88 1l-336 5q-167 0 -238 -159q-34 -77 -34 -149z" />
<glyph unicode="y" horiz-adv-x="1261" d="M-174 675q0 30 55 86q103 101 254 134q39 8 79 11h29q87 0 125 -81q21 -44 21 -102q0 -46 -16 -106q-4 -13 -4 -21l23 23q156 153 308 224q97 46 177 46q180 0 258 -146q36 -70 36 -133q0 -107 -73 -235q-64 -112 -172 -203q-13 -10 -13 -12q0 -3 78 -3q226 0 342 82 l62 47q21 12 41 12h4q13 0 13 -17q-2 -32 -64 -90q-121 -110 -308 -154q-98 -24 -204 -24q-66 0 -291 23q-71 6 -135 9q-24 1 -55 1q-196 0 -381 -54q-27 -8 -36 -8q-15 0 -15 13q0 23 38 66q26 28 35 42q85 126 145 326q33 107 33 159q0 99 -61 139q-26 18 -60 18 q-109 0 -184 -52q-41 -28 -53 -31q-7 -2 -15 -2q-16 0 -16 13zM171 148l134 25q103 16 216 16l168 -7q150 0 214 64q84 87 93 201q1 12 1 23q0 113 -83 190q-61 55 -145 67q-12 2 -34 2q-80 0 -179 -64q-79 -51 -145 -132q-70 -86 -169 -264q-43 -80 -71 -121z" />
<glyph unicode="z" horiz-adv-x="1253" d="M-877 -2089q0 35 85 111l315 292q322 308 533 553q511 594 751 1198q63 156 63 165l-80 -68q-70 -55 -141 -98q-134 -81 -242 -81q-128 0 -213 88q-79 83 -79 202q0 117 89 253q79 119 215 223l16 13q-34 6 -123 6q-280 0 -446 -140q-52 -46 -83 -46q-17 0 -17 16 q0 33 69 96q125 114 315 174q120 37 247 43h52q95 -1 292 -25q236 -28 485 -28q88 0 151 31q25 12 38 12q17 0 17 -16q0 -50 -85 -103q-69 -44 -149 -60q-13 -3 -18 -11q-1 -2 -31 -79l-73 -198q-97 -265 -156 -397q-335 -755 -1112 -1542l-279 -272q-234 -220 -310 -284 q-48 -38 -81 -41q-15 0 -15 13zM290 403q0 -122 86 -196q73 -63 181 -63q86 0 190 73q90 64 157 163q48 72 93 189q34 92 71 145q-1 1 -79 2q-139 2 -342 23q-19 2 -35 2q-89 0 -181 -71q-110 -85 -135 -207q-6 -30 -6 -60z" />
<glyph unicode="{" d="M-1546 1081q0 30 61 79q42 34 60 34l117 -21q75 -10 160 -13q29 -1 363 -1q535 0 609 4q80 5 188 26q25 5 29 5q9 0 9 -10q0 -16 -31 -52q-45 -52 -104 -64q-119 -24 -226 -28q-88 -4 -587 -4q-389 0 -459 7q-36 3 -91 12q-92 14 -97 21q-1 2 -1 5z" />
<glyph unicode="|" d="M-1515 -791q0 116 126 246l664 604q11 9 13 11q46 39 75 39q18 0 18 -15q0 -24 -36 -64q-18 -18 -336 -306q-325 -296 -335 -308q-33 -48 -33 -97q0 -64 50 -93q23 -12 49 -12q44 0 111 58q59 51 77 60q20 11 36 11t17 -15q0 -34 -85 -111q-109 -97 -210 -133 q-37 -14 -65 -14q-75 0 -113 59q-23 34 -23 80z" />
<glyph unicode="}" d="M-1271 -791q0 116 126 246l664 604q11 9 13 11q46 39 75 39q17 0 18 -15q0 -22 -37 -64q-3 -4 -428 -389q-227 -207 -242 -225q-34 -44 -34 -97q0 -60 47 -90q23 -15 53 -15q45 0 112 58q57 50 74 60q20 11 37 11t17 -15q0 -35 -87 -113q-109 -96 -208 -132 q-37 -13 -64 -13q-76 0 -114 59q-22 34 -22 80z" />
<glyph unicode="~" horiz-adv-x="479" d="M-1657 -2241q0 28 62 89l186 178l24 23q714 712 1325 1848q194 360 255 581q21 73 21 117q0 74 -41 118q-32 33 -82 33q-109 0 -184 -51q-40 -28 -51 -31q-8 -2 -16 -2q-16 0 -16 13q0 29 54 84q100 102 246 135q42 10 86 12q10 1 19 1q62 0 92 -24q25 -18 44 -55 q23 -44 23 -101q0 -142 -167 -501q-53 -116 -115 -231q-552 -1034 -1219 -1763l-94 -101q-70 -77 -257 -253q-75 -71 -102 -93q-49 -40 -78 -40q-15 0 -15 14z" />
<glyph unicode="&#xa1;" horiz-adv-x="1044" d="M-659 29q0 38 70 92q26 20 42 27q17 8 59 9l226 6q137 0 307 99l235 145q178 103 326 103q173 0 240 -151q31 -71 31 -154q0 -186 -143 -353q-115 -136 -267 -197q-81 -33 -153 -33q-169 0 -246 125q-36 60 -36 111q0 95 91 179q54 50 90 55q2 1 4 1q17 0 17 -16 q0 -18 -22 -46q-25 -30 -25 -61q0 -70 63 -133q73 -72 176 -72q144 0 228 110q67 90 67 218q0 136 -79 214q-61 61 -151 61q-118 0 -274 -90l-225 -139q-196 -112 -369 -120h-16l-247 -7q-19 0 -19 17z" />
<glyph unicode="&#xa2;" horiz-adv-x="1202" d="M-164 685q0 39 70 93q35 27 56 33q8 2 94 2q412 -4 534 -28q86 -16 160 -64q130 -82 176 -220q17 -53 17 -107q0 -165 -135 -301q-110 -110 -252 -148q-51 -13 -97 -13q-157 0 -258 100q-76 81 -79 168q0 61 36 111q43 66 103 102q24 15 41 16q20 0 20 -14q0 -20 -20 -44 q-24 -29 -24 -61q0 -73 68 -141q91 -90 225 -94h10q206 0 206 208q0 122 -89 224q-88 101 -224 133q-99 23 -482 29l-66 1h-80q-10 7 -10 15z" />
<glyph unicode="&#xa3;" horiz-adv-x="923" d="M-1365 -1139q0 99 95 186q59 51 94 57q18 0 18 -17q0 -21 -22 -45q-28 -37 -30 -73q0 -77 69 -147q88 -88 220 -89q145 0 247 125q222 272 444 836l107 271l18 38q0 6 -375 10h-45h-49q-77 0 -82 6q-2 2 -2 9q0 38 68 92q26 21 44 28q17 7 48 8h46h60q229 0 338 -6 q5 -1 7 -1h8l11 22q149 282 346 417q146 100 298 100q99 0 149 -86q31 -53 31 -128q0 -114 -90 -229q-22 -28 -49 -54q-147 -144 -386 -177q-95 -13 -228 -13h-34l-15 -35q-49 -134 -174 -426l-23 -52q-250 -565 -529 -780q-155 -118 -310 -118q-170 0 -268 125 q-36 46 -48 89q-7 27 -7 57zM71 146q0 -1 59 -1h29q364 0 440 91q10 12 17 26q24 47 24 105q0 98 -60 148q-35 29 -83 29h-16q-152 0 -269 -149q-77 -102 -141 -249z" />
<glyph unicode="&#xa5;" horiz-adv-x="1044" d="M-1175 -1134q0 98 92 185q56 52 94 58q2 1 5 1q17 0 17 -15q0 -22 -22 -46q-28 -40 -30 -74q0 -77 69 -146q88 -90 220 -90q151 0 260 140l30 41q118 158 218 364q78 161 182 416l116 288q8 18 8 21q0 4 -432 9l-68 1q-10 7 -10 16q0 25 40 67q44 47 96 60l114 -1 q126 -2 161 -2l166 -5q187 374 441 492q93 43 192 48h17q129 0 170 -117q15 -43 15 -92q0 -146 -129 -277q-137 -141 -346 -180q-110 -21 -277 -21h-35l-93 -231q-203 -504 -382 -768q-253 -371 -534 -411q-16 -1 -42 -1q-132 0 -228 83q-81 69 -93 162q-2 12 -2 25z M261 152l86 -1q313 0 417 67q12 7 20 16q41 41 46 128v10q0 96 -58 147q-36 31 -85 31h-15q-147 0 -259 -135q-65 -80 -132 -219q-20 -42 -20 -44z" />
<glyph unicode="&#xa6;" horiz-adv-x="2027" d="M-893 -2089q0 29 58 86l282 261q36 36 63 60l235 235q118 118 303 335l183 226q329 431 526 873q46 104 86 210q13 32 13 33q-2 0 -19 -16q-244 -219 -429 -230h-17q-122 0 -207 82t-85 206q0 104 78 232q87 140 235 251q0 5 -91 7h-32q-230 0 -378 -102l-86 -63 q-21 -13 -41 -15q-17 0 -17 16q0 31 70 95q124 113 303 171q82 26 165 36q47 6 104 6q87 0 254 -23q139 -19 246 -19q74 0 176 9l17 49q116 342 178 497q311 779 741 1142q49 42 83 44q16 0 16 -14q0 -29 -40 -69l-96 -92q-105 -107 -207 -258q-131 -194 -224 -402 q-120 -265 -320 -855l-96 -276q-16 -41 -16 -44v-1q2 0 63 56q262 238 451 238q130 0 217 -94q88 -94 88 -241q0 -155 -124 -316q-110 -141 -255 -211q-49 -23 -96 -34q-30 -7 -74 -8q-151 0 -161 93v12q0 67 61 108q36 24 73 24q48 0 82 -34q28 -28 42 -35q18 -8 42 -8 q151 0 209 141q27 64 27 138q0 145 -100 235q-62 57 -138 68q-12 2 -35 2q-99 0 -215 -90l-45 -36q-118 -101 -185 -228q-24 -46 -99 -225q-96 -229 -213 -434q-314 -548 -842 -1109l-51 -54q-58 -63 -242 -241l-348 -327q-82 -70 -106 -81q-13 -5 -26 -5h-5q-9 0 -9 13z M274 403q0 -120 90 -196q74 -63 172 -63q78 0 178 62q167 105 246 307l79 225q-115 -15 -244 -17q-50 0 -169 9q-16 1 -27 1q-135 0 -233 -107q-81 -89 -91 -197q-1 -12 -1 -24z" />
<glyph unicode="&#xa7;" horiz-adv-x="2027" d="M-893 -2089q0 29 58 86l282 261q36 36 63 60l235 235q118 118 303 335l183 226q388 508 584 1009l39 103l-102 -85q-184 -144 -329 -156q-9 -1 -25 -1q-133 0 -221 98q-84 94 -84 230q0 180 140 347q112 134 259 196q80 33 148 33h15q120 0 145 -79q4 -16 4 -33 q0 -70 -61 -110q-36 -24 -74 -24q-42 0 -82 40q-32 34 -46 40q-13 6 -27 6h-13q-155 0 -211 -147q-23 -62 -23 -135q0 -134 86 -221q79 -81 195 -81t254 130q28 27 48 51q52 62 83 130q40 86 151 414q120 352 129 376q218 602 494 973q87 117 181 215q165 172 216 172 q16 0 16 -14q0 -30 -72 -101q-76 -73 -88 -86q-285 -309 -496 -845q-71 -174 -192 -530l-135 -390q-16 -41 -16 -44v-1q2 0 63 56q262 238 451 238q130 0 217 -94q88 -94 88 -241q0 -155 -124 -316q-110 -141 -255 -211q-49 -23 -96 -34q-30 -7 -74 -8q-151 0 -161 93v12 q0 67 61 108q36 24 73 24q48 0 82 -34q28 -28 42 -35q18 -8 42 -8q151 0 209 141q27 64 27 138q0 145 -100 235q-62 57 -138 68q-12 2 -35 2q-99 0 -215 -90l-45 -36q-118 -101 -185 -228q-24 -46 -99 -225q-96 -229 -213 -434q-314 -548 -842 -1109l-51 -54 q-58 -63 -242 -241l-348 -327q-82 -70 -106 -81q-13 -5 -26 -5h-5q-9 0 -9 13z" />
<glyph unicode="&#xa8;" d="M-919 -660q0 121 124 215q75 57 138 69l28 3q101 0 156 -74q35 -48 35 -110q0 -86 -77 -173q-81 -92 -183 -110q-19 -3 -39 -3q-76 0 -130 55q-9 8 -16 18q-36 48 -36 110zM-785 -546v-11q0 -48 33 -96q45 -68 129 -68q38 0 43 12q8 20 9 50q0 42 -30 89q-47 74 -135 74 q-12 0 -17 -1q-30 0 -32 -49z" />
<glyph unicode="&#xa9;" d="M-798 -660q0 122 124 216q74 56 138 68l27 3q102 0 157 -75q35 -48 35 -109q0 -82 -74 -169q-81 -94 -183 -113q-21 -4 -42 -4q-76 0 -130 55q-9 8 -16 18q-36 48 -36 110zM-665 -558q0 -47 33 -95q46 -68 130 -68q36 0 41 7q1 2 6 17q4 13 4 38q0 49 -31 97 q-45 66 -133 66q-12 0 -17 -1q-33 0 -33 -61z" />
<glyph unicode="&#xaa;" d="M-970 1529q0 48 94 124q28 24 31 26q89 77 127 120q26 28 35 33q7 3 15 3q24 -7 28 -31q0 -38 -85 -158q-91 -128 -150 -165q-10 -7 -18 -9q-7 -2 -19 -2q-40 0 -54 36q-4 10 -4 23zM-800 1328q0 57 124 320q24 50 27 54q13 13 26 13q20 0 27 -20q2 -5 2 -10 q0 -4 -9 -76.5t-24 -165.5t-27 -128q-21 -61 -61 -69q-6 -2 -13 -2h-7q-49 0 -62 57q-3 13 -3 27zM-563 1626q0 201 49 201q24 0 32 -33l22 -136q17 -82 54 -160q17 -35 17 -58q0 -41 -33 -57q-12 -5 -25 -5q-59 0 -92 93q-24 67 -24 155z" />
<glyph unicode="&#xab;" horiz-adv-x="870" d="M0 1068q0 23 41 67q33 35 42 51q46 78 76 241q16 87 26 104q33 56 97 96q32 21 50 21q16 0 16 -14q0 -76 -41 -206q-45 -144 -114 -234q-70 -91 -139 -128q-22 -12 -37 -13q-16 0 -17 15zM261 1068q0 22 56 84q22 25 28 34q47 81 77 246q15 84 24 99q33 56 97 96 q32 21 50 21q16 0 16 -14q0 -71 -50 -229q-23 -75 -42 -112q-63 -121 -158 -197q-50 -41 -80 -43q-17 0 -18 15z" />
<glyph unicode="&#xac;" horiz-adv-x="870" d="M-111 229q0 23 46 67q89 87 207 97q14 1 27 1q47 0 176 -23q79 -14 125 -14q63 0 113 36q25 18 38 18q11 0 11 -11q0 -23 -45 -67q-89 -87 -206 -97q-14 -1 -27 -1q-49 0 -173 22q-78 14 -125 14q-72 0 -109 -31q-31 -20 -46 -22q-12 0 -12 11zM63 542q0 23 46 67 q89 87 207 97q14 1 27 1q49 0 175 -23q77 -13 122 -13q73 0 107 30q21 19 34 21q6 2 14 2q12 0 12 -11q0 -21 -44 -65q-89 -88 -206 -99q-14 -1 -29 -1q-49 0 -178 23q-74 13 -115 13h-16q-56 0 -105 -35q-26 -18 -39 -18q-12 0 -12 11z" />
<glyph unicode="&#xad;" d="M-622 1529q0 38 73 104l123 109q31 30 56 57q26 29 35 33q7 3 15 3q24 -7 28 -30q0 -40 -101 -180q-61 -83 -99 -119q-36 -36 -72 -36q-40 0 -54 36q-4 10 -4 23zM-451 1324q0 54 99 268l30 66q15 36 22 44q11 13 25 13q22 0 28 -21q1 -4 1 -8q0 -21 -21.5 -172 t-38.5 -198q-21 -61 -61 -70q-6 -1 -13 -2h-6q-40 0 -58 41q-7 17 -7 39zM-215 1627q0 200 49 200q25 0 31 -26l16 -117q17 -90 62 -186q16 -38 16 -56q0 -43 -34 -59q-11 -5 -24 -5q-59 0 -92 92q-24 67 -24 157z" />
<glyph unicode="&#xae;" horiz-adv-x="1044" d="M-34 -1326q0 27 55 83l45 42q670 617 782 1264q22 126 22 253q0 216 -117 329q-87 83 -216 83q-138 0 -185 -70q-54 -85 -55 -197q0 -119 73 -209q69 -86 178 -104q23 -4 48 -4q65 0 126 34q31 17 47 17q15 0 15 -13q0 -27 -54 -78q-95 -92 -216 -114q-31 -6 -62 -6 q-139 0 -234 98q-96 100 -96 245q0 187 143 349q115 131 267 186q58 22 122 26h15q161 0 261 -101q114 -115 114 -339q0 -613 -491 -1234q-182 -231 -430 -457q-92 -84 -125 -95q-10 -3 -18 -3q-14 0 -14 15z" />
<glyph unicode="&#xaf;" d="M-483 1529q0 38 73 104l123 109q31 30 56 57q27 29 36 33q7 3 14 3q24 0 28 -23q1 -3 1 -7q0 -41 -107 -186q-58 -79 -93 -113q-38 -36 -73 -36q-45 0 -56 45q-2 8 -2 14zM-312 1324q0 54 99 268l30 66q16 36 19 40q12 17 28 17q21 0 28 -21q1 -5 1 -9q0 -5 -8.5 -76 t-24 -165t-28.5 -131q-21 -59 -61 -67q-6 -2 -12 -2h-6q-40 0 -58 42q-7 17 -7 38zM-76 1627q0 200 49 200q24 0 33 -35l23 -137q17 -81 53 -157q16 -34 16 -56q0 -45 -35 -60q-11 -4 -23 -4q-59 0 -92 93q-24 68 -24 156z" />
<glyph unicode="&#xb0;" d="M-1190 298q0 26 51 74q95 88 225 104q23 2 47 2q71 0 212 -26q107 -21 172 -21q93 0 148 43q37 23 48 25h4q10 0 10 -9q0 -23 -47 -69q-94 -91 -219 -109q-25 -3 -50 -3q-74 0 -223 27q-107 20 -170 20q-87 0 -148 -44q-32 -23 -48 -24q-12 0 -12 10z" />
<glyph unicode="&#xb1;" horiz-adv-x="696" d="M258 1108q0 198 142 382q78 101 153 144q25 14 39 14q16 0 16 -14q0 -23 -39 -65q-60 -65 -84 -108q-53 -93 -53 -222l2 -40q0 -27 -50 -79q-61 -64 -106 -67h-2q-13 0 -16 11q-2 8 -2 44z" />
<glyph unicode="&#xb2;" horiz-adv-x="696" d="M174 1066q0 25 67 98q28 31 35 41q69 104 74 239v15l-2 44q0 27 54 81q64 64 105 64q13 0 15 -12q2 -9 2 -43q0 -200 -140 -382q-78 -101 -154 -144q-26 -14 -41 -14t-15 13z" />
<glyph unicode="&#xb3;" horiz-adv-x="870" d="M-956 -1457q0 12 18 44q176 322 477 651l442 469q287 309 393 485q97 162 97 306q0 110 -82 187q-83 79 -206 79q-146 0 -228 -45q-25 -13 -34 -28q-39 -61 -104 -100q-28 -17 -43 -17q-17 0 -17 15q0 36 77 117q107 114 224 164q122 54 270 54q145 0 236 -92 q80 -82 80 -205q0 -244 -272 -584l-70 -84q-128 -154 -385 -424l-211 -224q-272 -296 -417 -526l-31 -51q71 29 162 31q84 0 247 -38q164 -38 247 -38q136 0 254 90l81 64q29 19 50 19q15 0 15 -15q0 -34 -86 -111q-126 -113 -273 -171q-94 -36 -173 -36q-102 0 -270 39 q-153 35 -228 37h-10q-87 0 -155 -47q-38 -26 -51 -28q-4 -1 -7 -1h-3q-14 0 -14 14z" />
<glyph unicode="&#xb4;" d="M-1259 -114q0 39 88 160l92 125q21 29 32 33q4 2 8 2q20 0 22 -26q0 -7 -18 -48l-73 -162q-45 -95 -67 -116q-17 -17 -38 -17q-33 0 -43 29q-3 9 -3 20zM-946 -114q-2 37 82 152l98 133q22 29 32 33q4 2 9 2q21 0 21 -26q0 -14 -75 -177q-51 -111 -71 -136 q-22 -30 -49 -30q-43 0 -47 49z" />
<glyph unicode="&#xb5;" d="M-360 1529q0 38 73 104l123 109q31 30 56 57q27 29 37 33q6 3 13 3q24 -7 28 -30q0 -43 -106 -187q-59 -78 -94 -112q-36 -36 -72 -36q-45 0 -56 45q-2 8 -2 14zM-189 1324q0 54 99 268l30 66q16 36 19 40q12 17 28 17q22 0 28 -21q1 -4 1 -8q0 -21 -21.5 -172 t-38.5 -198q-21 -61 -61 -70q-6 -1 -13 -2h-6q-40 0 -58 42q-7 17 -7 38zM47 1627q0 200 49 200q24 0 33 -35l23 -137q17 -81 53 -157q16 -34 16 -56q0 -45 -35 -60q-11 -4 -23 -4q-59 0 -92 93q-24 68 -24 156z" />
<glyph unicode="&#xb7;" horiz-adv-x="540" d="M160 436q0 32 24 64q28 37 76 37q64 0 91 -52q11 -22 11 -49q0 -60 -49 -88q-23 -12 -52 -12q-62 0 -89 51q-12 23 -12 49z" />
<glyph unicode="&#xb8;" d="M-1189 342q0 25 49 72q94 89 222 106q25 3 51 3q49 0 240 -31q102 -17 140 -17q93 0 155 45q32 22 47 23q12 0 12 -9q0 -23 -44 -68q-92 -93 -227 -110q-24 -3 -50 -3q-71 0 -215 27q-108 20 -173 20q-83 0 -146 -43q-35 -24 -51 -25q-10 0 -10 10z" />
<glyph unicode="&#xb9;" horiz-adv-x="696" d="M-86 -240q0 24 39 67q60 64 83 104q54 93 54 222l-2 44q0 40 74 99q58 46 84 46q14 0 16 -13q2 -9 2 -41q0 -201 -140 -383q-78 -101 -155 -144q-26 -14 -41 -14q-14 0 -14 13z" />
<glyph unicode="&#xba;" horiz-adv-x="540" d="M72 174q0 33 24 65q29 37 76 37q67 0 92 -54q10 -21 10 -47q0 -65 -53 -90q-22 -11 -48 -11q-62 0 -89 52q-12 22 -12 48z" />
<glyph unicode="&#xbb;" horiz-adv-x="870" d="M-522 -759q0 24 22 45q39 37 58 70q54 92 88 290l7 38q31 69 106 115q25 18 52 21q15 0 15 -14q0 -67 -51 -228q-23 -76 -42 -113q-56 -111 -149 -190q-59 -50 -91 -50q-15 0 -15 13v3zM-261 -762q0 25 46 75q30 32 37 45q60 105 93 328q25 59 99 108q29 23 58 26 q15 0 15 -14q0 -65 -50 -224q-24 -79 -43 -116q-58 -115 -153 -194q-57 -47 -88 -47q-14 0 -14 13z" />
<glyph unicode="&#xbc;" horiz-adv-x="1044" d="M-174 675q0 28 48 80q98 106 254 140q42 8 86 11q27 2 56 2q94 0 207 -18l94 -15l116 -16q179 -26 259 -26q87 0 136 28q21 12 35 12t14 -14q0 -51 -101 -120q-59 -41 -98 -52q-51 -15 -125 -15q-84 0 -296 31l-73 10q-44 7 -47 7q-2 0 -2 -12q-6 -100 -79 -286 q-70 -181 -153 -293q-89 -121 -158 -142q-11 -3 -19 -3q-16 0 -16 13q0 20 51 81q17 20 22 28q86 128 146 329q32 105 32 155q0 99 -61 139q-26 18 -60 18q-109 0 -184 -52q-41 -28 -53 -31q-7 -2 -15 -2q-16 0 -16 13z" />
<glyph unicode="&#xbd;" horiz-adv-x="479" d="M-35 -3q0 17 19 39q59 65 109 181q39 90 80 219q222 701 278 854q34 91 82 200q205 468 492 782q189 206 251 206q14 0 14 -13q0 -29 -68 -97l-106 -105l-22 -25q-182 -208 -315 -477q-174 -352 -379 -1032q-129 -427 -233 -584q-43 -66 -100 -115q-55 -46 -86 -46 q-16 0 -16 13z" />
<glyph unicode="&#xbe;" horiz-adv-x="870" d="M-244 588q0 35 85 112q128 117 287 179q113 45 211 45q144 0 252 -87q117 -94 122 -239v-11q0 -184 -161 -348l-87 -78q0 -1 3 -1q7 0 130 -20q84 -14 132 -14q90 0 184 84l72 64q7 6 14 10q36 23 56 23q14 0 14 -15q0 -29 -67 -93l-47 -43q-144 -129 -248 -167 q-62 -23 -123 -23q-52 0 -185 23q-92 15 -153 15q-76 0 -178 -28q-37 -10 -54 -10q-15 0 -15 14q0 30 56 84q35 34 69 51q21 10 121 36q143 35 207 92q86 76 86 213q0 161 -151 252q-27 17 -56 29q-68 27 -143 27q-147 0 -275 -97l-89 -71q-31 -21 -53 -21q-16 0 -16 13z " />
<glyph unicode="&#xbf;" horiz-adv-x="1566" d="M170 156q0 132 112 273q115 145 282 215q109 46 218 46q28 0 65 -7q4 -1 7 -1q2 0 131 282q145 318 205 436q254 501 526 800q205 228 269 228q16 0 16 -13q0 -27 -46 -71l-104 -97q-265 -263 -501 -764l-375 -797l-27 -54q74 -74 156 -224q71 -130 98 -167 q72 -99 167 -112q17 -2 35 -2q99 0 208 87l83 69q34 24 56 24q13 0 14 -15q0 -31 -81 -109q-123 -118 -263 -178q-90 -39 -163 -39q-132 0 -229 131q-37 50 -112 191q-33 61 -54 96l-28 39q-2 0 -11 -17l-60 -90q-243 -340 -454 -340q-78 0 -117 75q-23 45 -23 105zM240 152 q0 -102 72 -106h9q200 9 412 394l22 41q5 10 5 12q0 8 -36 22q-41 15 -89 15q-169 0 -285 -123q-92 -96 -107 -218q-3 -19 -3 -37z" />
<glyph unicode="&#xc0;" horiz-adv-x="1306" d="M-1134 -1545q0 26 57 84l153 149l56 58q342 364 693 976l69 121l365 689l70 134q108 206 181 408q54 150 54 220q0 86 -54 127q-29 21 -68 21q-88 0 -169 -58q-51 -35 -63 -40q-10 -4 -20 -4q-16 0 -16 14q0 42 87 113q111 89 233 123q47 12 87 12q127 0 151 -124 q6 -25 6 -54q0 -57 -9 -74q2 0 46 36q181 150 376 150q112 0 181 -95q54 -75 54 -172v-14q0 -261 -304 -473q-104 -73 -266 -146q-6 -2 -7 -3q113 -57 125 -202q1 -14 1 -27q0 -431 -624 -706l-285 -121q-130 -58 -191 -99q-83 -57 -128 -124q-274 -408 -574 -712 q-94 -95 -168 -156q-54 -45 -84 -45q-15 0 -15 14zM-146 -417l83 51q74 42 182 90l147 63q266 110 352 171q20 14 38 29q67 57 93 170q12 54 12 115q0 107 -69 173q-52 51 -122 51q-126 0 -212 -79q-77 -70 -177 -256l-230 -415q-55 -95 -91 -151q-6 -11 -6 -12zM370 521 l46 33q99 64 350 168q245 102 322 155q83 56 107 133q11 33 16 80q1 11 1 36q0 126 -75 197q-55 53 -132 53q-194 0 -301 -168q-31 -48 -64 -128q-75 -179 -111 -251l-113 -218z" />
<glyph unicode="&#xc1;" horiz-adv-x="696" d="M-86 -238q0 24 54 81q73 78 98 116q76 117 115 265q44 166 81 493q38 329 77 483q70 276 235 466q23 27 49 53q101 103 145 103q17 0 17 -14q0 -23 -42 -67q-69 -73 -99 -115q-38 -54 -67 -118q-81 -179 -119 -478l-45 -385q-29 -213 -79 -367q-68 -209 -215 -383 q-99 -117 -167 -143q-14 -5 -24 -5q-14 0 -14 15z" />
<glyph unicode="&#xc2;" horiz-adv-x="1044" d="M-22 385q0 26 52 75q99 92 237 115q36 6 74 6q85 0 248 -31q145 -27 229 -27q108 0 180 52q38 27 48 30q6 2 12 2q11 0 11 -10q0 -23 -47 -70q-97 -97 -241 -121q-40 -6 -80 -6q-81 0 -234 30q-146 28 -240 28q-112 0 -178 -50q-34 -27 -42 -30q-9 -3 -18 -3 q-11 0 -11 10z" />
<glyph unicode="&#xc3;" horiz-adv-x="696" d="M-86 -240q0 24 39 67q60 64 83 104q54 93 54 222l-2 44q0 40 74 99q58 46 84 46q14 0 16 -13q2 -9 2 -41q0 -201 -140 -383q-78 -101 -155 -144q-26 -14 -41 -14q-14 0 -14 13zM213 732q0 33 26 66q28 35 74 35q66 0 92 -54q10 -22 10 -47q0 -61 -49 -88q-23 -12 -52 -12 q-61 0 -89 51q-12 22 -12 49z" />
<glyph unicode="&#xc4;" horiz-adv-x="1028" d="M-991 -1806q0 34 91 116q865 782 1348 1599l15 25q-112 102 -175 323l-70 273q-43 143 -109 182q-9 6 -20 10q-19 6 -34 6h-9q-65 0 -135 -49q-45 -32 -62 -34q-3 -1 -7 -1q-16 0 -16 13q0 42 80 109q103 86 216 113q36 9 68 9q99 0 159 -107q10 -18 20 -41 q54 54 153 105q117 61 211 61q149 0 179 -99q9 -30 9 -73q0 -210 -312 -740q-477 -809 -1311 -1596l-139 -131q-97 -86 -137 -86q-13 0 -13 13zM394 669q80 -331 122 -425q25 -55 63 -103q50 76 112 242q56 151 56 221q0 121 -115 139q-24 3 -53 3h-2q-89 0 -183 -77z" />
<glyph unicode="&#xc5;" horiz-adv-x="784" d="M-659 28q0 38 68 92q26 21 44 28q16 8 49 8h41q152 0 522 -17q95 -5 149 -5h17q179 2 276 74q50 38 79 116q21 57 21 121q0 177 -145 255q-68 36 -129 36q-58 0 -87 -20q-6 -5 -9 -10q-26 -42 -26 -99q0 -46 26 -97q8 -15 8 -22q0 -39 -66 -90q-48 -37 -72 -37 q-29 0 -45 84q-6 32 -6 57q0 124 114 240q95 95 207 127q36 10 67 10q151 0 242 -105q77 -90 77 -220q0 -151 -113 -299q-118 -154 -299 -222q-61 -23 -125 -33q-60 -9 -141 -9l-480 19q-95 2 -184 2q-72 0 -78 7q-2 2 -2 9z" />
<glyph unicode="&#xc6;" horiz-adv-x="870" d="M-164 685q0 40 69 92q36 28 58 34q8 2 52 2q50 -2 75 -2q58 -2 109 -2q276 0 409 72q151 81 166 264q1 13 1 27q0 171 -141 243q-64 33 -121 33q-88 0 -110 -61q-9 -26 -9 -63q0 -53 26 -107q8 -16 7 -23q-6 -47 -74 -94q-42 -30 -64 -30q-31 0 -47 102q-5 27 -5 42 q0 113 107 228q93 100 203 136q41 13 76 13q146 0 233 -99q74 -86 74 -215q0 -104 -66 -226q-90 -164 -268 -270q-135 -80 -310 -103q-89 -12 -197 -12l-201 3l-42 1q-10 7 -10 15z" />
<glyph unicode="&#xc7;" horiz-adv-x="1218" d="M-659 28q0 39 66 90q47 37 72 37q6 0 10 -2q22 -9 297 -399q153 -217 218 -319q103 -160 142 -236q110 -214 110 -381q0 -200 -136 -369q-105 -131 -241 -184q-64 -25 -120 -25q-131 0 -224 97q-74 86 -78 175q0 74 71 162q59 74 111 86q8 2 14 2q17 0 17 -15 q0 -21 -24 -47q-29 -33 -32 -66q-1 -6 -1 -13q0 -73 65 -145q80 -88 191 -92q6 -1 11 -1q109 0 171 111q50 88 50 214q0 127 -64 271q-57 129 -184 326q-224 347 -479 674q-31 40 -31 41q-2 3 -2 8z" />
<glyph unicode="&#xc8;" d="M-1345 -723q0 40 104 181l76 104q27 31 41 34q18 -5 21 -25q0 -10 -25 -66l-66 -144q-45 -95 -67 -116q-18 -17 -40 -17q-32 0 -42 32q-2 8 -2 17z" />
<glyph unicode="&#xc9;" d="M-1114 -725q0 31 91 170t125 151q21 0 21 -25v-3q-109 -277 -151 -323q-18 -20 -41 -20q-31 0 -42 31q-3 9 -3 19z" />
<glyph unicode="&#xca;" d="M-1114 -725q0 31 91 170t125 151q21 0 21 -25v-3q-109 -277 -151 -323q-18 -20 -41 -20q-31 0 -42 31q-3 9 -3 19z" />
<glyph unicode="&#xcb;" d="M-766 -725q0 34 95 176q89 133 121 145q21 0 21 -25v-3q-109 -277 -151 -324q-18 -19 -40 -19q-32 0 -43 30q-3 9 -3 20z" />
<glyph unicode="&#xcc;" d="M-1503 -723q0 40 104 181l76 104q22 29 33 33q4 1 8 1q19 0 21 -25q0 -16 -84 -194q-47 -100 -62 -119q-24 -30 -51 -30q-30 0 -41 29q-4 9 -4 20zM-1189 -723q0 34 58 116l122 169q21 30 33 33q4 1 7 1q18 0 22 -21q0 -11 -38 -95l-53 -119q-45 -94 -68 -116 q-18 -17 -39 -17q-31 0 -41 28q-3 9 -3 21z" />
<glyph unicode="&#xcd;" d="M-1253 -725q0 37 92 168l86 122q20 30 38 31q19 -4 21 -25q0 -13 -65 -163q-62 -141 -86 -165q-19 -18 -41 -18q-31 0 -42 30q-3 9 -3 20zM-940 -725q0 31 91 170t125 151q21 0 21 -25v-3q-109 -277 -151 -323q-18 -20 -41 -20q-31 0 -42 31q-3 9 -3 19z" />
<glyph unicode="&#xce;" d="M-1237 -725q0 34 95 176q89 133 121 145q21 0 21 -25v-3q-109 -277 -151 -324q-18 -19 -40 -19q-32 0 -43 30q-3 9 -3 20zM-923 -726q0 38 92 169l86 122q21 31 38 31q20 0 20 -25v-3q-108 -286 -157 -329q-15 -14 -34 -14q-32 0 -42 31q-3 9 -3 18z" />
<glyph unicode="&#xcf;" d="M-923 -726q0 38 92 169l86 122q21 31 38 31q20 0 20 -25v-3q-108 -286 -157 -329q-15 -14 -34 -14q-32 0 -42 31q-3 9 -3 18zM-610 -725q0 37 92 168l86 122q21 29 38 31q19 -4 21 -25v-3q-109 -277 -151 -323q-18 -20 -41 -20q-31 0 -42 30q-3 9 -3 20z" />
<glyph unicode="&#xd0;" d="M-1579 -616q0 38 76 107l128 113l49 49q27 30 39 35q6 1 11 1q23 0 27 -22q1 -3 1 -7q0 -45 -111 -193q-55 -74 -89 -106q-36 -36 -72 -36q-42 0 -55 37q-4 10 -4 22zM-1408 -821q0 61 121 316q26 56 30 61q11 13 26 13q20 0 27 -19q2 -5 2 -11q0 -19 -20 -160.5 t-34 -188.5q-25 -82 -73 -90q-6 -1 -13 -1q-29 0 -50 26q-16 21 -16 54zM-1171 -518q0 200 50 200q23 0 32 -39l22 -134q18 -82 53 -156q16 -29 16 -57q0 -44 -33 -58q-11 -5 -25 -5q-58 0 -91 93q-24 68 -24 156z" />
<glyph unicode="&#xd1;" d="M-1388 -617q0 29 30 62q25 28 95 89q93 81 127 119q27 30 39 35q6 1 12 1q23 -6 27 -30q0 -42 -110 -190q-56 -74 -90 -108q-37 -36 -72 -36q-41 0 -55 36q-3 11 -3 22zM-1217 -821q0 54 99 268l30 66q17 40 28 49q9 7 20 7q21 0 27 -21q1 -4 1 -8q0 -20 -21.5 -169.5 t-37.5 -195.5q-21 -63 -62 -74l-18 -2q-38 0 -57 38q-9 19 -9 42zM-981 -517q0 199 50 199q24 0 32 -37l21 -133q18 -84 55 -159q16 -36 16 -56q0 -41 -31 -58q-12 -6 -27 -6q-58 0 -91 90q-25 67 -25 160z" />
<glyph unicode="&#xd2;" d="M-1214 -617q0 29 30 62q25 28 95 89q93 81 127 119q27 30 39 35q6 1 12 1q23 -6 27 -30q0 -42 -110 -190q-56 -74 -90 -108q-37 -36 -72 -36q-41 0 -55 36q-3 11 -3 22zM-1043 -821q0 54 99 268l30 66q17 40 28 49q9 7 20 7q21 0 27 -21q1 -4 1 -8q0 -20 -21.5 -169.5 t-37.5 -195.5q-21 -63 -62 -74l-18 -2q-38 0 -57 38q-9 19 -9 42zM-807 -515q0 197 50 197q24 0 32 -37l22 -134q18 -82 54 -158q16 -36 16 -56q0 -47 -35 -60q-10 -4 -23 -4q-58 0 -91 90q-25 69 -25 162z" />
<glyph unicode="&#xd3;" d="M-917 -617q0 29 30 62q25 28 95 89q93 81 127 119q27 30 39 35q6 1 12 1q23 -6 27 -30q0 -42 -110 -190q-56 -74 -90 -108q-37 -36 -72 -36q-41 0 -55 36q-3 11 -3 22zM-746 -821q0 54 99 268l30 66q17 40 28 49q9 7 20 7q21 0 27 -21q1 -4 1 -8q0 -20 -21.5 -169.5 t-37.5 -195.5q-21 -63 -62 -74l-18 -2q-38 0 -57 38q-9 19 -9 42zM-510 -517q0 199 50 199q24 0 32 -37l22 -134q18 -82 54 -158q16 -36 16 -56q0 -41 -31 -58q-12 -6 -27 -6q-55 0 -89 83q-27 68 -27 167z" />
<glyph unicode="&#xd4;" d="M-915 1301q0 13 76 178q51 112 70 136q21 29 48 29q42 -9 48 -48q0 -39 -93 -166l-87 -119q-21 -30 -33 -34q-4 -1 -7 -1q-19 5 -22 25zM-602 1301q0 7 23 59l68 151q45 94 65 115q18 18 39 18q41 -9 47 -48q0 -39 -93 -166l-87 -119q-22 -31 -34 -34q-3 -1 -6 -1 q-19 5 -22 25z" />
<glyph unicode="&#xd5;" d="M-583 1301v3q0 13 66 162q61 139 85 163q18 18 40 18q35 0 44 -35q2 -7 2 -16q0 -44 -161 -264q-33 -46 -36 -48q-9 -8 -19 -8q-21 0 -21 25zM-270 1301v3q0 13 64 159q62 142 87 166q19 18 41 18q37 0 44 -40q1 -6 1 -11q0 -39 -123 -211l-55 -77q-20 -27 -27 -30 q-5 -2 -10 -2q-21 0 -22 25z" />
<glyph unicode="&#xd6;" d="M-479 1301q0 16 77 182q49 104 69 132q21 29 49 29q41 -8 47 -48q0 -39 -93 -166l-87 -119q-21 -30 -33 -34q-4 -1 -7 -1q-19 5 -22 25zM-166 1298q0 10 28 74l63 139q44 93 65 115q18 18 39 18q41 0 47 -39v-9q0 -38 -82 -151l-98 -134q-22 -31 -34 -34q-3 -1 -6 -1 q-19 0 -22 22z" />
<glyph unicode="&#xd7;" d="M-305 1300q0 24 56 175q58 157 83 173q15 10 32 10q31 0 42 -33q3 -9 3 -19q0 -38 -119 -233l-41 -67q-15 -30 -33 -30q-16 0 -22 17q-1 4 -1 7zM9 1301q0 26 57 177q57 154 82 170q14 10 31 10q33 0 43 -34q2 -8 2 -18q0 -45 -142 -273q-27 -43 -30 -46q-9 -11 -21 -11 q-19 0 -22 25z" />
<glyph unicode="&#xd8;" d="M-919 1655q0 23 47 69q46 44 75 44q19 0 70 -79q77 -124 105 -238q1 0 38 42q85 95 229 226q54 49 81 49q11 0 11 -9q0 -23 -37 -58l-111 -104q-101 -100 -213 -235q-53 -64 -97 -79q-7 -3 -13 -3q-10 0 -19 41q-26 112 -63 184q-37 71 -94 136q-9 12 -9 14z" />
<glyph unicode="&#xd9;" d="M-570 1653v3q0 23 46 68q46 44 75 44q20 0 72 -81q71 -112 99 -219q4 -17 5 -17l21 24q269 293 326 293q11 0 11 -10q0 -23 -37 -58l-113 -106q-100 -99 -211 -232q-64 -77 -110 -82q-10 0 -18 40q-25 111 -62 183q-38 72 -96 138q-8 10 -8 12z" />
<glyph unicode="&#xda;" d="M-431 1653v2q0 23 44 67q47 46 78 46q19 0 66 -73q75 -115 109 -244l21 24q261 279 327 293q10 0 10 -10q0 -23 -40 -62l-118 -111q-98 -97 -202 -223q-68 -81 -111 -82q-10 0 -18 40q-25 111 -62 183t-95 138q-9 9 -9 12z" />
<glyph unicode="&#xdb;" d="M-310 1653v2q0 34 61 81q41 32 60 32t68 -75q74 -113 103 -225q4 -17 5 -17l21 24q269 293 326 293q11 0 11 -9q0 -24 -40 -62l-119 -113q-97 -97 -201 -222q-69 -82 -111 -82q-10 0 -18 40q-25 111 -62 183t-95 138q-9 9 -9 12z" />
<glyph unicode="&#xdc;" d="M-1023 1291q0 22 36 57l111 103q95 94 200 220l23 27q43 51 85 67q9 3 15 3q11 0 20 -37q21 -97 44 -150q44 -98 122 -184q-8 -49 -73 -94q-34 -23 -50 -23q-19 0 -71 82q-70 112 -99 218q-3 17 -5 17l-160 -168q-146 -149 -187 -149q-11 0 -11 11z" />
<glyph unicode="&#xdd;" d="M-675 1291q0 23 34 55l108 101q107 104 228 251q43 51 85 67q9 3 15 3q12 0 20 -36q20 -97 44 -151q44 -98 122 -184q-8 -49 -73 -94q-34 -23 -50 -23q-18 0 -68 78q-75 117 -106 239q-1 0 -43 -46q-81 -91 -207 -207q-71 -64 -98 -64q-11 0 -11 11z" />
<glyph unicode="&#xde;" d="M-536 1290q0 24 41 64l119 112q102 101 210 232q41 49 83 66q10 4 17 4q11 0 20 -39q24 -105 54 -169q39 -80 103 -152q9 -11 9 -15q0 -22 -45 -67q-47 -46 -77 -46q-19 0 -69 78q-75 119 -106 239q-1 0 -93 -98q-204 -219 -255 -219q-11 0 -11 10z" />
<glyph unicode="&#xdf;" d="M-415 1290q0 24 41 64l119 112q102 101 210 232q43 51 85 67q9 3 15 3q11 0 20 -39q24 -105 54 -169q39 -80 103 -152q9 -11 9 -15q0 -22 -44 -66q-48 -47 -79 -47q-18 0 -69 80q-75 118 -105 237q-1 0 -43 -46q-81 -91 -207 -207q-69 -64 -98 -64q-11 0 -11 10z" />
<glyph unicode="&#xe0;" d="M-1161 1337v11q35 62 91 94q20 11 32 11q6 0 9 -3q2 0 2 -11q4 -48 49 -67q4 -1 7 -2q7 -2 30 -2q107 0 192 44q31 15 41 30q29 38 29 95q0 84 -51 132q-32 30 -76 30q-32 0 -81 -43q-42 -39 -62 -44q-6 -1 -12 -1q-11 0 -11 10q0 26 74 92q98 86 170 105q15 3 26 3 q99 0 133 -75q17 -37 32 -148q7 -50 13 -80q36 -144 129 -151q33 0 81 43q42 38 62 44q6 1 12 1q11 0 11 -9q0 -26 -69 -89q-95 -88 -176 -108q-17 -4 -32 -4q-114 0 -147 138q-2 12 -6 31q-128 -128 -302 -160q-48 -9 -96 -9q-71 0 -96 54q-7 18 -8 38z" />
<glyph unicode="&#xe1;" d="M-829 1337v11q21 48 78 86q29 19 45 19q9 0 10 -9q3 -23 10 -35q21 -41 67 -41h10q168 0 231 77q30 38 30 92q0 88 -53 134q-31 28 -73 28q-32 0 -81 -43q-42 -39 -62 -44q-6 -1 -12 -1q-11 0 -11 10q0 26 71 91q96 87 171 106q15 3 28 3q105 0 141 -95q14 -37 28 -151 q5 -35 9 -57q26 -139 113 -150q8 -1 16 -1q31 0 80 43q43 38 63 44q6 1 12 1q10 0 10 -10q0 -26 -68 -88q-95 -88 -176 -108q-17 -4 -32 -4q-126 0 -153 169q-147 -129 -286 -158q-53 -11 -112 -11q-69 0 -95 52q-9 18 -9 40z" />
<glyph unicode="&#xe2;" d="M-563 1336q0 37 62 85q41 32 60 32q6 0 14 -24q16 -48 53 -59q12 -3 28 -3q78 0 136 35q14 8 20 15q44 55 45 139q1 2 1 4q0 106 -62 145q-25 15 -56 15q-30 0 -75 -41q-43 -40 -63 -45q-8 -3 -15 -3q-10 0 -10 8v3q0 25 70 89q98 89 174 108q15 4 27 4q104 0 134 -104 q0 -2 1 -5q10 -41 12 -159q2 -115 29 -158q16 -26 43 -39q22 -12 46 -12q33 0 78 42q42 39 61 45q8 2 16 2q10 0 10 -9q0 -28 -69 -92q-95 -87 -175 -106q-16 -4 -31 -4q-113 0 -136 137q-2 12 -3 12l-65 -55q-123 -94 -256 -94q-73 0 -96 56q-7 16 -8 36z" />
<glyph unicode="&#xe3;" d="M-413 1338q0 35 63 83q40 31 58 31q8 0 17 -26q15 -45 44 -56q12 -5 28 -5q73 0 121 31q53 35 68 164q2 23 2 40q0 111 -76 134q-15 5 -31 5q-27 0 -73 -42t-67 -47q-6 -2 -11 -2q-9 0 -10 12q0 23 65 86q97 92 176 112q16 4 30 4q105 0 127 -108q5 -25 5 -56l-11 -157 q-1 -18 -1 -33q0 -120 82 -140q13 -3 27 -3q27 0 71 41q43 41 63 47q8 2 15 2q11 0 11 -10q0 -26 -67 -89q-95 -89 -175 -110q-17 -4 -32 -4q-111 0 -129 136q-151 -133 -287 -135q-80 0 -99 66q-4 15 -4 29z" />
<glyph unicode="&#xe4;" d="M-1821 -844q0 213 380 478q115 81 262 162l600 328q16 8 24 8q13 0 13 -10q-2 -27 -49 -70q-16 -14 -31 -24q-5 -4 -292 -161q-392 -213 -506 -286q-173 -111 -229 -203q-7 -12 -13 -24q-25 -52 -25 -96q1 -83 66 -137q17 -14 36 -24q42 -22 93 -22q65 0 95 24q7 5 10 12 q15 29 15 60q0 82 -73 108q-19 7 -34 7q-12 0 -37 -14q-14 -8 -27 -9q-12 0 -12 11q0 30 56 77q70 58 131 58h4q94 -3 120 -93q6 -23 6 -42q0 -84 -83 -178q-90 -103 -207 -133q-38 -10 -75 -10q-114 0 -176 80q-42 53 -42 123z" />
<glyph unicode="&#xe5;" d="M-1767 -851q0 222 399 505q107 75 254 161l533 308q13 9 27 9q11 0 11 -12q-2 -26 -43 -65q-18 -16 -36 -27l-598 -348q-221 -132 -313 -227q-100 -105 -100 -204q0 -48 33 -99q52 -82 158 -82q68 0 97 23q6 5 9 11q16 30 16 62q0 85 -72 113q-19 7 -33 7t-41 -16 q-15 -9 -28 -9q-11 0 -11 10q0 21 44 65q72 72 148 72q71 0 108 -62q19 -34 19 -75q0 -88 -87 -183q-91 -100 -207 -130q-38 -10 -74 -10q-110 0 -171 78q-42 54 -42 125z" />
<glyph unicode="&#xe6;" d="M-1479 -1013q0 134 149 338q81 111 200 230q138 138 605 546q35 30 59 31q10 0 11 -8q0 -33 -112 -132l-125 -109q-326 -290 -434 -402q-137 -144 -188 -263q-30 -69 -30 -130q0 -93 69 -148q50 -39 118 -39q85 0 106 56q9 24 9 59q0 94 -77 126q-14 5 -26 7h-8 q-56 -46 -79 -46q-10 0 -10 9q0 22 42 71q80 84 158 88q72 0 111 -64q24 -39 24 -89q0 -94 -87 -194q-89 -104 -204 -136q-38 -10 -74 -10q-108 0 -167 82q-40 55 -40 127z" />
<glyph unicode="&#xe7;" d="M-1107 -813q0 187 220 456q52 64 105 118q36 36 342 324q51 47 77 47q13 0 13 -12q-3 -32 -158 -172l-42 -39l-150 -143q-274 -281 -274 -478q0 -102 76 -156q48 -35 110 -35q89 0 107 68q6 21 6 49q0 94 -72 131q-20 10 -34 10q-1 0 -32 -25q-35 -28 -56 -28 q-11 0 -11 10q0 37 58 93q78 69 142 74q43 0 83 -32q56 -44 56 -131q0 -106 -98 -210q-90 -95 -198 -123q-32 -9 -62 -9q-111 0 -169 81q-39 55 -39 132z" />
<glyph unicode="&#xe8;" d="M-886 1881q0 135 117 236q79 69 158 82q12 2 22 2q50 0 98 -30q59 -36 59 -98q0 -58 -67 -121q-50 -48 -81 -48q-10 0 -11 11q1 11 24 43v12q0 70 -83 98q-29 9 -51 9q-30 0 -37 -12q-2 -5 -6 -20q-8 -27 -8 -56v-11q0 -116 159 -193q49 -24 97 -37q108 -27 300 -27l7 1 q180 0 330 14q29 3 52 3q11 0 11 -10q0 -23 -41 -64q-34 -34 -69 -47q-1 0 -181 -115l-344 -216q-184 -111 -290 -163q-27 -13 -33 -13q-15 0 -18 14q-1 2 -1 4q0 43 653 440l60 36q-110 -5 -224 -6h-47q-257 0 -387 64q-60 30 -103 74q-64 70 -65 144z" />
<glyph unicode="&#xe9;" d="M-753 1790q0 127 101 228q79 80 166 95q15 2 28 2h5q102 0 141 -79q13 -26 13 -47q0 -62 -75 -128q-45 -41 -67 -41q-3 -1 -6 -1q-11 0 -11 10q0 13 24 44v13q0 30 -28 62q-39 44 -108 44q-28 0 -31 -7l-2 -4q-16 -38 -16 -83q0 -103 125 -178q15 -9 31 -17 q123 -60 392 -60q109 0 202 10q12 1 22 1q11 0 11 -10q0 -22 -41 -61q-19 -19 -44 -36l-412 -287q-220 -150 -245 -150q-16 0 -19 18q0 36 433 335l86 59l-98 -2h-11q-249 0 -375 51q-78 31 -129 84q-62 66 -62 135z" />
<glyph unicode="&#xea;" d="M-373 1130q0 34 455 313l40 25l-22 1h-2q-200 11 -319 95q-58 41 -85 96q-19 39 -19 78q0 124 101 225q80 81 170 96q15 2 29 2q57 0 103 -31q51 -35 51 -96q0 -68 -79 -132q-46 -37 -68 -37q-10 0 -12 9q0 16 25 46v12q0 35 -31 67q-37 39 -103 39q-30 0 -36 -11 q-16 -38 -16 -81q0 -103 114 -174q128 -80 328 -80q31 0 109 7q7 1 12 1q11 0 11 -10q0 -21 -40 -63q-37 -38 -70 -47q-1 0 -95 -59q-329 -210 -478 -288q-43 -22 -53 -22q-17 0 -20 19z" />
<glyph unicode="&#xeb;" d="M-231 1127q0 31 357 281l35 24q-249 83 -250 244q0 114 95 214q79 85 170 102q17 4 33 4q103 0 143 -80q14 -27 14 -47q0 -55 -66 -120q-51 -50 -82 -50q-11 0 -11 11q0 10 15 31q9 13 9 25q0 72 -86 98q-26 9 -48 9q-32 2 -35 -12q-17 -37 -17 -83q0 -98 109 -168 q71 -45 182 -72q22 -5 22 -13q0 -27 -48 -68q-32 -27 -98 -73q-269 -189 -387 -257q-30 -17 -37 -17q-17 0 -19 17z" />
<glyph unicode="&#xec;" d="M-1374 2633q0 32 59 87q49 47 87 57q5 2 1091 2q1085 0 1089 -1q6 -4 6 -14q0 -26 -46 -74q-48 -50 -103 -70h-1085q-448 -1 -768 -1q-319 0 -320 1q-7 0 -9 9q-1 2 -1 4z" />
<glyph unicode="&#xed;" d="M-2767 -1892q0 28 54 81q55 55 97 63q4 1 2172 1l8 -7q2 -3 2 -7q0 -27 -49 -77q-49 -51 -100 -68h-1087l-851 -1q-234 0 -244 6q-2 1 -2 9z" />
<glyph unicode="&#xee;" d="M-905 2634q0 32 59 87q49 45 87 56q6 2 856 2q839 -7 860 -12v-4q0 -27 -49 -76q-47 -47 -100 -67h-851h-455q-396 0 -399 1q-8 0 -8 13z" />
<glyph unicode="&#xef;" d="M-2298 -1892q0 27 53 81q57 57 98 63q1 1 852 1h850q10 -5 10 -15q0 -27 -48 -76t-101 -68h-852q-517 -1 -653 -1q-198 0 -207 6q-2 1 -2 9z" />
<glyph unicode="&#xf0;" horiz-adv-x="870" d="M-199 579q0 41 95 124q133 116 294 171q87 29 166 32h23q189 0 309 -111q108 -102 114 -250v-14q0 -183 -143 -341q-118 -129 -274 -181q-74 -25 -141 -25q-143 0 -219 64q-46 39 -46 90q0 72 65 113q35 21 69 21q40 0 85 -40q49 -45 66 -56q52 -33 122 -33q87 0 153 36 q18 10 26 20q53 62 62 175v21q0 117 -80 214q-88 107 -238 132q-34 5 -69 5q-161 0 -289 -96l-85 -66q-28 -19 -49 -19q-16 0 -16 14z" />
<glyph unicode="&#xf1;" horiz-adv-x="1044" d="M-233 598q0 30 70 95q125 114 302 173q104 35 210 42q18 2 22 2h43q54 -1 261 -27q203 -25 345 -25q84 0 148 31q25 12 39 12q17 0 17 -16q0 -40 -60 -87q-100 -78 -249 -83h-17q-146 0 -317 22q-44 6 -67 6q-96 0 -155 -114q-33 -63 -42 -136q-2 -20 -2 -50 q0 -107 66 -194t168 -103q9 -2 42 -2q171 0 268 66l48 33q16 9 32 9q15 0 15 -13q0 -32 -59 -89q-109 -106 -279 -147q-82 -19 -170 -19q-151 0 -236 112q-69 93 -69 234q0 169 154 349q41 49 81 83q-4 4 -89 4q-257 0 -420 -138q-53 -46 -83 -46q-17 0 -17 16z" />
<glyph unicode="&#xf2;" horiz-adv-x="1689" d="M-233 598q0 31 52 79q221 199 551 230q66 6 140 6q141 0 358 -22q325 -33 747 -33q145 0 198 31q22 12 38 12q17 0 17 -16q0 -21 -31 -58q-87 -103 -277 -111q-15 -1 -31 -1l-354 5q-58 0 -76 -25q-2 -2 -20 -41q-38 -84 -38 -176q0 -75 35 -163q66 -165 206 -172h11 q142 0 225 59q44 31 48 33q15 7 30 7q16 0 16 -14q0 -31 -58 -87q-106 -103 -264 -140q-46 -11 -93 -15q-22 -2 -53 -2q-124 0 -202 113q-29 41 -49 96l-17 -17q-150 -150 -334 -184q-46 -8 -90 -8q-111 0 -186 96q-74 94 -74 229q0 209 179 401q29 32 61 60h-32h-15 q-352 0 -519 -143q-52 -44 -83 -44q-16 0 -16 15zM367 446q0 -150 85 -237q62 -65 147 -65q86 0 166 35q25 11 34 20q39 39 57 133l26 132q37 144 138 254l6 8l-290 22q-150 16 -182 16q-30 0 -78 -49q-92 -90 -106 -226q-3 -21 -3 -43z" />
<glyph unicode="&#xf3;" horiz-adv-x="2088" d="M-233 598q0 34 71 97q68 61 168 111q221 111 567 111q127 0 413 -22q465 -37 1024 -37q151 0 204 31q21 12 37 12q18 0 18 -15q0 -31 -49 -76q-84 -76 -222 -93q-13 -2 -215 -2q-204 0 -217 -3q-17 -3 -42 -84q-26 -85 -26 -152q0 -102 42 -191q67 -141 189 -141 q120 0 208 58q45 30 56 33q7 2 14 2q15 0 15 -14q0 -30 -57 -86q-105 -102 -253 -138q-63 -15 -127 -15q-131 0 -203 132q-13 24 -28 58l-21 -20q-146 -146 -321 -167q-23 -3 -44 -3q-108 0 -176 115q-26 43 -27 60l-59 -53q-24 -20 -50 -36q-134 -86 -259 -86 q-111 0 -176 108q-52 88 -52 211q0 137 76 278q58 108 153 192h-18q-366 -14 -514 -147q-50 -43 -83 -43q-16 0 -16 15zM344 435q0 -152 78 -236q52 -55 121 -55q66 0 130 31q26 12 46 88l43 178q41 156 157 280l22 24l-256 21q-105 7 -166 7l-13 1q-60 -54 -86 -88 q-76 -102 -76 -251zM917 433q0 -137 71 -223q55 -66 128 -66q65 0 124 27q21 10 27 19q39 60 52 157q15 108 27 150q20 67 59 134q27 45 63 87l-23 1q-66 0 -309 13q-44 3 -67 3q-52 0 -84 -56q-8 -14 -24 -48q-44 -96 -44 -198z" />
<glyph unicode="&#xf4;" horiz-adv-x="958" d="M-286 -1092q0 242 132 603l63 163q79 204 126 344l339 1042q246 732 545 1135q83 110 188 222q175 188 231 188q16 0 16 -14q0 -26 -56 -83l-51 -49q-408 -393 -688 -1243l-358 -1103q-31 -93 -143 -381q-113 -291 -147 -467q-24 -124 -24 -240q0 -141 87 -257 q106 -142 288 -164q21 -3 50 -3q171 0 308 62q52 23 77 48q42 40 56 121q4 21 4 42q0 34 -35 77q-35 44 -41 69q-3 11 -3 24v7q0 65 61 105q36 24 73 24q61 0 96 -62q23 -42 23 -96q0 -146 -115 -289q-134 -166 -353 -242q-144 -49 -305 -49q-147 0 -267 90 q-150 112 -175 307q-2 16 -2 69z" />
<glyph unicode="&#xf5;" horiz-adv-x="1619" d="M-225 -1110q0 219 89 556q65 243 225 735l285 879q246 732 545 1135q83 110 188 222q175 188 231 188q16 0 16 -14q0 -26 -56 -83l-51 -49q-380 -366 -654 -1145l-46 -136l-83 -254l-4 -11h25h19q96 0 329 -22q351 -32 751 -32q101 0 161 30q23 12 37 12q17 0 17 -16 q0 -30 -48 -73q-81 -75 -218 -95q-24 -2 -107 -2l-329 5h-7q-107 0 -139 -61q-61 -91 -61 -219q0 -70 39 -148q74 -146 232 -148q177 0 268 63l49 35q16 9 33 10t17 -15q0 -25 -54 -80q-104 -107 -250 -146l-38 -9l10 -20q97 -200 97 -422q0 -344 -219 -635 q-91 -122 -213 -222q-319 -261 -694 -261q-270 0 -353 205q-39 98 -39 243zM-51 -979q0 -321 202 -395q68 -25 162 -25q201 0 376 82q71 32 130 77q162 122 243 350q57 157 57 320q0 297 -189 560l-5 7q-210 95 -210 325q0 121 76 251q42 73 105 137l20 21q-379 34 -491 39 h-11l-282 -872q-161 -518 -180 -775q-3 -49 -3 -102z" />
<glyph unicode="&#xf6;" horiz-adv-x="2158" d="M-225 -1110q0 219 89 556q65 243 225 735l285 879q246 732 545 1135q83 110 188 222q175 188 231 188q16 0 16 -14q0 -26 -56 -83l-51 -49q-380 -366 -654 -1145l-46 -136l-86 -261q0 -3 2 -3q73 3 150 4q114 0 369 -21q463 -39 1108 -39q140 0 194 31q22 12 38 12 t16 -15q0 -31 -48 -76q-84 -76 -220 -93q-11 -1 -135 -2q-161 0 -210 1q-115 0 -123 -1q-20 -4 -32 -23q-57 -95 -59 -212q0 -155 89 -256q57 -65 127 -78q13 -2 35 -2q137 0 229 59q47 31 56 34q12 5 23 5t12 -13q0 -30 -55 -85q-106 -105 -268 -143q-73 -17 -152 -17 q-124 0 -207 133q-23 37 -36 73q-98 -98 -186 -143l-59 -27l49 -86q91 -182 91 -412q0 -395 -295 -708q-152 -162 -335 -259l-34 -17q-205 -96 -436 -96q-299 0 -365 267q-19 78 -19 181zM-51 -980q0 -334 222 -400q61 -18 141 -18q397 0 605 274q76 99 120 228 q48 139 48 292q0 305 -193 556l-37 46q-132 56 -165 222q-9 40 -9 82q0 222 180 412l22 23l15 14q-123 15 -338 22q-52 1 -97 1h-31h-16l-284 -876q-161 -518 -180 -776q-3 -49 -3 -102zM856 439q0 -77 34 -157q61 -139 188 -139q82 0 161 36q23 10 32 19q42 43 70 211 q20 161 136 295q12 14 12 15l-456 20q-99 0 -149 -148q-28 -84 -28 -152z" />
<glyph unicode="&#xf7;" horiz-adv-x="522" d="M-1460 -1221q0 134 113 254q65 69 120 87q10 3 17 3q11 0 13 -13q0 -18 -30 -53q-44 -51 -54 -99q-5 -22 -5 -47q0 -106 75 -194q82 -96 218 -113q13 -2 48 -2q299 0 474 212l29 37q115 153 218 410q81 203 218 626l271 837q119 370 144 443q217 620 502 1013 q86 118 180 220q183 197 247 205q16 0 16 -13q0 -34 -70 -99q-410 -376 -708 -1226q-28 -81 -136 -420l-275 -848q-198 -643 -363 -935q-83 -147 -193 -272q-224 -254 -502 -326q-96 -24 -193 -24q-173 0 -280 108q-94 95 -94 229z" />
<glyph unicode="&#xf8;" horiz-adv-x="1271" d="M-1460 -1221q0 134 113 254q65 69 120 87q10 3 17 3q11 0 13 -13q0 -18 -30 -53q-44 -51 -54 -99q-5 -22 -5 -47q0 -106 75 -194q82 -96 218 -113q13 -2 48 -2q299 0 474 212l29 37q115 153 218 410q81 203 218 626l271 837q119 370 144 443q217 620 502 1013 q86 118 180 220q183 197 247 205q16 0 16 -13q0 -29 -69 -98q-99 -98 -112 -112q-240 -265 -426 -685q-114 -256 -242 -647l-135 -417q-18 -54 -18 -57l36 33q40 38 96 82q207 164 342 191q34 7 67 7q121 0 206 -82q86 -82 86 -206q0 -157 -154 -337q-50 -58 -97 -97h9 q40 -3 89 -3q206 0 314 78l59 44q20 12 40 12h4q13 0 13 -17q-2 -32 -63 -88q-117 -109 -300 -152q-90 -21 -186 -21h-9q-83 1 -254 20q-112 12 -200 12q-93 0 -220 -17q-51 -7 -57 -13q0 -19 -127 -387q-57 -166 -82 -229q-242 -602 -599 -826q-39 -25 -82 -47 q-175 -91 -369 -91q-173 0 -280 108q-94 95 -94 229zM212 148l120 27q116 21 238 21l146 -3q147 0 197 51q84 86 96 198q1 14 1 28q0 110 -77 186q-75 73 -185 73q-103 0 -233 -103l-50 -42q-145 -124 -206 -290z" />
<glyph unicode="&#xf9;" horiz-adv-x="1921" d="M-1460 -1221q0 134 113 254q65 69 120 87q10 3 17 3q11 0 13 -13q0 -18 -30 -53q-44 -51 -54 -99q-5 -22 -5 -47q0 -106 75 -194q82 -96 218 -113q13 -2 48 -2q299 0 474 212l29 37q115 153 218 410q81 203 218 626l271 837q119 370 144 443q217 620 502 1013 q86 118 180 220q183 197 247 205q16 0 16 -13q0 -34 -70 -99q-456 -417 -794 -1478l-123 -395q-4 -13 -8 -22q2 0 61 56q243 235 411 235q155 0 231 -139q37 -69 39 -129v-6q2 0 55 52q226 222 396 222q111 0 189 -82q78 -83 78 -207q0 -203 -205 -408l-27 -27h48 q267 6 369 82l49 39q18 12 41 12h4q13 0 13 -15q0 -59 -136 -144q-79 -49 -137 -69q-136 -48 -353 -48q-118 0 -410 19q-193 13 -337 13q-168 0 -419 -23q-128 -11 -148 -21q-2 0 -11 -28q-191 -612 -342 -890q-89 -164 -209 -300q-224 -254 -502 -326q-96 -24 -193 -24 q-173 0 -280 108q-94 95 -94 229zM210 142q294 42 482 53q45 2 89 10q45 8 55 18q1 2 15 20q69 91 76 198v20q0 108 -66 186q-60 71 -153 81q-9 1 -17 1q-69 0 -135 -49l-29 -23q-183 -150 -260 -344zM910 198l6 -1h22q73 -1 354 -20q60 -4 88 -4q122 0 168 52q69 76 90 173 q8 32 8 64q0 117 -77 197q-68 70 -162 70q-127 0 -255 -179q-42 -58 -106 -168l-38 -62q-39 -57 -83 -105z" />
<glyph unicode="&#xfa;" horiz-adv-x="1097" d="M0 336q0 104 114 231q76 85 140 115q17 8 27 8q15 0 15 -14q0 -27 -39 -63q-46 -44 -60 -67q-22 -37 -22 -82q0 -158 146 -255q102 -69 229 -81q20 -2 41 -2q87 0 159 29q37 15 56 36q61 76 64 203q0 225 -71 581l-71 358q-47 261 -47 451q0 335 168 576q66 94 161 181 q68 64 106 64q15 0 15 -12v-4q0 -27 -76 -103q-26 -26 -33 -34q-167 -195 -167 -538q0 -220 69 -558l70 -348q50 -268 50 -474t-156 -367q-126 -131 -298 -180q-73 -21 -141 -21q-189 0 -317 105q-121 98 -131 241q-1 12 -1 24z" />
<glyph unicode="&#xfb;" horiz-adv-x="1097" d="M-278 -545q0 99 66 186q26 34 70 78q98 101 145 101q15 0 15 -15q0 -28 -40 -66q-46 -42 -59 -64q-23 -36 -23 -82q0 -150 137 -248q97 -70 220 -85q33 -4 64 -4q93 0 163 32q37 17 55 41q57 73 57 204q0 191 -48 442q-58 -8 -90 -8h-17q-132 0 -251 68q-159 90 -182 251 q-1 3 -1 6q-3 17 -3 44q0 106 115 233q77 84 140 114q16 7 26 7q15 0 15 -14q0 -27 -39 -63q-46 -44 -60 -67q-22 -37 -22 -82q0 -158 146 -255q102 -69 229 -81q20 -2 41 -2q87 0 159 29q37 15 56 36q61 76 64 203q0 225 -71 581l-71 358q-47 261 -47 451q0 335 168 576 q66 94 161 181q68 64 106 64q15 0 15 -12v-4q0 -27 -76 -103q-26 -26 -33 -34q-167 -195 -167 -538q0 -220 69 -558l70 -348q50 -268 50 -474q0 -248 -225 -425q-37 -30 -81 -57q-8 -5 -8 -7l23 -166q13 -116 13 -217q0 -204 -158 -366q-126 -130 -298 -180q-44 -13 -87 -18 q-15 -2 -50 -2q-178 0 -306 94q-42 30 -72 68q-73 89 -73 197z" />
<glyph unicode="&#xfc;" d="M-2433 -1890q0 31 80 104q619 565 1134 1459q57 98 129 136q22 11 37 11t15 -14q0 -15 -62 -121q-463 -786 -1021 -1345q-151 -151 -219 -207q-49 -40 -78 -40q-14 7 -15 17z" />
<glyph unicode="&#xfd;" d="M-2208 -1890q5 36 80 104q620 565 1135 1459q58 103 131 137q20 10 34 10q16 0 16 -14q0 -15 -70 -132q-520 -880 -1156 -1472q-104 -97 -142 -107q-7 -1 -13 -1q-15 0 -15 16z" />
<glyph unicode="&#xfe;" d="M-2154 -1890q0 31 79 104q620 565 1135 1459q58 103 131 137q20 10 34 10q16 0 16 -15t-66 -125q-471 -799 -1018 -1340l-121 -121q-132 -126 -176 -126q-14 0 -14 12v5z" />
<glyph unicode="&#xff;" d="M-1876 -1893q0 33 56 86l157 145q219 211 469 533q270 348 532 802q60 104 133 138q20 9 33 9q16 0 16 -14q0 -12 -30 -62q-517 -897 -1155 -1504l-28 -26q-105 -98 -141 -114q-14 -7 -26 -7q-16 0 -16 14z" />
<glyph unicode="&#x100;" d="M-1550 1854q0 108 79 170q54 42 122 42q296 0 696 -641l402 -658q5 -10 5 -19q-3 -7 -11 -8q-25 0 -73 42q-20 17 -32 34q-21 31 -195 317l-237 388q-128 202 -226 304q-32 33 -63 59q-71 59 -151 59q-87 0 -140 -68q-42 -52 -42 -126q0 -46 19 -89q10 -23 21 -27 q29 -11 50 -11q81 0 112 70q9 21 9 37q0 15 -19 41q-11 15 -11 27q0 10 10 10q26 0 77 -46q77 -69 77 -135q0 -39 -30 -77q-39 -49 -112 -49q-84 0 -181 76q-109 86 -144 198q-12 40 -12 80z" />
<glyph unicode="&#x101;" d="M-1394 1848q0 59 37 118q57 89 167 89q230 0 517 -404q86 -121 176 -279q334 -598 341 -612q2 -4 2 -9q0 -4 -2 -6q0 -5 -9 -5q-28 0 -77 46q-22 19 -34 38l-372 663q-210 361 -349 427q-40 18 -82 18q-53 0 -104 -35q-77 -52 -77 -160q0 -59 25 -102q7 -11 13 -14 q21 -10 50 -10q80 0 110 69q8 20 8 36q0 18 -15 36q-11 14 -13 29q0 11 11 11q35 0 87 -54q64 -67 64 -125q0 -38 -29 -76q-39 -49 -112 -49q-80 0 -173 71q-113 86 -148 205q-12 42 -12 84z" />
<glyph unicode="&#x102;" d="M-1394 1848q0 59 37 118q57 89 167 89q230 0 517 -404q86 -121 176 -279q334 -598 341 -612q2 -4 2 -9q0 -4 -2 -6q0 -5 -9 -5q-28 0 -77 46q-22 19 -34 38l-372 663q-210 361 -349 427q-40 18 -82 18q-53 0 -104 -35q-77 -52 -77 -160q0 -59 25 -102q7 -11 13 -14 q21 -10 50 -10q80 0 110 69q8 20 8 36q0 18 -15 36q-11 14 -13 29q0 11 11 11q35 0 87 -54q64 -67 64 -125q0 -38 -29 -76q-39 -49 -112 -49q-80 0 -173 71q-113 86 -148 205q-12 42 -12 84z" />
<glyph unicode="&#x103;" horiz-adv-x="2048" d="M-1155 2131q0 114 81 179q56 44 126 44q160 0 325 -207q51 -64 95 -140q98 -173 192 -462l8 -24l238 -770q0 -10 -11 -10q-25 0 -72 41q-33 28 -45 54q-4 7 -117 371q-167 540 -228 691q-51 123 -125 235q-50 75 -97 91q-21 7 -50 7q-49 0 -100 -34q-86 -55 -86 -169 q0 -52 28 -108q31 -8 36 -8h14q78 3 104 67q6 16 6 27v9q-21 32 -21 42t10 10q27 0 78 -46q67 -61 67 -113q0 -69 -61 -101q-34 -18 -79 -18q-73 0 -163 69q-109 84 -142 197q-11 38 -11 76z" />
<glyph unicode="&#x104;" d="M-1634 751q0 15 23 42q453 516 571 641q161 169 290 262l31 22q150 103 271 113l19 1q87 0 150 -58q88 42 138 51q31 7 61 7q100 0 160 -71q48 -55 48 -134q0 -119 -104 -231q-88 -94 -190 -122q-30 -8 -57 -8q-81 0 -122 60q-22 32 -22 70q0 63 66 135q54 60 96 63 q10 0 10 -10q0 -15 -19 -38t-19 -48q0 -38 31 -72q33 -37 90 -37q72 0 93 58q4 12 8 33q5 22 5 43q0 89 -65 143q-50 43 -120 43q-182 0 -474 -324l-306 -346q-207 -234 -208 -235l-28 -27q-38 -36 -67 -36q-12 0 -12 10q0 15 23 42q440 503 569 638q144 152 263 244 q0 8 -43 22q-35 12 -65 12q-185 0 -487 -339q99 112 -48 -54l-245 -277q-207 -234 -208 -235l-28 -27q-38 -36 -67 -36q-12 0 -12 10z" />
<glyph unicode="&#x105;" d="M-1320 751q0 11 13 30l430 524l10 12q334 404 574 492q58 21 106 21q90 0 148 -48q97 48 177 48q113 0 170 -84q36 -53 36 -124q0 -117 -102 -227q-87 -94 -190 -123q-31 -8 -58 -8q-80 0 -120 60q-21 31 -21 69q0 77 83 150q50 44 76 45q11 0 11 -10q0 -13 -18 -36 q-18 -22 -18 -44q0 -61 53 -93q30 -18 67 -18h3q64 0 78 40q22 42 22 93q0 97 -72 151q-49 37 -113 37q-170 0 -428 -301l-295 -356l-164 -202q-93 -108 -133 -108h-3q-9 0 -9 9q0 12 13 31l440 536q182 219 327 338q22 17 33 28q0 7 -35 16q-28 8 -60 8q-170 0 -420 -291 l-301 -363q-200 -245 -212 -257q-40 -42 -77 -54q-6 -2 -10 -2q-11 0 -11 11z" />
<glyph unicode="&#x106;" d="M-972 750q0 6 5 18q4 9 315 466q297 437 517 577q46 30 92 49q69 29 115 29q76 0 131 -37l12 -9q76 33 111 40q27 6 53 6q98 0 157 -73q47 -57 47 -140q0 -106 -93 -215q-85 -98 -186 -129q-33 -10 -62 -10q-97 0 -131 83q-11 24 -11 44q0 71 78 141q49 44 76 45h3 q9 0 9 -10q0 -12 -18 -35q-13 -18 -13 -35q0 -77 79 -103q21 -7 38 -7q53 0 71 28q8 12 15 34q12 35 12 70q0 123 -107 171q-40 18 -73 18q-169 0 -400 -321l-23 -32q-126 -174 -308 -455q-66 -101 -101 -144q-38 -47 -84 -68q-12 -6 -19 -6q-11 0 -11 10q0 6 5 18 q4 9 315 466q199 294 337 429l84 77q-38 26 -90 26q-90 0 -175 -70q-146 -119 -418 -527l-200 -300q-24 -35 -40 -55q-38 -47 -84 -68q-12 -6 -19 -6q-11 0 -11 10z" />
<glyph unicode="&#x107;" d="M-624 752q0 15 179 360l30 57q90 172 220 323q198 231 370 250q10 1 21 1q57 0 100 -28q13 -9 21 -10q3 0 34 14q49 24 107 24q98 0 158 -73q47 -58 47 -142q0 -130 -112 -240q-85 -85 -177 -107q-23 -5 -42 -5q-83 0 -123 60q-19 30 -19 65q0 69 78 136q48 40 72 40 q11 0 11 -10q0 -11 -17 -35q-10 -14 -10 -25q0 -73 75 -100q23 -8 41 -8q47 0 64 23q13 18 23 70q2 10 2 32q0 129 -109 178q-40 18 -74 18q-144 0 -306 -262q-54 -88 -174 -325q-101 -197 -102 -201q-25 -43 -79 -77q-24 -14 -36 -14t-12 11q0 14 181 364l28 53 q135 257 322 430q-38 21 -81 21q-140 0 -290 -233q-61 -95 -184 -339l-110 -216q-25 -43 -79 -77q-24 -14 -37 -14q-11 0 -11 11z" />
<glyph unicode="&#x108;" d="M-1643 751q0 25 48 68q16 15 33 26q14 10 284 156l359 197q229 130 323 225q97 98 97 190q0 85 -66 140q-54 44 -129 44q-95 0 -113 -59q-5 -16 -5 -37q0 -49 36 -86q27 -28 64 -28h9q11 0 39 15q14 8 23 8t11 -11q0 -29 -55 -75q-73 -61 -134 -61q-69 0 -105 59 q-22 34 -22 80q0 85 89 180q91 98 203 128q36 10 70 10q91 0 142 -46q20 -19 26 -22q73 40 116 48q28 5 63 5q95 0 155 -65q51 -56 52 -137q0 -215 -368 -496q-105 -80 -231 -159q-492 -307 -515 -307q-11 0 -11 9q0 46 137 134q36 24 271 161q301 177 436 301q26 24 48 48 q99 105 99 206q0 86 -66 139q-52 44 -129 44q-8 0 -12 -1q-3 0 -3 -2l8 -41q1 -12 1 -24q0 -213 -378 -476q-107 -75 -244 -152q-373 -212 -579 -317q-58 -29 -64 -29q-13 0 -13 10z" />
<glyph unicode="&#x109;" d="M-1371 751q0 24 40 64q18 18 37 29l543 320q303 184 407 298q40 44 60 85q25 53 25 97q0 99 -77 152q-50 34 -115 34q-62 0 -93 -23q-8 -6 -12 -13q-15 -32 -15 -64q0 -79 70 -109q20 -8 36 -8q12 0 40 17q15 10 28 10q11 0 11 -11q0 -18 -42 -61q-74 -77 -150 -77 q-72 0 -108 63q-19 34 -19 74q0 94 95 193q61 63 135 98q67 33 126 33q92 0 150 -45q9 -7 10 -7l46 19q43 14 95 14q93 0 154 -67q52 -56 52 -138q0 -208 -347 -494q-96 -78 -212 -157q-498 -336 -524 -336q-11 0 -11 9q0 37 99 107q19 14 205 136q337 223 442 308 q106 86 161 170q53 81 53 155q0 93 -80 151q-43 30 -74 30l-1 -1q6 -25 7 -55q0 -208 -362 -481q-108 -82 -242 -163l-610 -360q-14 -6 -22 -6q-11 0 -11 10z" />
<glyph unicode="&#x10a;" d="M-972 750q0 44 155 145q29 19 292 178q330 199 471 331q34 31 60 61q71 80 81 165q1 11 1 22q0 84 -65 138q-53 45 -127 45q-95 0 -114 -60q-6 -18 -6 -42q0 -81 71 -110q21 -9 37 -9q4 0 44 19q17 9 24 9q12 0 12 -9q0 -21 -43 -65q-74 -76 -151 -76q-69 0 -106 60 q-22 35 -22 79q0 89 87 185q90 100 206 131q38 11 75 11q82 0 147 -54q65 27 121 27q110 0 169 -78q42 -55 42 -133q0 -142 -181 -341q-135 -148 -353 -303l-456 -318q-35 -17 -42 -17q-11 0 -11 11q1 28 54 74q7 6 14 11l217 151q315 219 413 303q99 85 156 173 q55 85 55 161q0 94 -82 152q-36 25 -56 25q4 -22 6 -46q0 -214 -376 -503q-96 -73 -215 -150q-567 -362 -593 -362q-11 0 -11 9z" />
<glyph unicode="&#x10b;" d="M-640 751q0 24 38 62q11 11 23 19l369 254q149 107 238 225q81 109 81 200q0 98 -75 151q-49 35 -113 35q-56 0 -88 -21q-4 -2 -6 -5q-23 -32 -23 -81q0 -94 80 -122q16 -6 30 -7q48 39 70 39q11 0 11 -10q0 -24 -48 -73q-75 -77 -147 -78q-68 0 -106 61q-25 39 -25 87 q0 101 101 204q91 92 195 121q23 6 49 8h23q91 0 159 -71q59 12 83 12q100 0 161 -74q47 -56 47 -131q0 -174 -222 -412q-94 -101 -179 -165l-309 -222q-35 -15 -40 -16q-11 0 -11 10q0 43 197 182l162 114q106 83 184 193q84 119 84 213q0 82 -67 143q-28 26 -42 26v-8 q0 -110 -108 -262q-115 -161 -324 -318q-151 -113 -329 -230q-98 -63 -112 -63q-11 0 -11 10z" />
<glyph unicode="&#x10c;" d="M215 2728q0 -45 36 -78q26 -22 60 -22q76 0 99 60q8 18 8 41q0 62 -52 89q-23 11 -50 11q-72 0 -95 -70q-6 -18 -6 -31zM320 2363q0 -32 24 -64q28 -37 76 -37q64 0 91 52q11 22 11 49q0 60 -49 88q-23 12 -52 12q-62 0 -89 -51q-12 -23 -12 -49zM424 1997q0 -38 28 -70 q27 -31 71 -31q63 0 91 49q12 23 12 52q0 64 -52 90q-22 11 -48 11q-73 0 -96 -71q-6 -17 -6 -30zM-358 1576q0 42 31 58q13 6 30 6q75 -2 103 -156q9 -52 9 -94q0 -200 -49 -200q-23 0 -31 34l-22 133q-18 84 -55 162q-16 34 -16 57zM-153 1338q0 30 32 231q12 77 20 108 q24 97 86 97q40 0 59 -40q8 -18 8 -41q0 -52 -99 -268l-30 -65q-17 -36 -20 -41q-12 -16 -28 -16q-21 0 -27 24q-1 5 -1 11zM-107 1214q0 28 64 130q94 148 168 191q23 13 41 13q39 0 53 -37q4 -11 4 -23q0 -28 -30 -61q-25 -28 -95 -89q-48 -42 -127 -123q-30 -31 -51 -32 q-23 8 -27 31z" />
<glyph unicode="&#x10d;" horiz-adv-x="1247" d="M2347 3559q0 -45 36 -78q26 -22 60 -22q76 0 99 60q8 18 8 41q0 62 -52 89q-23 11 -50 11q-72 0 -95 -70q-6 -18 -6 -31zM2452 3194q0 -32 24 -64q28 -37 76 -37q64 0 91 52q11 22 11 49q0 60 -49 88q-23 12 -52 12q-62 0 -89 -51q-12 -23 -12 -49zM2556 2828 q0 -38 28 -70q27 -31 71 -31q63 0 91 49q12 23 12 52q0 64 -52 90q-22 11 -48 11q-73 0 -96 -71q-6 -17 -6 -30zM-233 598q0 33 62 89q247 216 581 219q76 0 254 -23q146 -19 252 -19q110 0 153 8q4 0 5 1l48 158q219 698 560 1148q80 106 169 203q204 223 266 223 q16 0 16 -15q0 -28 -52 -79q-294 -266 -500 -660q-324 -616 -539 -1713q-12 -62 -90 -119q-46 -35 -71 -35q-15 0 -15 12t54 261q3 15 3 16v1q-1 0 -30 -29q-47 -44 -121 -99q-194 -145 -323 -160q-19 -2 -40 -2q-124 0 -208 83q-85 81 -85 206q0 108 81 237q32 52 75 101 q56 65 133 125l17 13q5 3 5 4q0 6 -112 10h-29q-222 0 -374 -101q-24 -16 -45 -34q-53 -46 -83 -46q-17 0 -17 16zM292 403q0 -161 140 -229q63 -31 121 -31q104 0 228 96q125 96 180 221q7 15 12 31l64 247v1q-49 -12 -219 -18h-29l-172 8q-142 0 -240 -111 q-78 -90 -85 -198v-17z" />
<glyph unicode="&#x10e;" d="M217 2728q0 -45 36 -78q26 -22 60 -22q76 0 99 60q8 18 8 41q0 62 -52 89q-23 11 -50 11q-72 0 -95 -70q-6 -18 -6 -31zM322 2363q0 -32 24 -64q28 -37 76 -37q64 0 91 52q11 22 11 49q0 60 -49 88q-23 12 -52 12q-62 0 -89 -51q-12 -23 -12 -49zM426 1997q0 -38 28 -70 q27 -31 71 -31q63 0 91 49q12 23 12 52q0 64 -52 90q-22 11 -48 11q-73 0 -96 -71q-6 -17 -6 -30zM-481 1576q0 39 29 57q12 7 28 7h4q76 -2 103 -157q9 -52 9 -92q0 -201 -49 -201q-24 0 -32 34l-21 134q-17 83 -55 161q-16 34 -16 57zM-276 1338l22 203q31 223 109 232 q4 1 7 1q40 0 59 -40q8 -18 8 -41q0 -52 -99 -268l-30 -65q-26 -54 -48 -57q-20 0 -27 21q-2 7 -1 14zM-230 1214q0 40 85 159q89 126 149 164q13 8 22 10q5 1 18 1q40 -2 52 -38q4 -10 4 -22q0 -28 -30 -61q-25 -28 -95 -89q-47 -41 -128 -123q-30 -31 -50 -32 q-22 0 -26 22q-1 4 -1 9z" />
<glyph unicode="&#x10f;" horiz-adv-x="1236" d="M2075 -21q2 33 61 86q29 26 66 50q557 353 879 737q233 277 277 488q9 42 9 78q0 122 -78 197q-61 60 -147 60q-58 0 -101 -31q-41 -30 -63 -37l-14 -4q-18 0 -18 15q0 27 51 79q81 83 212 128q162 55 276 137q36 26 55 48q50 56 50 132q0 123 -84 210q-90 93 -232 93 q-107 0 -150 -8q-123 -21 -227 -115q-74 -65 -109 -65q-16 0 -16 13q0 39 107 131q101 87 199 136q112 57 258 66l31 2h61q49 0 80 -7q124 -27 197 -134q59 -86 59 -189q0 -136 -141 -284q-88 -93 -227 -180q139 -77 145 -246q1 -7 1 -14q0 -164 -145 -402 q-96 -160 -247 -330q-297 -333 -732 -649q-164 -119 -287 -192q-26 -14 -41 -14t-15 15zM97 312q0 180 140 347q113 134 259 196q79 33 147 33q165 0 165 -110v-3q0 -72 -65 -112q-34 -21 -69 -21q-43 0 -83 41q-32 33 -46 39q-13 6 -27 6h-13q-153 0 -209 -144 q-25 -64 -25 -138q0 -151 113 -243q25 -21 50 -33q55 -26 111 -26q102 0 225 96q121 95 175 213q8 18 14 36l92 350q27 96 57 192q219 701 566 1156q78 101 164 195q204 223 265 223q16 0 16 -14q0 -33 -65 -93q-285 -259 -491 -657q-315 -611 -534 -1703q-13 -67 -94 -123 q-45 -31 -67 -31q-15 0 -15 12q0 26 47 235q8 35 10 42q-2 0 -16 -14q-224 -214 -405 -263q-46 -12 -88 -12q-119 0 -207 86q-97 95 -97 242z" />
<glyph unicode="&#x110;" d="M-1579 -616q0 38 76 107l128 113l49 49q27 30 39 35q6 1 11 1q23 0 27 -22q1 -3 1 -7q0 -45 -111 -193q-55 -74 -89 -106q-36 -36 -72 -36q-42 0 -55 37q-4 10 -4 22zM-1408 -821q0 61 121 316q26 56 30 61q11 13 26 13q20 0 27 -19q2 -5 2 -11q0 -19 -20 -160.5 t-34 -188.5q-25 -82 -73 -90q-6 -1 -13 -1q-29 0 -50 26q-16 21 -16 54zM-1171 -518q0 200 50 200q23 0 32 -39l22 -134q18 -82 53 -156q16 -29 16 -57q0 -44 -33 -58q-11 -5 -25 -5q-58 0 -91 93q-24 68 -24 156z" />
<glyph unicode="&#x112;" d="M-304 2181q0 38 73 104l123 109q31 30 56 57q27 29 36 33q7 3 14 3q24 0 28 -23q1 -3 1 -7q0 -41 -107 -186q-58 -79 -93 -113q-38 -36 -73 -36q-45 0 -56 45q-2 8 -2 14zM-133 1976q0 54 99 268l30 66q16 36 19 40q12 17 28 17q21 0 28 -21q1 -5 1 -9q0 -5 -8.5 -76 t-24 -165t-28.5 -131q-21 -59 -61 -67q-6 -2 -12 -2h-6q-40 0 -58 42q-7 17 -7 38zM103 2279q0 200 49 200q24 0 33 -35l23 -137q17 -81 53 -157q16 -34 16 -56q0 -45 -35 -60q-11 -4 -23 -4q-59 0 -92 93q-24 68 -24 156zM-620 1576q0 42 31 58q13 6 30 6q75 -2 103 -156 q9 -52 9 -94q0 -200 -49 -200q-24 0 -33 39l-23 137q-17 81 -52 153q-16 34 -16 57zM-416 1336l22 203q31 225 110 234q3 1 7 1q42 0 60 -42q7 -17 7 -39q0 -56 -105 -282q-30 -64 -38 -83q-11 -25 -34 -25q-20 0 -27 20q-2 6 -2 13zM-369 1214q0 26 62 125q94 152 169 196 q23 13 42 13q39 0 53 -37q4 -11 4 -23q0 -38 -76 -107l-127 -112q-28 -26 -50 -50q-35 -33 -50 -36q-23 8 -27 31z" />
<glyph unicode="&#x113;" horiz-adv-x="1253" d="M1249 2885q0 38 73 104l123 109q31 30 56 57q27 29 36 33q7 3 14 3q24 0 28 -23q1 -3 1 -7q0 -41 -107 -186q-58 -79 -93 -113q-38 -36 -73 -36q-45 0 -56 45q-2 8 -2 14zM1420 2680q0 54 99 268l30 66q16 36 19 40q12 17 28 17q21 0 28 -21q1 -5 1 -9q0 -5 -8.5 -76 t-24 -165t-28.5 -131q-21 -59 -61 -67q-6 -2 -12 -2h-6q-40 0 -58 42q-7 17 -7 38zM1656 2983q0 200 49 200q24 0 33 -35l23 -137q17 -81 53 -157q16 -34 16 -56q0 -45 -35 -60q-11 -4 -23 -4q-59 0 -92 93q-24 68 -24 156zM-35 -3q0 22 19 43q50 57 90 140q26 55 54 129 q41 109 101 309l136 432q141 421 304 716q160 292 356 506q189 206 251 206q14 0 14 -13q0 -29 -68 -97l-106 -105l-22 -25q-169 -193 -291 -431q-186 -362 -401 -1073l-43 -141q0 12 142 123q61 49 92 69q159 104 282 104q122 0 207 -82q84 -82 84 -206q0 -120 -87 -253 q-64 -97 -166 -182q-5 -5 -5 -6q3 -3 78 -3q222 0 337 81l62 47q21 13 43 13h4q13 0 13 -14q0 -33 -65 -92q-119 -106 -300 -152q-102 -26 -210 -26q-84 0 -272 20q-117 12 -200 12q-194 0 -380 -54q-29 -8 -38 -8q-15 0 -15 13zM170 147l117 24q109 18 226 18l177 -7 q129 0 192 51q7 5 12 10q80 79 95 190q3 19 3 37q0 117 -83 192q-74 66 -184 66h-12q-83 0 -191 -84q-159 -123 -284 -372q-42 -86 -65 -120q-3 -4 -3 -5z" />
<glyph unicode="&#x116;" d="M-308 2240q0 185 153 346q124 129 287 186q82 28 153 28q151 0 238 -110q73 -93 73 -232q0 -187 -155 -350q-83 -86 -191 -144q-129 -68 -261 -68q-139 0 -223 109q-74 95 -74 235zM-134 2371q0 -139 84 -232q76 -84 183 -84q84 0 159 31q40 15 62 37q60 58 67 183 q1 11 1 20q0 146 -87 236q-75 78 -188 78q-73 0 -149 -29q-54 -21 -76 -52q-56 -76 -56 -188zM-620 1576q0 42 31 58q13 6 30 6q75 -2 103 -156q9 -52 9 -94q0 -200 -49 -200q-24 0 -33 39l-23 137q-17 81 -52 153q-16 34 -16 57zM-416 1336l22 203q31 225 110 234q3 1 7 1 q42 0 60 -42q7 -17 7 -39q0 -56 -105 -282q-30 -64 -38 -83q-11 -25 -34 -25q-20 0 -27 20q-2 6 -2 13zM-369 1214q0 26 62 125q94 152 169 196q23 13 42 13q39 0 53 -37q4 -11 4 -23q0 -38 -76 -107l-127 -112q-28 -26 -50 -50q-35 -33 -50 -36q-23 8 -27 31z" />
<glyph unicode="&#x117;" horiz-adv-x="1253" d="M1245 2944q0 185 153 346q124 129 287 186q82 28 153 28q151 0 238 -110q73 -93 73 -232q0 -187 -155 -350q-83 -86 -191 -144q-129 -68 -261 -68q-139 0 -223 109q-74 95 -74 235zM1419 3075q0 -139 84 -232q76 -84 183 -84q84 0 159 31q40 15 62 37q60 58 67 183 q1 11 1 20q0 146 -87 236q-75 78 -188 78q-73 0 -149 -29q-54 -21 -76 -52q-56 -76 -56 -188zM-35 -3q0 22 19 43q50 57 90 140q26 55 54 129q41 109 101 309l136 432q141 421 304 716q160 292 356 506q189 206 251 206q14 0 14 -13q0 -29 -68 -97l-106 -105l-22 -25 q-169 -193 -291 -431q-186 -362 -401 -1073l-43 -141q0 12 142 123q61 49 92 69q159 104 282 104q122 0 207 -82q84 -82 84 -206q0 -120 -87 -253q-64 -97 -166 -182q-5 -5 -5 -6q3 -3 78 -3q222 0 337 81l62 47q21 13 43 13h4q13 0 13 -14q0 -33 -65 -92 q-119 -106 -300 -152q-102 -26 -210 -26q-84 0 -272 20q-117 12 -200 12q-194 0 -380 -54q-29 -8 -38 -8q-15 0 -15 13zM170 147l117 24q109 18 226 18l177 -7q129 0 192 51q7 5 12 10q80 79 95 190q3 19 3 37q0 117 -83 192q-74 66 -184 66h-12q-83 0 -191 -84 q-159 -123 -284 -372q-42 -86 -65 -120q-3 -4 -3 -5z" />
<glyph unicode="&#x11a;" d="M-47 2728q0 -45 36 -78q26 -22 60 -22q76 0 99 60q8 18 8 41q0 62 -52 89q-23 11 -50 11q-72 0 -95 -70q-6 -18 -6 -31zM58 2363q0 -32 24 -64q28 -37 76 -37q64 0 91 52q11 22 11 49q0 60 -49 88q-23 12 -52 12q-62 0 -89 -51q-12 -23 -12 -49zM162 1997q0 -38 28 -70 q27 -31 71 -31q63 0 91 49q12 23 12 52q0 64 -52 90q-22 11 -48 11q-73 0 -96 -71q-6 -17 -6 -30zM-620 1576q0 42 31 58q13 6 30 6q75 -2 103 -156q9 -52 9 -94q0 -200 -49 -200q-24 0 -33 39l-23 137q-17 81 -52 153q-16 34 -16 57zM-416 1336l22 203q31 225 110 234 q3 1 7 1q42 0 60 -42q7 -17 7 -39q0 -56 -105 -282q-30 -64 -38 -83q-11 -25 -34 -25q-20 0 -27 20q-2 6 -2 13zM-369 1214q0 26 62 125q94 152 169 196q23 13 42 13q39 0 53 -37q4 -11 4 -23q0 -38 -76 -107l-127 -112q-28 -26 -50 -50q-35 -33 -50 -36q-23 8 -27 31z" />
<glyph unicode="&#x11b;" horiz-adv-x="1253" d="M1506 3432q0 -45 36 -78q26 -22 60 -22q76 0 99 60q8 18 8 41q0 62 -52 89q-23 11 -50 11q-72 0 -95 -70q-6 -18 -6 -31zM1611 3067q0 -32 24 -64q28 -37 76 -37q64 0 91 52q11 22 11 49q0 60 -49 88q-23 12 -52 12q-62 0 -89 -51q-12 -23 -12 -49zM1715 2701 q0 -38 28 -70q27 -31 71 -31q63 0 91 49q12 23 12 52q0 64 -52 90q-22 11 -48 11q-73 0 -96 -71q-6 -17 -6 -30zM-35 -3q0 22 19 43q50 57 90 140q26 55 54 129q41 109 101 309l136 432q141 421 304 716q160 292 356 506q189 206 251 206q14 0 14 -13q0 -29 -68 -97 l-106 -105l-22 -25q-169 -193 -291 -431q-186 -362 -401 -1073l-43 -141q0 12 142 123q61 49 92 69q159 104 282 104q122 0 207 -82q84 -82 84 -206q0 -120 -87 -253q-64 -97 -166 -182q-5 -5 -5 -6q3 -3 78 -3q222 0 337 81l62 47q21 13 43 13h4q13 0 13 -14q0 -33 -65 -92 q-119 -106 -300 -152q-102 -26 -210 -26q-84 0 -272 20q-117 12 -200 12q-194 0 -380 -54q-29 -8 -38 -8q-15 0 -15 13zM170 147l117 24q109 18 226 18l177 -7q129 0 192 51q7 5 12 10q80 79 95 190q3 19 3 37q0 117 -83 192q-74 66 -184 66h-12q-83 0 -191 -84 q-159 -123 -284 -372q-42 -86 -65 -120q-3 -4 -3 -5z" />
<glyph unicode="&#x11c;" d="M82 1870q0 45 36 78q26 22 60 22q76 0 99 -60q8 -18 8 -41q0 -62 -52 -89q-23 -11 -50 -11q-72 0 -95 70q-6 18 -6 31zM187 2235q0 32 24 64q28 37 76 37q64 0 91 -52q11 -22 11 -49q0 -60 -49 -88q-23 -12 -52 -12q-62 0 -89 51q-12 23 -12 49zM291 2601q0 38 28 70 q27 31 71 31q63 0 91 -49q12 -23 12 -52q0 -64 -52 -90q-22 -11 -48 -11q-73 0 -96 71q-6 17 -6 30zM-339 1301v3q107 278 152 325q18 18 39 18q34 0 43 -33q2 -8 2 -16q0 -37 -88 -164l-90 -126q-20 -32 -37 -32q-21 0 -21 25z" />
<glyph unicode="&#x11d;" horiz-adv-x="1880" d="M2696 2651q0 45 36 78q26 22 60 22q76 0 99 -60q8 -18 8 -41q0 -62 -52 -89q-23 -11 -50 -11q-72 0 -95 70q-6 18 -6 31zM2801 3016q0 32 24 64q28 37 76 37q64 0 91 -52q11 -22 11 -49q0 -60 -49 -88q-23 -12 -52 -12q-62 0 -89 51q-12 23 -12 49zM2905 3382q0 38 28 70 q27 31 71 31q63 0 91 -49q12 -23 12 -52q0 -64 -52 -90q-22 -11 -48 -11q-73 0 -96 71q-6 17 -6 30zM102 310q0 211 188 405q128 133 264 165q23 6 49 8h13q151 0 166 -90q2 -11 2 -23q0 -66 -60 -108q-36 -25 -75 -25q-44 0 -77 35q-28 31 -38 38q-21 14 -52 14 q-87 0 -129 -54q-74 -105 -76 -232q0 -108 63 -197q72 -103 181 -103q103 0 190 79q82 74 119 199q49 167 184 303q134 136 276 160q26 5 51 5q129 0 153 -82q5 -15 5 -31q0 -68 -61 -110q-35 -24 -71 -24q-48 0 -81 36q-28 31 -38 37q-21 14 -52 14q-66 0 -107 -31 q-6 -4 -10 -9q-75 -83 -87 -217q-1 -16 -1 -29q0 -186 134 -264q59 -35 111 -35q106 0 207 119q23 27 42 57q42 65 111 204q60 121 123 192q21 24 45 47q60 53 100 58q15 0 15 -15q0 -19 -25 -48q-57 -65 -93 -139q-16 -35 -31 -75q-63 -165 -63 -353l3 -62q0 -41 -74 -99 q-57 -46 -84 -46q-14 0 -17 12q-2 10 -2 68q0 102 11 154l-1 1l-32 -29q-43 -42 -108 -91q-154 -115 -271 -115q-100 0 -178 75q-68 67 -90 173q-3 0 -28 -26q-48 -48 -122 -102q-166 -120 -297 -120q-99 0 -176 76q-70 68 -91 175q-8 34 -8 75z" />
<glyph unicode="&#x11e;" horiz-adv-x="1914" d="M22 446q0 28 77 98q96 87 189 125q65 25 112 26q173 2 380 -136q56 -37 223 -167q170 -131 272 -176q90 -40 173 -40q31 0 56 5q-3 12 -3 26q0 65 50 92q22 11 51 11q65 0 90 -52q10 -22 10 -48q0 -62 -52 -89q-23 -12 -49 -12q-27 0 -54 15q-87 -58 -160 -68 q-24 -3 -51 -3q-100 0 -225 58q-102 48 -277 156q-158 98 -220 130q-202 105 -348 105q-106 0 -182 -45q-36 -22 -50 -22q-12 0 -12 11zM75 1420q0 29 79 102q119 108 241 153q60 22 108 22q180 0 362 -211q87 -101 237 -336q144 -226 211 -311q153 -191 292 -208 q14 -2 29 -2q44 0 44 6l-3 25q0 65 50 92q23 12 51 12q66 0 90 -54q10 -21 10 -47q0 -63 -51 -90q-22 -12 -49 -12q-26 0 -55 16q-63 -55 -167 -70q-19 -3 -34 -3q-149 0 -314 169q-78 80 -233 285q-139 185 -215 270q-193 217 -362 251q-35 7 -70 7q-93 0 -180 -50 q-45 -26 -59 -26q-12 0 -12 10z" />
<glyph unicode="&#x11f;" horiz-adv-x="1914" d="M72 210q0 63 52 90q22 10 49 10q65 0 90 -52q11 -22 11 -48l-3 -29v-1q10 -9 90 -10q163 0 407 149q48 30 257 172q87 59 145 93q226 135 386 135q201 0 394 -189q63 -61 63 -84q0 -11 -11 -11q-13 0 -54 24q-93 55 -218 57h-15q-212 0 -550 -184l-216 -121 q-295 -155 -450 -165q-14 -1 -27 -1q-128 0 -224 66q-16 11 -20 13q-39 -15 -55 -15q-60 0 -87 47q-14 24 -14 54zM212 662q0 65 52 91q21 11 48 11q63 0 90 -53q11 -22 11 -49l-3 -27q0 -5 45 -5q147 0 307 191q75 91 220 318q147 231 225 326q170 205 331 213q7 1 14 1 q131 0 287 -111q95 -67 130 -122q9 -16 9 -26t-11 -10t-56 25q-88 50 -179 50q-172 0 -354 -184q-86 -88 -245 -299q-162 -217 -243 -306q-47 -51 -91 -91q-111 -100 -227 -100q-107 0 -197 66l-8 6q-24 -16 -56 -16q-42 0 -72 29q-27 27 -27 72z" />
<glyph unicode="&#x120;" d="M-179 2113q0 185 153 346q124 129 287 186q82 28 153 28q151 0 238 -110q73 -93 73 -232q0 -187 -155 -350q-83 -86 -191 -144q-129 -68 -261 -68q-139 0 -223 109q-74 95 -74 235zM-5 2244q0 -139 84 -232q76 -84 183 -84q84 0 159 31q40 15 62 37q60 58 67 183 q1 11 1 20q0 146 -87 236q-75 78 -188 78q-73 0 -149 -29q-54 -21 -76 -52q-56 -76 -56 -188zM-339 1301v3q107 278 152 325q18 18 39 18q34 0 43 -33q2 -8 2 -16q0 -37 -88 -164l-90 -126q-20 -32 -37 -32q-21 0 -21 25z" />
<glyph unicode="&#x121;" horiz-adv-x="1880" d="M2435 2894q0 185 153 346q124 129 287 186q82 28 153 28q151 0 238 -110q73 -93 73 -232q0 -187 -155 -350q-83 -86 -191 -144q-129 -68 -261 -68q-139 0 -223 109q-74 95 -74 235zM2609 3025q0 -139 84 -232q76 -84 183 -84q84 0 159 31q40 15 62 37q60 58 67 183 q1 11 1 20q0 146 -87 236q-75 78 -188 78q-73 0 -149 -29q-54 -21 -76 -52q-56 -76 -56 -188zM102 310q0 211 188 405q128 133 264 165q23 6 49 8h13q151 0 166 -90q2 -11 2 -23q0 -66 -60 -108q-36 -25 -75 -25q-44 0 -77 35q-28 31 -38 38q-21 14 -52 14q-87 0 -129 -54 q-74 -105 -76 -232q0 -108 63 -197q72 -103 181 -103q103 0 190 79q82 74 119 199q49 167 184 303q134 136 276 160q26 5 51 5q129 0 153 -82q5 -15 5 -31q0 -68 -61 -110q-35 -24 -71 -24q-48 0 -81 36q-28 31 -38 37q-21 14 -52 14q-66 0 -107 -31q-6 -4 -10 -9 q-75 -83 -87 -217q-1 -16 -1 -29q0 -186 134 -264q59 -35 111 -35q106 0 207 119q23 27 42 57q42 65 111 204q60 121 123 192q21 24 45 47q60 53 100 58q15 0 15 -15q0 -19 -25 -48q-57 -65 -93 -139q-16 -35 -31 -75q-63 -165 -63 -353l3 -62q0 -41 -74 -99 q-57 -46 -84 -46q-14 0 -17 12q-2 10 -2 68q0 102 11 154l-1 1l-32 -29q-43 -42 -108 -91q-154 -115 -271 -115q-100 0 -178 75q-68 67 -90 173q-3 0 -28 -26q-48 -48 -122 -102q-166 -120 -297 -120q-99 0 -176 76q-70 68 -91 175q-8 34 -8 75z" />
<glyph unicode="&#x122;" d="M-2071 -1472q2 33 61 86q29 26 66 50q557 353 879 737q233 277 277 488q9 42 9 78q0 122 -78 197q-61 60 -147 60q-58 0 -101 -31q-41 -30 -63 -37l-14 -4q-18 0 -18 15q0 27 51 79q81 83 212 128q162 55 276 137q36 26 55 48q50 56 50 132q0 123 -84 210q-90 93 -232 93 q-107 0 -150 -8q-123 -21 -227 -115q-74 -65 -109 -65q-16 0 -16 13q0 39 107 131q101 87 199 136q112 57 258 66l31 2h61q49 0 80 -7q124 -27 197 -134q59 -86 59 -189q0 -136 -141 -284q-88 -93 -227 -180q139 -77 145 -246q1 -7 1 -14q0 -164 -145 -402 q-96 -160 -247 -330q-297 -333 -732 -649q-164 -119 -287 -192q-26 -14 -41 -14t-15 15zM-339 1301v3q107 278 152 325q18 18 39 18q34 0 43 -33q2 -8 2 -16q0 -37 -88 -164l-90 -126q-20 -32 -37 -32q-21 0 -21 25z" />
<glyph unicode="&#x124;" d="M369 2140q0 45 36 78q26 22 60 22q76 0 99 -60q8 -18 8 -41q0 -62 -52 -89q-23 -11 -50 -11q-72 0 -95 70q-6 18 -6 31zM474 2505q0 32 24 64q28 37 76 37q64 0 91 -52q11 -22 11 -49q0 -60 -49 -88q-23 -12 -52 -12q-62 0 -89 51q-12 23 -12 49zM578 2871q0 38 28 70 q27 31 71 31q63 0 91 -49q12 -23 12 -52q0 -64 -52 -90q-22 -11 -48 -11q-73 0 -96 71q-6 17 -6 30zM-937 750q0 10 8 23l380 559q275 398 505 529q99 56 183 56q98 0 158 -72q47 -57 47 -138q0 -123 -106 -234q-86 -91 -186 -116q-26 -7 -50 -7q-77 0 -118 56 q-23 32 -23 72q0 65 70 134q51 51 83 51h1q11 0 11 -10q0 -13 -17 -35q-14 -18 -14 -35q0 -37 28 -71q32 -39 91 -39q55 0 74 34l11 27q11 34 11 68q0 93 -68 150q-50 42 -115 42q-149 0 -345 -251l-22 -29q-55 -72 -244 -349l-56 -83l-167 -245q-43 -60 -82 -82 q-5 -2 -10 -5q-18 -9 -27 -9q-11 0 -11 9z" />
<glyph unicode="&#x125;" horiz-adv-x="1253" d="M1797 2651q0 45 36 78q26 22 60 22q76 0 99 -60q8 -18 8 -41q0 -62 -52 -89q-23 -11 -50 -11q-72 0 -95 70q-6 18 -6 31zM1902 3016q0 32 24 64q28 37 76 37q64 0 91 -52q11 -22 11 -49q0 -60 -49 -88q-23 -12 -52 -12q-62 0 -89 51q-12 23 -12 49zM2006 3382q0 38 28 70 q27 31 71 31q63 0 91 -49q12 -23 12 -52q0 -64 -52 -90q-22 -11 -48 -11q-73 0 -96 71q-6 17 -6 30zM101 312q0 172 134 339q111 136 254 201q82 36 152 36q136 0 164 -65q9 -21 9 -48q0 -55 -46 -97q-39 -36 -89 -36q-45 0 -78 36q-29 31 -39 38q-22 13 -51 13 q-155 0 -212 -146q-24 -63 -24 -137q0 -150 112 -243q26 -21 51 -33q55 -27 112 -27q95 0 195 76q75 56 136 147q38 57 106 187q58 112 122 180q14 15 30 30q60 55 100 58q14 0 14 -15q0 -22 -26 -51q-53 -60 -83 -120q-21 -40 -40 -91q-62 -169 -62 -350l2 -65 q0 -40 -73 -99q-58 -46 -84 -46q-14 0 -17 12t-3 72q0 88 16 182l-17 -17q-121 -119 -256 -189q-114 -60 -205 -60q-121 0 -209 88q-95 96 -95 240z" />
<glyph unicode="&#x128;" horiz-adv-x="784" d="M378 1193q0 121 124 215q75 57 138 69l28 3q102 0 157 -75q35 -48 35 -110q0 -99 -94 -189q-82 -79 -174 -94q-16 -2 -31 -2q-52 0 -104 32q-79 50 -79 151zM512 1295q0 -47 33 -95q45 -68 129 -68q37 0 45 19q7 13 7 43q0 45 -30 92q-46 71 -135 71q-11 0 -16 -1 q-22 0 -26 -13q-1 -4 -2 -10q-5 -19 -5 -38zM-1012 -1711q0 27 53 79l239 224q154 149 323 329q523 557 772 971q182 302 182 481q0 161 -110 267q-82 80 -180 88h-16h-20q-225 0 -345 -87l-68 -52q-23 -15 -45 -15q-17 0 -17 15q0 32 64 90q181 163 425 200q47 7 98 9h40 q155 0 255 -118q92 -109 93 -267q0 -261 -362 -776q-340 -483 -879 -1025l-366 -350q-85 -77 -121 -77q-15 0 -15 14z" />
<glyph unicode="&#x129;" horiz-adv-x="1148" d="M1824 2733q0 121 124 215q75 57 138 69l28 3q102 0 157 -75q35 -48 35 -110q0 -99 -94 -189q-82 -79 -174 -94q-16 -2 -31 -2q-52 0 -104 32q-79 50 -79 151zM1958 2835q0 -47 33 -95q45 -68 129 -68q37 0 45 19q7 13 7 43q0 45 -30 92q-46 71 -135 71q-11 0 -16 -1 q-22 0 -26 -13q-1 -4 -2 -10q-5 -19 -5 -38zM-698 -1711q0 33 86 111q523 476 923 966q423 520 528 842q31 94 31 165q0 122 -69 222q-78 111 -211 132q-12 1 -39 1q-234 0 -291 -160q-16 -44 -16 -96q0 -64 43 -118q34 -41 40 -55q9 -20 9 -42q0 -71 -63 -111 q-35 -22 -72 -22q-73 0 -109 82q-22 50 -22 118q0 194 161 355q130 130 304 184q69 21 131 25h35q140 0 239 -106q99 -107 104 -263v-16q0 -261 -361 -775q-339 -482 -877 -1024q-184 -185 -373 -357q-80 -72 -117 -72q-14 0 -14 14z" />
<glyph unicode="&#x12a;" horiz-adv-x="784" d="M336 1295q0 38 73 104l123 109q31 30 56 57q27 29 36 33q7 3 14 3q24 0 28 -23q1 -3 1 -7q0 -41 -107 -186q-58 -79 -93 -113q-38 -36 -73 -36q-45 0 -56 45q-2 8 -2 14zM507 1090q0 54 99 268l30 66q16 36 19 40q12 17 28 17q21 0 28 -21q1 -5 1 -9q0 -5 -8.5 -76 t-24 -165t-28.5 -131q-21 -59 -61 -67q-6 -2 -12 -2h-6q-40 0 -58 42q-7 17 -7 38zM743 1393q0 200 49 200q24 0 33 -35l23 -137q17 -81 53 -157q16 -34 16 -56q0 -45 -35 -60q-11 -4 -23 -4q-59 0 -92 93q-24 68 -24 156zM-1012 -1711q0 27 53 79l239 224q154 149 323 329 q523 557 772 971q182 302 182 481q0 161 -110 267q-82 80 -180 88h-16h-20q-225 0 -345 -87l-68 -52q-23 -15 -45 -15q-17 0 -17 15q0 32 64 90q181 163 425 200q47 7 98 9h40q155 0 255 -118q92 -109 93 -267q0 -261 -362 -776q-340 -483 -879 -1025l-366 -350 q-85 -77 -121 -77q-15 0 -15 14z" />
<glyph unicode="&#x12b;" horiz-adv-x="1148" d="M1783 2835q0 38 73 104l123 109q31 30 56 57q27 29 36 33q7 3 14 3q24 0 28 -23q1 -3 1 -7q0 -41 -107 -186q-58 -79 -93 -113q-38 -36 -73 -36q-45 0 -56 45q-2 8 -2 14zM1954 2630q0 54 99 268l30 66q16 36 19 40q12 17 28 17q21 0 28 -21q1 -5 1 -9q0 -5 -8.5 -76 t-24 -165t-28.5 -131q-21 -59 -61 -67q-6 -2 -12 -2h-6q-40 0 -58 42q-7 17 -7 38zM2190 2933q0 200 49 200q24 0 33 -35l23 -137q17 -81 53 -157q16 -34 16 -56q0 -45 -35 -60q-11 -4 -23 -4q-59 0 -92 93q-24 68 -24 156zM-698 -1711q0 33 86 111q523 476 923 966 q423 520 528 842q31 94 31 165q0 122 -69 222q-78 111 -211 132q-12 1 -39 1q-234 0 -291 -160q-16 -44 -16 -96q0 -64 43 -118q34 -41 40 -55q9 -20 9 -42q0 -71 -63 -111q-35 -22 -72 -22q-73 0 -109 82q-22 50 -22 118q0 194 161 355q130 130 304 184q69 21 131 25h35 q140 0 239 -106q99 -107 104 -263v-16q0 -261 -361 -775q-339 -482 -877 -1024q-184 -185 -373 -357q-80 -72 -117 -72q-14 0 -14 14z" />
<glyph unicode="&#x130;" horiz-adv-x="784" d="M332 1354q0 185 153 346q124 129 287 186q82 28 153 28q151 0 238 -110q73 -93 73 -232q0 -187 -155 -350q-83 -86 -191 -144q-129 -68 -261 -68q-139 0 -223 109q-74 95 -74 235zM506 1485q0 -139 84 -232q76 -84 183 -84q84 0 159 31q40 15 62 37q60 58 67 183 q1 11 1 20q0 146 -87 236q-75 78 -188 78q-73 0 -149 -29q-54 -21 -76 -52q-56 -76 -56 -188zM-1012 -1711q0 27 53 79l239 224q154 149 323 329q523 557 772 971q182 302 182 481q0 161 -110 267q-82 80 -180 88h-16h-20q-225 0 -345 -87l-68 -52q-23 -15 -45 -15 q-17 0 -17 15q0 32 64 90q181 163 425 200q47 7 98 9h40q155 0 255 -118q92 -109 93 -267q0 -261 -362 -776q-340 -483 -879 -1025l-366 -350q-85 -77 -121 -77q-15 0 -15 14z" />
<glyph unicode="&#x131;" horiz-adv-x="1148" d="M-698 -1711q0 33 86 111q523 476 923 966q423 520 528 842q31 94 31 165q0 122 -69 222q-78 111 -211 132q-12 1 -39 1q-234 0 -291 -160q-16 -44 -16 -96q0 -64 43 -118q34 -41 40 -55q9 -20 9 -42q0 -71 -63 -111q-35 -22 -72 -22q-73 0 -109 82q-22 50 -22 118 q0 194 161 355q130 130 304 184q69 21 131 25h35q140 0 239 -106q99 -107 104 -263v-16q0 -261 -361 -775q-339 -482 -877 -1024q-184 -185 -373 -357q-80 -72 -117 -72q-14 0 -14 14z" />
<glyph unicode="&#x132;" horiz-adv-x="784" d="M-169 751q0 39 119 120q35 23 294 182l283 180q239 158 317 280q46 73 46 140q0 84 -65 138q-53 44 -127 44q-95 0 -114 -60q-6 -18 -6 -42q0 -81 71 -111q22 -8 38 -8q9 0 37 17q18 11 31 11q11 0 11 -10q0 -18 -41 -62q-75 -78 -152 -78q-73 0 -109 63q-20 35 -20 76 q0 89 87 185q91 101 208 132q37 10 73 10q103 0 165 -72q47 -56 47 -131q0 -213 -368 -497q-100 -77 -222 -155l-566 -354q-17 -8 -26 -8q-11 0 -11 10zM-1012 -1711q0 27 53 79l239 224q154 149 323 329q523 557 772 971q182 302 182 481q0 161 -110 267q-82 80 -180 88 h-16h-20q-225 0 -345 -87l-68 -52q-23 -15 -45 -15q-17 0 -17 15q0 32 64 90q181 163 425 200q47 7 98 9h40q155 0 255 -118q92 -109 93 -267q0 -261 -362 -776q-340 -483 -879 -1025l-366 -350q-85 -77 -121 -77q-15 0 -15 14z" />
<glyph unicode="&#x133;" horiz-adv-x="2888" d="M974 657q0 28 59 86q108 104 256 145q42 11 85 16q43 4 91 4q152 0 403 -49q243 -47 348 -56q66 -6 128 -6q214 0 327 84l68 55q23 15 47 15q16 0 16 -14q0 -41 -102 -123q-39 -33 -82 -60q-172 -110 -387 -117h-35q-99 0 -240 21q-20 3 -32 4q-249 -44 -419 -175 q-211 -163 -211 -407q0 -212 146 -363q145 -152 380 -185q57 -8 116 -8q248 0 399 114q66 50 106 119t40 127q0 33 -33 75q-34 44 -39 72q-1 8 -1 17q0 66 58 108q37 25 76 25q52 0 85 -48q29 -42 29 -109q0 -159 -181 -353q-33 -35 -66 -65q-258 -230 -583 -241 q-15 -1 -31 -1q-276 0 -464 147q-160 126 -199 314q-11 53 -11 107q0 157 73 295l15 28q123 215 370 376q62 40 121 70q0 10 -222 35q-115 12 -160 12q-164 0 -248 -61l-44 -33q-17 -10 -36 -10q-16 0 -16 13zM-698 -1711q0 33 86 111q523 476 923 966q423 520 528 842 q31 94 31 165q0 122 -69 222q-78 111 -211 132q-12 1 -39 1q-234 0 -291 -160q-16 -44 -16 -96q0 -64 43 -118q34 -41 40 -55q9 -20 9 -42q0 -71 -63 -111q-35 -22 -72 -22q-73 0 -109 82q-22 50 -22 118q0 194 161 355q130 130 304 184q69 21 131 25h35q140 0 239 -106 q99 -107 104 -263v-16q0 -261 -361 -775q-339 -482 -877 -1024q-184 -185 -373 -357q-80 -72 -117 -72q-14 0 -14 14z" />
<glyph unicode="&#x134;" d="M258 2181q0 45 36 78q26 22 60 22q76 0 99 -60q8 -18 8 -41q0 -62 -52 -89q-23 -11 -50 -11q-72 0 -95 70q-6 18 -6 31zM363 2546q0 32 24 64q28 37 76 37q64 0 91 -52q11 -22 11 -49q0 -60 -49 -88q-23 -12 -52 -12q-62 0 -89 51q-12 23 -12 49zM467 2912q0 38 28 70 q27 31 71 31q63 0 91 -49q12 -23 12 -52q0 -64 -52 -90q-22 -11 -48 -11q-73 0 -96 71q-6 17 -6 30zM-953 751q0 39 119 120q35 23 294 182l283 180q239 158 317 280q46 73 46 140q0 84 -65 138q-53 44 -127 44q-95 0 -114 -60q-6 -18 -6 -42q0 -81 71 -111q22 -8 38 -8 q9 0 37 17q18 11 31 11q11 0 11 -10q0 -18 -41 -62q-75 -78 -152 -78q-73 0 -109 63q-20 35 -20 76q0 89 87 185q91 101 208 132q37 10 73 10q103 0 165 -72q47 -56 47 -131q0 -213 -368 -497q-100 -77 -222 -155l-566 -354q-17 -8 -26 -8q-11 0 -11 10z" />
<glyph unicode="&#x135;" horiz-adv-x="1740" d="M1868 1174q0 45 36 78q26 22 60 22q76 0 99 -60q8 -18 8 -41q0 -62 -52 -89q-23 -11 -50 -11q-72 0 -95 70q-6 18 -6 31zM1973 1539q0 32 24 64q28 37 76 37q64 0 91 -52q11 -22 11 -49q0 -60 -49 -88q-23 -12 -52 -12q-62 0 -89 51q-12 23 -12 49zM2077 1905q0 38 28 70 q27 31 71 31q63 0 91 -49q12 -23 12 -52q0 -64 -52 -90q-22 -11 -48 -11q-73 0 -96 71q-6 17 -6 30zM-174 657q0 28 59 86q108 104 256 145q42 11 85 16q43 4 91 4q152 0 403 -49q243 -47 348 -56q66 -6 128 -6q214 0 327 84l68 55q23 15 47 15q16 0 16 -14q0 -41 -102 -123 q-39 -33 -82 -60q-172 -110 -387 -117h-35q-99 0 -240 21q-20 3 -32 4q-249 -44 -419 -175q-211 -163 -211 -407q0 -212 146 -363q145 -152 380 -185q57 -8 116 -8q248 0 399 114q66 50 106 119t40 127q0 33 -33 75q-34 44 -39 72q-1 8 -1 17q0 66 58 108q37 25 76 25 q52 0 85 -48q29 -42 29 -109q0 -159 -181 -353q-33 -35 -66 -65q-258 -230 -583 -241q-15 -1 -31 -1q-276 0 -464 147q-160 126 -199 314q-11 53 -11 107q0 157 73 295l15 28q123 215 370 376q62 40 121 70q0 10 -222 35q-115 12 -160 12q-164 0 -248 -61l-44 -33 q-17 -10 -36 -10q-16 0 -16 13z" />
<glyph unicode="&#x136;" horiz-adv-x="878" d="M-1321 -2799q2 33 61 86q29 26 66 50q557 353 879 737q233 277 277 488q9 42 9 78q0 122 -78 197q-61 60 -147 60q-58 0 -101 -31q-41 -30 -63 -37l-14 -4q-18 0 -18 15q0 27 51 79q81 83 212 128q162 55 276 137q36 26 55 48q50 56 50 132q0 123 -84 210q-90 93 -232 93 q-107 0 -150 -8q-123 -21 -227 -115q-74 -65 -109 -65q-16 0 -16 13q0 39 107 131q101 87 199 136q112 57 258 66l31 2h61q49 0 80 -7q124 -27 197 -134q59 -86 59 -189q0 -136 -141 -284q-88 -93 -227 -180q139 -77 145 -246q1 -7 1 -14q0 -164 -145 -402 q-96 -160 -247 -330q-297 -333 -732 -649q-164 -119 -287 -192q-26 -14 -41 -14t-15 15zM86 281q0 103 81 215q103 144 288 261q4 2 8 5q-105 63 -137 161q-15 48 -15 104q0 240 273 586q78 98 177 202q376 396 899 733q80 51 99 56q5 1 9 1q16 0 16 -15q0 -30 -53 -80 q-30 -28 -72 -55q-503 -318 -830 -673q-263 -285 -325 -500q-19 -68 -19 -124q0 -165 134 -235q60 -32 112 -32q55 0 100 34q40 24 60 26q12 -4 13 -16q0 -31 -63 -89q-90 -83 -193 -108q-222 -54 -325 -173q-62 -72 -62 -151q0 -127 86 -215q89 -90 228 -90q218 0 346 101 l86 75q29 22 57 22q14 0 14 -13q0 -37 -68 -97q-181 -162 -325 -212q-36 -12 -74 -20q-70 -15 -179 -16q-80 0 -136 22q-116 46 -173 157q-37 72 -37 153z" />
<glyph unicode="&#x137;" horiz-adv-x="1044" d="M-1715 -3635q2 33 61 86q29 26 66 50q557 353 879 737q233 277 277 488q9 42 9 78q0 122 -78 197q-61 60 -147 60q-58 0 -101 -31q-41 -30 -63 -37l-14 -4q-18 0 -18 15q0 27 51 79q81 83 212 128q162 55 276 137q36 26 55 48q50 56 50 132q0 123 -84 210q-90 93 -232 93 q-107 0 -150 -8q-123 -21 -227 -115q-74 -65 -109 -65q-16 0 -16 13q0 39 107 131q101 87 199 136q112 57 258 66l31 2h61q49 0 80 -7q124 -27 197 -134q59 -86 59 -189q0 -136 -141 -284q-88 -93 -227 -180q139 -77 145 -246q1 -7 1 -14q0 -164 -145 -402 q-96 -160 -247 -330q-297 -333 -732 -649q-164 -119 -287 -192q-26 -14 -41 -14t-15 15zM-348 -529q0 164 174 345q129 134 305 224q-83 75 -94 209q-1 18 -1 37q0 288 426 866q346 468 855 976l210 204q124 116 153 140q64 53 93 53q15 0 15 -14q0 -33 -81 -107 q-521 -472 -923 -963q-429 -523 -540 -850q-35 -101 -35 -176q0 -73 35 -148q57 -124 178 -124q88 0 165 54q46 33 58 37q10 4 18 4q16 0 16 -14q0 -26 -55 -83q-102 -105 -243 -142q-31 -9 -63 -13q-122 -15 -251 -78q-96 -47 -156 -108q-85 -84 -85 -195q0 -139 103 -235 q107 -95 252 -97q116 0 208 39q44 18 55 38q26 43 26 102q0 54 -40 106q-33 43 -39 63q-5 15 -5 32q0 87 83 122q29 12 52 12q68 0 102 -81q21 -50 21 -115q0 -126 -107 -251q-119 -140 -302 -196q-96 -31 -197 -31q-171 0 -282 111q-100 98 -104 236v11z" />
<glyph unicode="&#x139;" d="M-941 377q0 39 88 160l92 125q21 29 32 33q4 2 8 2q20 0 22 -26q0 -7 -18 -48l-73 -162q-45 -95 -67 -116q-17 -17 -38 -17q-33 0 -43 29q-3 9 -3 20zM-628 377q-2 37 82 152l98 133q22 29 32 33q4 2 9 2q21 0 21 -26q0 -14 -75 -177q-51 -111 -71 -136q-22 -30 -49 -30 q-43 0 -47 49zM-1101 -114q0 35 57 116l123 169q20 29 30 33q5 2 10 2q18 0 22 -22q0 -14 -38 -94l-53 -120q-45 -94 -68 -116q-17 -17 -37 -17q-34 0 -43 30q-3 9 -3 19z" />
<glyph unicode="&#x13a;" horiz-adv-x="958" d="M1262 2599q0 39 88 160l92 125q21 29 32 33q4 2 8 2q20 0 22 -26q0 -7 -18 -48l-73 -162q-45 -95 -67 -116q-17 -17 -38 -17q-33 0 -43 29q-3 9 -3 20zM1575 2599q-2 37 82 152l98 133q22 29 32 33q4 2 9 2q21 0 21 -26q0 -14 -75 -177q-51 -111 -71 -136 q-22 -30 -49 -30q-43 0 -47 49zM-399 102q0 32 60 88q59 57 96 58q13 0 25 -15q23 -28 56 -44q38 -18 81 -18q79 0 163 75q164 146 204 258q12 34 12 64q0 66 -52 121q-54 57 -131 57q-109 0 -191 -59q-47 -33 -56 -37q-13 -6 -25 -6q-16 0 -16 13q0 25 53 81 q102 108 244 149q66 19 134 19h7q93 -1 154 -68q58 -64 144 -260l95 -213q91 -182 173 -201q13 -3 29 -3q72 0 167 74q70 53 80 59q22 13 37 13q13 -7 14 -16q0 -31 -79 -105q-116 -110 -242 -159q-67 -26 -121 -26q-88 0 -153 86q-52 69 -138 266l-47 110 q-72 -103 -196 -222q-240 -230 -405 -230q-92 0 -153 57q-23 22 -23 34z" />
<glyph unicode="&#x13b;" d="M-2808 -2911q2 33 61 86q29 26 66 50q557 353 879 737q233 277 277 488q9 42 9 78q0 122 -78 197q-61 60 -147 60q-58 0 -101 -31q-41 -30 -63 -37l-14 -4q-18 0 -18 15q0 27 51 79q81 83 212 128q162 55 276 137q36 26 55 48q50 56 50 132q0 123 -84 210q-90 93 -232 93 q-107 0 -150 -8q-123 -21 -227 -115q-74 -65 -109 -65q-16 0 -16 13q0 39 107 131q101 87 199 136q112 57 258 66l31 2h61q49 0 80 -7q124 -27 197 -134q59 -86 59 -189q0 -136 -141 -284q-88 -93 -227 -180q139 -77 145 -246q1 -7 1 -14q0 -164 -145 -402 q-96 -160 -247 -330q-297 -333 -732 -649q-164 -119 -287 -192q-26 -14 -41 -14t-15 15zM-1101 -114q0 35 57 116l123 169q20 29 30 33q5 2 10 2q18 0 22 -22q0 -14 -38 -94l-53 -120q-45 -94 -68 -116q-17 -17 -37 -17q-34 0 -43 30q-3 9 -3 19z" />
<glyph unicode="&#x13c;" horiz-adv-x="958" d="M-1037 -2747q2 33 61 86q29 26 66 50q557 353 879 737q233 277 277 488q9 42 9 78q0 122 -78 197q-61 60 -147 60q-58 0 -101 -31q-41 -30 -63 -37l-14 -4q-18 0 -18 15q0 27 51 79q81 83 212 128q162 55 276 137q36 26 55 48q50 56 50 132q0 123 -84 210q-90 93 -232 93 q-107 0 -150 -8q-123 -21 -227 -115q-74 -65 -109 -65q-16 0 -16 13q0 39 107 131q101 87 199 136q112 57 258 66l31 2h61q49 0 80 -7q124 -27 197 -134q59 -86 59 -189q0 -136 -141 -284q-88 -93 -227 -180q139 -77 145 -246q1 -7 1 -14q0 -164 -145 -402 q-96 -160 -247 -330q-297 -333 -732 -649q-164 -119 -287 -192q-26 -14 -41 -14t-15 15zM-399 102q0 32 60 88q59 57 96 58q13 0 25 -15q23 -28 56 -44q38 -18 81 -18q79 0 163 75q164 146 204 258q12 34 12 64q0 66 -52 121q-54 57 -131 57q-109 0 -191 -59 q-47 -33 -56 -37q-13 -6 -25 -6q-16 0 -16 13q0 25 53 81q102 108 244 149q66 19 134 19h7q93 -1 154 -68q58 -64 144 -260l95 -213q91 -182 173 -201q13 -3 29 -3q72 0 167 74q70 53 80 59q22 13 37 13q13 -7 14 -16q0 -31 -79 -105q-116 -110 -242 -159q-67 -26 -121 -26 q-88 0 -153 86q-52 69 -138 266l-47 110q-72 -103 -196 -222q-240 -230 -405 -230q-92 0 -153 57q-23 22 -23 34z" />
<glyph unicode="&#x13d;" d="M-1519 -2420q2 33 61 86q29 26 66 50q557 353 879 737q233 277 277 488q9 42 9 78q0 122 -78 197q-61 60 -147 60q-58 0 -101 -31q-41 -30 -63 -37l-14 -4q-18 0 -18 15q0 27 51 79q81 83 212 128q162 55 276 137q36 26 55 48q50 56 50 132q0 123 -84 210q-90 93 -232 93 q-107 0 -150 -8q-123 -21 -227 -115q-74 -65 -109 -65q-16 0 -16 13q0 39 107 131q101 87 199 136q112 57 258 66l31 2h61q49 0 80 -7q124 -27 197 -134q59 -86 59 -189q0 -136 -141 -284q-88 -93 -227 -180q139 -77 145 -246q1 -7 1 -14q0 -164 -145 -402 q-96 -160 -247 -330q-297 -333 -732 -649q-164 -119 -287 -192q-26 -14 -41 -14t-15 15zM-1101 -114q0 35 57 116l123 169q20 29 30 33q5 2 10 2q18 0 22 -22q0 -14 -38 -94l-53 -120q-45 -94 -68 -116q-17 -17 -37 -17q-34 0 -43 30q-3 9 -3 19z" />
<glyph unicode="&#x13e;" horiz-adv-x="958" d="M620 -198q2 33 61 86q29 26 66 50q557 353 879 737q233 277 277 488q9 42 9 78q0 122 -78 197q-61 60 -147 60q-58 0 -101 -31q-41 -30 -63 -37l-14 -4q-18 0 -18 15q0 27 51 79q81 83 212 128q162 55 276 137q36 26 55 48q50 56 50 132q0 123 -84 210q-90 93 -232 93 q-107 0 -150 -8q-123 -21 -227 -115q-74 -65 -109 -65q-16 0 -16 13q0 39 107 131q101 87 199 136q112 57 258 66l31 2h61q49 0 80 -7q124 -27 197 -134q59 -86 59 -189q0 -136 -141 -284q-88 -93 -227 -180q139 -77 145 -246q1 -7 1 -14q0 -164 -145 -402 q-96 -160 -247 -330q-297 -333 -732 -649q-164 -119 -287 -192q-26 -14 -41 -14t-15 15zM-399 102q0 32 60 88q59 57 96 58q13 0 25 -15q23 -28 56 -44q38 -18 81 -18q79 0 163 75q164 146 204 258q12 34 12 64q0 66 -52 121q-54 57 -131 57q-109 0 -191 -59 q-47 -33 -56 -37q-13 -6 -25 -6q-16 0 -16 13q0 25 53 81q102 108 244 149q66 19 134 19h7q93 -1 154 -68q58 -64 144 -260l95 -213q91 -182 173 -201q13 -3 29 -3q72 0 167 74q70 53 80 59q22 13 37 13q13 -7 14 -16q0 -31 -79 -105q-116 -110 -242 -159q-67 -26 -121 -26 q-88 0 -153 86q-52 69 -138 266l-47 110q-72 -103 -196 -222q-240 -230 -405 -230q-92 0 -153 57q-23 22 -23 34z" />
<glyph unicode="&#x13f;" d="M-1060 21q0 32 24 64q28 37 76 37q64 0 91 -52q11 -22 11 -49q0 -60 -49 -88q-23 -12 -52 -12q-62 0 -89 51q-12 23 -12 49zM-1101 -114q0 35 57 116l123 169q20 29 30 33q5 2 10 2q18 0 22 -22q0 -14 -38 -94l-53 -120q-45 -94 -68 -116q-17 -17 -37 -17q-34 0 -43 30 q-3 9 -3 19z" />
<glyph unicode="&#x140;" horiz-adv-x="1498" d="M1118 436q0 32 24 64q28 37 76 37q64 0 91 -52q11 -22 11 -49q0 -60 -49 -88q-23 -12 -52 -12q-62 0 -89 51q-12 23 -12 49zM-399 102q0 32 60 88q59 57 96 58q13 0 25 -15q23 -28 56 -44q38 -18 81 -18q79 0 163 75q164 146 204 258q12 34 12 64q0 66 -52 121 q-54 57 -131 57q-109 0 -191 -59q-47 -33 -56 -37q-13 -6 -25 -6q-16 0 -16 13q0 25 53 81q102 108 244 149q66 19 134 19h7q93 -1 154 -68q58 -64 144 -260l95 -213q91 -182 173 -201q13 -3 29 -3q72 0 167 74q70 53 80 59q22 13 37 13q13 -7 14 -16q0 -31 -79 -105 q-116 -110 -242 -159q-67 -26 -121 -26q-88 0 -153 86q-52 69 -138 266l-47 110q-72 -103 -196 -222q-240 -230 -405 -230q-92 0 -153 57q-23 22 -23 34z" />
<glyph unicode="&#x143;" d="M117 1914q0 39 88 160l92 125q21 29 32 33q4 2 8 2q20 0 22 -26q0 -7 -18 -48l-73 -162q-45 -95 -67 -116q-17 -17 -38 -17q-33 0 -43 29q-3 9 -3 20zM430 1914q-2 37 82 152l98 133q22 29 32 33q4 2 9 2q21 0 21 -26q0 -14 -75 -177q-51 -111 -71 -136q-22 -30 -49 -30 q-43 0 -47 49zM-589 750q0 17 181 367l28 52q172 328 387 483q127 91 223 91q93 0 154 -68q53 -60 53 -147q0 -122 -104 -232q-85 -89 -181 -114q-25 -6 -46 -6q-80 0 -120 56q-22 31 -22 69q0 70 79 136q47 40 71 40q11 0 11 -10q0 -11 -17 -35q-10 -14 -10 -25 q0 -73 74 -100q24 -8 42 -8q66 0 82 62q6 26 6 63q0 106 -77 162q-47 34 -105 34q-156 0 -343 -323q-51 -88 -172 -334q-45 -92 -68 -131q-27 -46 -81 -78q-22 -13 -34 -13q-11 0 -11 9z" />
<glyph unicode="&#x144;" horiz-adv-x="1253" d="M1252 2599q0 39 88 160l92 125q21 29 32 33q4 2 8 2q20 0 22 -26q0 -7 -18 -48l-73 -162q-45 -95 -67 -116q-17 -17 -38 -17q-33 0 -43 29q-3 9 -3 20zM1565 2599q-2 37 82 152l98 133q22 29 32 33q4 2 9 2q21 0 21 -26q0 -14 -75 -177q-51 -111 -71 -136 q-22 -30 -49 -30q-43 0 -47 49zM-233 598q0 33 69 96q125 114 315 174q120 37 247 43h52q95 -1 292 -25q236 -28 485 -28q88 0 151 31q25 12 38 12q17 0 17 -16q0 -50 -86 -103q-73 -43 -163 -62q-69 -207 -79 -244q-41 -147 -58 -328q-2 -24 -5 -34q-22 -54 -93 -102 q-42 -28 -64 -28q-12 6 -13 16q0 61 27 200q10 47 10 65q-115 -115 -250 -195q-144 -86 -252 -86q-128 0 -213 89q-77 81 -77 198q0 196 209 396q52 50 112 95q-40 6 -127 6q-236 0 -380 -95l-99 -72q-6 -4 -12 -7q-22 -12 -36 -12q-17 0 -17 16zM292 403q0 -120 86 -195 q73 -64 175 -64q126 0 256 122q119 112 173 260q45 131 87 188l-113 4q-146 4 -299 20q-28 3 -47 3q-91 0 -184 -75q-106 -86 -129 -207q-5 -28 -5 -56z" />
<glyph unicode="&#x145;" d="M-2331 -2007q2 33 61 86q29 26 66 50q557 353 879 737q233 277 277 488q9 42 9 78q0 122 -78 197q-61 60 -147 60q-58 0 -101 -31q-41 -30 -63 -37l-14 -4q-18 0 -18 15q0 27 51 79q81 83 212 128q162 55 276 137q36 26 55 48q50 56 50 132q0 123 -84 210q-90 93 -232 93 q-107 0 -150 -8q-123 -21 -227 -115q-74 -65 -109 -65q-16 0 -16 13q0 39 107 131q101 87 199 136q112 57 258 66l31 2h61q49 0 80 -7q124 -27 197 -134q59 -86 59 -189q0 -136 -141 -284q-88 -93 -227 -180q139 -77 145 -246q1 -7 1 -14q0 -164 -145 -402 q-96 -160 -247 -330q-297 -333 -732 -649q-164 -119 -287 -192q-26 -14 -41 -14t-15 15zM-589 750q0 17 181 367l28 52q172 328 387 483q127 91 223 91q93 0 154 -68q53 -60 53 -147q0 -122 -104 -232q-85 -89 -181 -114q-25 -6 -46 -6q-80 0 -120 56q-22 31 -22 69 q0 70 79 136q47 40 71 40q11 0 11 -10q0 -11 -17 -35q-10 -14 -10 -25q0 -73 74 -100q24 -8 42 -8q66 0 82 62q6 26 6 63q0 106 -77 162q-47 34 -105 34q-156 0 -343 -323q-51 -88 -172 -334q-45 -92 -68 -131q-27 -46 -81 -78q-22 -13 -34 -13q-11 0 -11 9z" />
<glyph unicode="&#x146;" horiz-adv-x="1253" d="M-1107 -2764q2 33 61 86q29 26 66 50q557 353 879 737q233 277 277 488q9 42 9 78q0 122 -78 197q-61 60 -147 60q-58 0 -101 -31q-41 -30 -63 -37l-14 -4q-18 0 -18 15q0 27 51 79q81 83 212 128q162 55 276 137q36 26 55 48q50 56 50 132q0 123 -84 210q-90 93 -232 93 q-107 0 -150 -8q-123 -21 -227 -115q-74 -65 -109 -65q-16 0 -16 13q0 39 107 131q101 87 199 136q112 57 258 66l31 2h61q49 0 80 -7q124 -27 197 -134q59 -86 59 -189q0 -136 -141 -284q-88 -93 -227 -180q139 -77 145 -246q1 -7 1 -14q0 -164 -145 -402 q-96 -160 -247 -330q-297 -333 -732 -649q-164 -119 -287 -192q-26 -14 -41 -14t-15 15zM-233 598q0 33 69 96q125 114 315 174q120 37 247 43h52q95 -1 292 -25q236 -28 485 -28q88 0 151 31q25 12 38 12q17 0 17 -16q0 -50 -86 -103q-73 -43 -163 -62q-69 -207 -79 -244 q-41 -147 -58 -328q-2 -24 -5 -34q-22 -54 -93 -102q-42 -28 -64 -28q-12 6 -13 16q0 61 27 200q10 47 10 65q-115 -115 -250 -195q-144 -86 -252 -86q-128 0 -213 89q-77 81 -77 198q0 196 209 396q52 50 112 95q-40 6 -127 6q-236 0 -380 -95l-99 -72q-6 -4 -12 -7 q-22 -12 -36 -12q-17 0 -17 16zM292 403q0 -120 86 -195q73 -64 175 -64q126 0 256 122q119 112 173 260q45 131 87 188l-113 4q-146 4 -299 20q-28 3 -47 3q-91 0 -184 -75q-106 -86 -129 -207q-5 -28 -5 -56z" />
<glyph unicode="&#x147;" d="M460 2697q0 -45 36 -78q26 -22 60 -22q76 0 99 60q8 18 8 41q0 62 -52 89q-23 11 -50 11q-72 0 -95 -70q-6 -18 -6 -31zM565 2332q0 -32 24 -64q28 -37 76 -37q64 0 91 52q11 22 11 49q0 60 -49 88q-23 12 -52 12q-62 0 -89 -51q-12 -23 -12 -49zM669 1966q0 -38 28 -70 q27 -31 71 -31q63 0 91 49q12 23 12 52q0 64 -52 90q-22 11 -48 11q-73 0 -96 -71q-6 -17 -6 -30zM-589 750q0 17 181 367l28 52q172 328 387 483q127 91 223 91q93 0 154 -68q53 -60 53 -147q0 -122 -104 -232q-85 -89 -181 -114q-25 -6 -46 -6q-80 0 -120 56 q-22 31 -22 69q0 70 79 136q47 40 71 40q11 0 11 -10q0 -11 -17 -35q-10 -14 -10 -25q0 -73 74 -100q24 -8 42 -8q66 0 82 62q6 26 6 63q0 106 -77 162q-47 34 -105 34q-156 0 -343 -323q-51 -88 -172 -334q-45 -92 -68 -131q-27 -46 -81 -78q-22 -13 -34 -13q-11 0 -11 9z " />
<glyph unicode="&#x148;" horiz-adv-x="1253" d="M1594 3382q0 -45 36 -78q26 -22 60 -22q76 0 99 60q8 18 8 41q0 62 -52 89q-23 11 -50 11q-72 0 -95 -70q-6 -18 -6 -31zM1699 3017q0 -32 24 -64q28 -37 76 -37q64 0 91 52q11 22 11 49q0 60 -49 88q-23 12 -52 12q-62 0 -89 -51q-12 -23 -12 -49zM1803 2651 q0 -38 28 -70q27 -31 71 -31q63 0 91 49q12 23 12 52q0 64 -52 90q-22 11 -48 11q-73 0 -96 -71q-6 -17 -6 -30zM-233 598q0 33 69 96q125 114 315 174q120 37 247 43h52q95 -1 292 -25q236 -28 485 -28q88 0 151 31q25 12 38 12q17 0 17 -16q0 -50 -86 -103 q-73 -43 -163 -62q-69 -207 -79 -244q-41 -147 -58 -328q-2 -24 -5 -34q-22 -54 -93 -102q-42 -28 -64 -28q-12 6 -13 16q0 61 27 200q10 47 10 65q-115 -115 -250 -195q-144 -86 -252 -86q-128 0 -213 89q-77 81 -77 198q0 196 209 396q52 50 112 95q-40 6 -127 6 q-236 0 -380 -95l-99 -72q-6 -4 -12 -7q-22 -12 -36 -12q-17 0 -17 16zM292 403q0 -120 86 -195q73 -64 175 -64q126 0 256 122q119 112 173 260q45 131 87 188l-113 4q-146 4 -299 20q-28 3 -47 3q-91 0 -184 -75q-106 -86 -129 -207q-5 -28 -5 -56z" />
<glyph unicode="&#x14c;" d="M-925 3q0 38 73 104l123 109q31 30 56 57q27 29 36 33q7 3 14 3q24 0 28 -23q1 -3 1 -7q0 -41 -107 -186q-58 -79 -93 -113q-38 -36 -73 -36q-45 0 -56 45q-2 8 -2 14zM-754 -202q0 54 99 268l30 66q16 36 19 40q12 17 28 17q21 0 28 -21q1 -5 1 -9q0 -5 -8.5 -76 t-24 -165t-28.5 -131q-21 -59 -61 -67q-6 -2 -12 -2h-6q-40 0 -58 42q-7 17 -7 38zM-518 101q0 200 49 200q24 0 33 -35l23 -137q17 -81 53 -157q16 -34 16 -56q0 -45 -35 -60q-11 -4 -23 -4q-59 0 -92 93q-24 68 -24 156zM-1114 -725q0 31 91 170t125 151q21 0 21 -25v-3 q-109 -277 -151 -323q-18 -20 -41 -20q-31 0 -42 31q-3 9 -3 19z" />
<glyph unicode="&#x14d;" horiz-adv-x="1566" d="M1958 2835q0 38 73 104l123 109q31 30 56 57q27 29 36 33q7 3 14 3q24 0 28 -23q1 -3 1 -7q0 -41 -107 -186q-58 -79 -93 -113q-38 -36 -73 -36q-45 0 -56 45q-2 8 -2 14zM2129 2630q0 54 99 268l30 66q16 36 19 40q12 17 28 17q21 0 28 -21q1 -5 1 -9q0 -5 -8.5 -76 t-24 -165t-28.5 -131q-21 -59 -61 -67q-6 -2 -12 -2h-6q-40 0 -58 42q-7 17 -7 38zM2365 2933q0 200 49 200q24 0 33 -35l23 -137q17 -81 53 -157q16 -34 16 -56q0 -45 -35 -60q-11 -4 -23 -4q-59 0 -92 93q-24 68 -24 156zM87 287q0 175 179 317q102 80 204 112q7 2 13 4 q53 14 107 14q120 0 209 -83q71 -65 170 -229l25 -41l11 17q129 216 228 567l128 477q104 362 247 593q73 118 164 220q154 173 213 173q16 0 16 -13q0 -26 -51 -78q-82 -86 -105 -112q-34 -41 -62 -84q-139 -211 -238 -544q-12 -40 -105 -381q-48 -180 -90 -305 q-105 -315 -235 -507q-30 -46 -63 -86q-9 -11 -9 -13l1 -2l32 -43q68 -85 142 -114q49 -20 103 -20q164 0 294 96l86 66q28 19 50 19q14 0 14 -13q0 -41 -90 -119q-128 -111 -292 -170q-84 -29 -161 -37q-15 -1 -43 -1q-167 0 -281 155q-10 14 -17 20q-2 0 -48 -35 q-184 -141 -382 -141q-160 0 -264 94q-100 90 -100 227zM261 415q0 -77 42 -142q67 -100 194 -134q48 -13 98 -13q133 0 236 70q10 6 10 8l-46 76q-107 177 -183 237q-71 56 -160 56h-32q-89 -10 -121 -39q-38 -35 -38 -119z" />
<glyph unicode="&#x152;" horiz-adv-x="696" d="M-76 -242q0 601 303 1131q191 335 488 607q70 64 104 64q18 0 18 -13q0 -27 -55 -82l-111 -110l-58 -63q-298 -341 -429 -798q-86 -298 -86 -605q0 -198 31 -349q11 -55 11 -84q0 -27 -53 -80q-61 -62 -103 -64h-2q-13 0 -17 15q-4 11 -17 103q-24 163 -24 328z" />
<glyph unicode="&#x153;" horiz-adv-x="696" d="M-383 -675q0 35 76 104q344 317 519 777q143 376 143 777q0 217 -39 415q-2 13 -2 18q0 25 51 79q62 65 105 65q14 0 18 -13q0 -2 2 -13q40 -218 40 -419q0 -588 -291 -1110q-194 -349 -501 -629q-69 -64 -105 -64q-16 0 -16 13z" />
<glyph unicode="&#x154;" d="M-98 1878q0 39 88 160l92 125q21 29 32 33q4 2 8 2q20 0 22 -26q0 -7 -18 -48l-73 -162q-45 -95 -67 -116q-17 -17 -38 -17q-33 0 -43 29q-3 9 -3 20zM215 1878q-2 37 82 152l98 133q22 29 32 33q4 2 9 2q21 0 21 -26q0 -14 -75 -177q-51 -111 -71 -136q-22 -30 -49 -30 q-43 0 -47 49zM-690 1127q0 14 26 38l57 52q154 140 395 334q187 150 213 154q7 2 14 2q37 0 46 -37q1 -5 1 -9q0 -25 -37 -58q-12 -10 -153 -120q-325 -249 -477 -346q-51 -32 -63 -32q-15 0 -20 14q-2 4 -2 8z" />
<glyph unicode="&#x155;" horiz-adv-x="1908" d="M2331 2649q0 39 88 160l92 125q21 29 32 33q4 2 8 2q20 0 22 -26q0 -7 -18 -48l-73 -162q-45 -95 -67 -116q-17 -17 -38 -17q-33 0 -43 29q-3 9 -3 20zM2644 2649q-2 37 82 152l98 133q22 29 32 33q4 2 9 2q21 0 21 -26q0 -14 -75 -177q-51 -111 -71 -136 q-22 -30 -49 -30q-43 0 -47 49zM-35 -3q0 22 19 43q50 57 90 140q26 55 54 129q41 109 101 309l136 432q141 421 304 716q160 292 356 506q189 206 251 206q14 0 14 -13q0 -29 -68 -97l-106 -105l-22 -25q-174 -200 -304 -458q-182 -362 -386 -1039q-26 -84 -35 -117 l110 100q192 165 334 165q152 0 228 -138q39 -70 40 -130q0 -3 1 -6l83 80q113 103 214 153q84 41 154 41q113 0 190 -83t77 -211q0 -169 -164 -359q-37 -43 -78 -81l38 1q275 5 394 89l55 42q19 11 39 11h4q13 0 13 -17q-2 -32 -57 -83q-157 -138 -382 -171 q-95 -15 -228 -15q-120 0 -412 21q-202 14 -347 14q-343 0 -673 -60q-16 -3 -22 -3q-15 0 -15 13zM164 138l144 23q121 15 320 26q163 8 184 32q87 99 95 224q1 10 1 19q0 117 -75 195q-68 71 -167 71q-169 0 -356 -324q-15 -25 -108 -200q-20 -38 -31 -55zM882 189h6 q64 0 347 -20q83 -6 117 -6q133 0 198 85q16 20 32 51q45 80 45 168q0 61 -34 130q-66 132 -206 132q-8 0 -11 -1q-134 0 -290 -246q-24 -37 -52 -87q-63 -109 -136 -188z" />
<glyph unicode="&#x156;" d="M-2421 -1643q2 33 61 86q29 26 66 50q557 353 879 737q233 277 277 488q9 42 9 78q0 122 -78 197q-61 60 -147 60q-58 0 -101 -31q-41 -30 -63 -37l-14 -4q-18 0 -18 15q0 27 51 79q81 83 212 128q162 55 276 137q36 26 55 48q50 56 50 132q0 123 -84 210q-90 93 -232 93 q-107 0 -150 -8q-123 -21 -227 -115q-74 -65 -109 -65q-16 0 -16 13q0 39 107 131q101 87 199 136q112 57 258 66l31 2h61q49 0 80 -7q124 -27 197 -134q59 -86 59 -189q0 -136 -141 -284q-88 -93 -227 -180q139 -77 145 -246q1 -7 1 -14q0 -164 -145 -402 q-96 -160 -247 -330q-297 -333 -732 -649q-164 -119 -287 -192q-26 -14 -41 -14t-15 15zM-690 1127q0 14 26 38l57 52q154 140 395 334q187 150 213 154q7 2 14 2q37 0 46 -37q1 -5 1 -9q0 -25 -37 -58q-12 -10 -153 -120q-325 -249 -477 -346q-51 -32 -63 -32q-15 0 -20 14 q-2 4 -2 8z" />
<glyph unicode="&#x157;" horiz-adv-x="1908" d="M-1773 -2764q2 33 61 86q29 26 66 50q557 353 879 737q233 277 277 488q9 42 9 78q0 122 -78 197q-61 60 -147 60q-58 0 -101 -31q-41 -30 -63 -37l-14 -4q-18 0 -18 15q0 27 51 79q81 83 212 128q162 55 276 137q36 26 55 48q50 56 50 132q0 123 -84 210q-90 93 -232 93 q-107 0 -150 -8q-123 -21 -227 -115q-74 -65 -109 -65q-16 0 -16 13q0 39 107 131q101 87 199 136q112 57 258 66l31 2h61q49 0 80 -7q124 -27 197 -134q59 -86 59 -189q0 -136 -141 -284q-88 -93 -227 -180q139 -77 145 -246q1 -7 1 -14q0 -164 -145 -402 q-96 -160 -247 -330q-297 -333 -732 -649q-164 -119 -287 -192q-26 -14 -41 -14t-15 15zM-35 -3q0 22 19 43q50 57 90 140q26 55 54 129q41 109 101 309l136 432q141 421 304 716q160 292 356 506q189 206 251 206q14 0 14 -13q0 -29 -68 -97l-106 -105l-22 -25 q-174 -200 -304 -458q-182 -362 -386 -1039q-26 -84 -35 -117l110 100q192 165 334 165q152 0 228 -138q39 -70 40 -130q0 -3 1 -6l83 80q113 103 214 153q84 41 154 41q113 0 190 -83t77 -211q0 -169 -164 -359q-37 -43 -78 -81l38 1q275 5 394 89l55 42q19 11 39 11h4 q13 0 13 -17q-2 -32 -57 -83q-157 -138 -382 -171q-95 -15 -228 -15q-120 0 -412 21q-202 14 -347 14q-343 0 -673 -60q-16 -3 -22 -3q-15 0 -15 13zM164 138l144 23q121 15 320 26q163 8 184 32q87 99 95 224q1 10 1 19q0 117 -75 195q-68 71 -167 71q-169 0 -356 -324 q-15 -25 -108 -200q-20 -38 -31 -55zM882 189h6q64 0 347 -20q83 -6 117 -6q133 0 198 85q16 20 32 51q45 80 45 168q0 61 -34 130q-66 132 -206 132q-8 0 -11 -1q-134 0 -290 -246q-24 -37 -52 -87q-63 -109 -136 -188z" />
<glyph unicode="&#x158;" d="M245 2661q0 -45 36 -78q26 -22 60 -22q76 0 99 60q8 18 8 41q0 62 -52 89q-23 11 -50 11q-72 0 -95 -70q-6 -18 -6 -31zM350 2296q0 -32 24 -64q28 -37 76 -37q64 0 91 52q11 22 11 49q0 60 -49 88q-23 12 -52 12q-62 0 -89 -51q-12 -23 -12 -49zM454 1930q0 -38 28 -70 q27 -31 71 -31q63 0 91 49q12 23 12 52q0 64 -52 90q-22 11 -48 11q-73 0 -96 -71q-6 -17 -6 -30zM-690 1127q0 14 26 38l57 52q154 140 395 334q187 150 213 154q7 2 14 2q37 0 46 -37q1 -5 1 -9q0 -25 -37 -58q-12 -10 -153 -120q-325 -249 -477 -346q-51 -32 -63 -32 q-15 0 -20 14q-2 4 -2 8z" />
<glyph unicode="&#x159;" horiz-adv-x="1908" d="M2673 3432q0 -45 36 -78q26 -22 60 -22q76 0 99 60q8 18 8 41q0 62 -52 89q-23 11 -50 11q-72 0 -95 -70q-6 -18 -6 -31zM2778 3067q0 -32 24 -64q28 -37 76 -37q64 0 91 52q11 22 11 49q0 60 -49 88q-23 12 -52 12q-62 0 -89 -51q-12 -23 -12 -49zM2882 2701 q0 -38 28 -70q27 -31 71 -31q63 0 91 49q12 23 12 52q0 64 -52 90q-22 11 -48 11q-73 0 -96 -71q-6 -17 -6 -30zM-35 -3q0 22 19 43q50 57 90 140q26 55 54 129q41 109 101 309l136 432q141 421 304 716q160 292 356 506q189 206 251 206q14 0 14 -13q0 -29 -68 -97 l-106 -105l-22 -25q-174 -200 -304 -458q-182 -362 -386 -1039q-26 -84 -35 -117l110 100q192 165 334 165q152 0 228 -138q39 -70 40 -130q0 -3 1 -6l83 80q113 103 214 153q84 41 154 41q113 0 190 -83t77 -211q0 -169 -164 -359q-37 -43 -78 -81l38 1q275 5 394 89l55 42 q19 11 39 11h4q13 0 13 -17q-2 -32 -57 -83q-157 -138 -382 -171q-95 -15 -228 -15q-120 0 -412 21q-202 14 -347 14q-343 0 -673 -60q-16 -3 -22 -3q-15 0 -15 13zM164 138l144 23q121 15 320 26q163 8 184 32q87 99 95 224q1 10 1 19q0 117 -75 195q-68 71 -167 71 q-169 0 -356 -324q-15 -25 -108 -200q-20 -38 -31 -55zM882 189h6q64 0 347 -20q83 -6 117 -6q133 0 198 85q16 20 32 51q45 80 45 168q0 61 -34 130q-66 132 -206 132q-8 0 -11 -1q-134 0 -290 -246q-24 -37 -52 -87q-63 -109 -136 -188z" />
<glyph unicode="&#x15a;" horiz-adv-x="1871" d="M2626 2776q0 39 88 160l92 125q21 29 32 33q4 2 8 2q20 0 22 -26q0 -7 -18 -48l-73 -162q-45 -95 -67 -116q-17 -17 -38 -17q-33 0 -43 29q-3 9 -3 20zM2939 2776q-2 37 82 152l98 133q22 29 32 33q4 2 9 2q21 0 21 -26q0 -14 -75 -177q-51 -111 -71 -136 q-22 -30 -49 -30q-43 0 -47 49zM-258 -2090q0 32 68 97l334 311q458 432 800 903q334 458 496 879l37 94q-90 -90 -200 -152q-84 -47 -152 -57l-33 -1h-1q-118 0 -195 95q-49 60 -72 153l-15 -15q-145 -145 -290 -203q-76 -30 -143 -30q-111 0 -189 89q-84 95 -84 244 q0 145 108 303q102 148 240 221q91 48 177 48q110 0 145 -62q12 -22 12 -52q0 -66 -59 -108q-36 -25 -72 -25q-47 0 -82 36q-29 31 -39 38q-21 13 -50 13q-92 0 -138 -65q-13 -17 -27 -46q-41 -87 -41 -175q0 -151 105 -244q27 -23 53 -36q42 -20 88 -20q93 0 178 70 q95 77 130 212q36 137 153 269q130 145 275 183q41 11 81 11q159 0 160 -115q0 -66 -62 -107q-36 -24 -73 -24q-44 0 -77 36q-30 31 -42 38q-21 13 -49 13q-94 0 -141 -68q-12 -18 -26 -47q-39 -83 -39 -171q0 -121 71 -210q29 -37 67 -59q52 -31 108 -31q115 0 231 144 q80 100 129 231l122 351q117 345 148 428q244 656 571 1041l85 95q164 172 216 172q16 0 16 -14q0 -31 -74 -103q-74 -71 -86 -84q-276 -299 -489 -825l-8 -20q-83 -209 -199 -550l-146 -422q-137 -378 -214 -547q-71 -156 -168 -325q-393 -689 -1145 -1414l-338 -317 q-86 -73 -111 -83q-10 -3 -22 -3h-4q-7 0 -9 12z" />
<glyph unicode="&#x15b;" horiz-adv-x="1880" d="M2355 2599q0 39 88 160l92 125q21 29 32 33q4 2 8 2q20 0 22 -26q0 -7 -18 -48l-73 -162q-45 -95 -67 -116q-17 -17 -38 -17q-33 0 -43 29q-3 9 -3 20zM2668 2599q-2 37 82 152l98 133q22 29 32 33q4 2 9 2q21 0 21 -26q0 -14 -75 -177q-51 -111 -71 -136 q-22 -30 -49 -30q-43 0 -47 49zM-250 -2089q0 35 85 111l314 292q938 893 1258 1685l22 56l48 138q-104 -89 -149 -120q-129 -89 -234 -89q-103 0 -181 78q-66 66 -88 170q-2 0 -26 -25q-41 -41 -102 -87q-181 -136 -319 -136q-99 0 -176 76q-70 68 -91 175q-8 34 -8 75 q0 169 126 335q107 140 247 206q63 30 122 37h16q155 0 170 -89q2 -10 2 -22q0 -85 -83 -122q-30 -13 -52 -13q-45 0 -76 34q-27 31 -36 37q-25 16 -62 16q-84 -1 -123 -54q-74 -105 -76 -232q0 -108 63 -197q72 -103 181 -103q108 0 196 85q79 75 115 201q45 156 176 290 q132 134 271 163q32 7 62 7q128 0 153 -81q5 -15 5 -32q0 -68 -61 -109q-36 -25 -74 -25q-44 0 -78 37q-31 32 -44 39q-20 11 -46 11q-104 0 -162 -105q-43 -78 -43 -181q0 -141 90 -231q22 -22 47 -38q47 -30 107 -30q152 0 295 251l11 19l81 162q74 135 165 206 q49 39 77 39q3 0 5 -1q10 0 10 -14q0 -20 -23 -45q-53 -59 -88 -131q-19 -38 -38 -85q-19 -50 -86 -253q-41 -124 -88 -233q-333 -764 -1115 -1557l-286 -279q-237 -224 -310 -284q-47 -38 -81 -41q-15 0 -15 13z" />
<glyph unicode="&#x15c;" horiz-adv-x="1871" d="M2969 2828q0 45 36 78q26 22 60 22q76 0 99 -60q8 -18 8 -41q0 -62 -52 -89q-23 -11 -50 -11q-72 0 -95 70q-6 18 -6 31zM3074 3193q0 32 24 64q28 37 76 37q64 0 91 -52q11 -22 11 -49q0 -60 -49 -88q-23 -12 -52 -12q-62 0 -89 51q-12 23 -12 49zM3178 3559q0 38 28 70 q27 31 71 31q63 0 91 -49q12 -23 12 -52q0 -64 -52 -90q-22 -11 -48 -11q-73 0 -96 71q-6 17 -6 30zM-258 -2090q0 32 68 97l334 311q458 432 800 903q334 458 496 879l37 94q-90 -90 -200 -152q-84 -47 -152 -57l-33 -1h-1q-118 0 -195 95q-49 60 -72 153l-15 -15 q-145 -145 -290 -203q-76 -30 -143 -30q-111 0 -189 89q-84 95 -84 244q0 145 108 303q102 148 240 221q91 48 177 48q110 0 145 -62q12 -22 12 -52q0 -66 -59 -108q-36 -25 -72 -25q-47 0 -82 36q-29 31 -39 38q-21 13 -50 13q-92 0 -138 -65q-13 -17 -27 -46 q-41 -87 -41 -175q0 -151 105 -244q27 -23 53 -36q42 -20 88 -20q93 0 178 70q95 77 130 212q36 137 153 269q130 145 275 183q41 11 81 11q159 0 160 -115q0 -66 -62 -107q-36 -24 -73 -24q-44 0 -77 36q-30 31 -42 38q-21 13 -49 13q-94 0 -141 -68q-12 -18 -26 -47 q-39 -83 -39 -171q0 -121 71 -210q29 -37 67 -59q52 -31 108 -31q115 0 231 144q80 100 129 231l122 351q117 345 148 428q244 656 571 1041l85 95q164 172 216 172q16 0 16 -14q0 -31 -74 -103q-74 -71 -86 -84q-276 -299 -489 -825l-8 -20q-83 -209 -199 -550l-146 -422 q-137 -378 -214 -547q-71 -156 -168 -325q-393 -689 -1145 -1414l-338 -317q-86 -73 -111 -83q-10 -3 -22 -3h-4q-7 0 -9 12z" />
<glyph unicode="&#x15d;" horiz-adv-x="1880" d="M2697 2651q0 45 36 78q26 22 60 22q76 0 99 -60q8 -18 8 -41q0 -62 -52 -89q-23 -11 -50 -11q-72 0 -95 70q-6 18 -6 31zM2802 3016q0 32 24 64q28 37 76 37q64 0 91 -52q11 -22 11 -49q0 -60 -49 -88q-23 -12 -52 -12q-62 0 -89 51q-12 23 -12 49zM2906 3382q0 38 28 70 q27 31 71 31q63 0 91 -49q12 -23 12 -52q0 -64 -52 -90q-22 -11 -48 -11q-73 0 -96 71q-6 17 -6 30zM-250 -2089q0 35 85 111l314 292q938 893 1258 1685l22 56l48 138q-104 -89 -149 -120q-129 -89 -234 -89q-103 0 -181 78q-66 66 -88 170q-2 0 -26 -25q-41 -41 -102 -87 q-181 -136 -319 -136q-99 0 -176 76q-70 68 -91 175q-8 34 -8 75q0 169 126 335q107 140 247 206q63 30 122 37h16q155 0 170 -89q2 -10 2 -22q0 -85 -83 -122q-30 -13 -52 -13q-45 0 -76 34q-27 31 -36 37q-25 16 -62 16q-84 -1 -123 -54q-74 -105 -76 -232q0 -108 63 -197 q72 -103 181 -103q108 0 196 85q79 75 115 201q45 156 176 290q132 134 271 163q32 7 62 7q128 0 153 -81q5 -15 5 -32q0 -68 -61 -109q-36 -25 -74 -25q-44 0 -78 37q-31 32 -44 39q-20 11 -46 11q-104 0 -162 -105q-43 -78 -43 -181q0 -141 90 -231q22 -22 47 -38 q47 -30 107 -30q152 0 295 251l11 19l81 162q74 135 165 206q49 39 77 39q3 0 5 -1q10 0 10 -14q0 -20 -23 -45q-53 -59 -88 -131q-19 -38 -38 -85q-19 -50 -86 -253q-41 -124 -88 -233q-333 -764 -1115 -1557l-286 -279q-237 -224 -310 -284q-47 -38 -81 -41q-15 0 -15 13z " />
<glyph unicode="&#x15e;" horiz-adv-x="1871" d="M-1302 -2296q0 25 49 72q94 89 222 106q25 3 51 3q49 0 240 -31q102 -17 140 -17q93 0 155 45q32 22 47 23q12 0 12 -9q0 -23 -44 -68q-92 -93 -227 -110q-24 -3 -50 -3q-71 0 -215 27q-108 20 -173 20q-83 0 -146 -43q-35 -24 -51 -25q-10 0 -10 10zM-258 -2090 q0 32 68 97l334 311q458 432 800 903q334 458 496 879l37 94q-90 -90 -200 -152q-84 -47 -152 -57l-33 -1h-1q-118 0 -195 95q-49 60 -72 153l-15 -15q-145 -145 -290 -203q-76 -30 -143 -30q-111 0 -189 89q-84 95 -84 244q0 145 108 303q102 148 240 221q91 48 177 48 q110 0 145 -62q12 -22 12 -52q0 -66 -59 -108q-36 -25 -72 -25q-47 0 -82 36q-29 31 -39 38q-21 13 -50 13q-92 0 -138 -65q-13 -17 -27 -46q-41 -87 -41 -175q0 -151 105 -244q27 -23 53 -36q42 -20 88 -20q93 0 178 70q95 77 130 212q36 137 153 269q130 145 275 183 q41 11 81 11q159 0 160 -115q0 -66 -62 -107q-36 -24 -73 -24q-44 0 -77 36q-30 31 -42 38q-21 13 -49 13q-94 0 -141 -68q-12 -18 -26 -47q-39 -83 -39 -171q0 -121 71 -210q29 -37 67 -59q52 -31 108 -31q115 0 231 144q80 100 129 231l122 351q117 345 148 428 q244 656 571 1041l85 95q164 172 216 172q16 0 16 -14q0 -31 -74 -103q-74 -71 -86 -84q-276 -299 -489 -825l-8 -20q-83 -209 -199 -550l-146 -422q-137 -378 -214 -547q-71 -156 -168 -325q-393 -689 -1145 -1414l-338 -317q-86 -73 -111 -83q-10 -3 -22 -3h-4q-7 0 -9 12 z" />
<glyph unicode="&#x15f;" horiz-adv-x="1880" d="M-1290 -2296q0 25 49 72q94 89 222 106q25 3 51 3q49 0 240 -31q102 -17 140 -17q93 0 155 45q32 22 47 23q12 0 12 -9q0 -23 -44 -68q-92 -93 -227 -110q-24 -3 -50 -3q-71 0 -215 27q-108 20 -173 20q-83 0 -146 -43q-35 -24 -51 -25q-10 0 -10 10zM-250 -2089 q0 35 85 111l314 292q938 893 1258 1685l22 56l48 138q-104 -89 -149 -120q-129 -89 -234 -89q-103 0 -181 78q-66 66 -88 170q-2 0 -26 -25q-41 -41 -102 -87q-181 -136 -319 -136q-99 0 -176 76q-70 68 -91 175q-8 34 -8 75q0 169 126 335q107 140 247 206q63 30 122 37 h16q155 0 170 -89q2 -10 2 -22q0 -85 -83 -122q-30 -13 -52 -13q-45 0 -76 34q-27 31 -36 37q-25 16 -62 16q-84 -1 -123 -54q-74 -105 -76 -232q0 -108 63 -197q72 -103 181 -103q108 0 196 85q79 75 115 201q45 156 176 290q132 134 271 163q32 7 62 7q128 0 153 -81 q5 -15 5 -32q0 -68 -61 -109q-36 -25 -74 -25q-44 0 -78 37q-31 32 -44 39q-20 11 -46 11q-104 0 -162 -105q-43 -78 -43 -181q0 -141 90 -231q22 -22 47 -38q47 -30 107 -30q152 0 295 251l11 19l81 162q74 135 165 206q49 39 77 39q3 0 5 -1q10 0 10 -14q0 -20 -23 -45 q-53 -59 -88 -131q-19 -38 -38 -85q-19 -50 -86 -253q-41 -124 -88 -233q-333 -764 -1115 -1557l-286 -279q-237 -224 -310 -284q-47 -38 -81 -41q-15 0 -15 13z" />
<glyph unicode="&#x160;" horiz-adv-x="1871" d="M2969 3559q0 -45 36 -78q26 -22 60 -22q76 0 99 60q8 18 8 41q0 62 -52 89q-23 11 -50 11q-72 0 -95 -70q-6 -18 -6 -31zM3074 3194q0 -32 24 -64q28 -37 76 -37q64 0 91 52q11 22 11 49q0 60 -49 88q-23 12 -52 12q-62 0 -89 -51q-12 -23 -12 -49zM3178 2828 q0 -38 28 -70q27 -31 71 -31q63 0 91 49q12 23 12 52q0 64 -52 90q-22 11 -48 11q-73 0 -96 -71q-6 -17 -6 -30zM-258 -2090q0 32 68 97l334 311q458 432 800 903q334 458 496 879l37 94q-90 -90 -200 -152q-84 -47 -152 -57l-33 -1h-1q-118 0 -195 95q-49 60 -72 153 l-15 -15q-145 -145 -290 -203q-76 -30 -143 -30q-111 0 -189 89q-84 95 -84 244q0 145 108 303q102 148 240 221q91 48 177 48q110 0 145 -62q12 -22 12 -52q0 -66 -59 -108q-36 -25 -72 -25q-47 0 -82 36q-29 31 -39 38q-21 13 -50 13q-92 0 -138 -65q-13 -17 -27 -46 q-41 -87 -41 -175q0 -151 105 -244q27 -23 53 -36q42 -20 88 -20q93 0 178 70q95 77 130 212q36 137 153 269q130 145 275 183q41 11 81 11q159 0 160 -115q0 -66 -62 -107q-36 -24 -73 -24q-44 0 -77 36q-30 31 -42 38q-21 13 -49 13q-94 0 -141 -68q-12 -18 -26 -47 q-39 -83 -39 -171q0 -121 71 -210q29 -37 67 -59q52 -31 108 -31q115 0 231 144q80 100 129 231l122 351q117 345 148 428q244 656 571 1041l85 95q164 172 216 172q16 0 16 -14q0 -31 -74 -103q-74 -71 -86 -84q-276 -299 -489 -825l-8 -20q-83 -209 -199 -550l-146 -422 q-137 -378 -214 -547q-71 -156 -168 -325q-393 -689 -1145 -1414l-338 -317q-86 -73 -111 -83q-10 -3 -22 -3h-4q-7 0 -9 12z" />
<glyph unicode="&#x161;" horiz-adv-x="1880" d="M2697 3382q0 -45 36 -78q26 -22 60 -22q76 0 99 60q8 18 8 41q0 62 -52 89q-23 11 -50 11q-72 0 -95 -70q-6 -18 -6 -31zM2802 3017q0 -32 24 -64q28 -37 76 -37q64 0 91 52q11 22 11 49q0 60 -49 88q-23 12 -52 12q-62 0 -89 -51q-12 -23 -12 -49zM2906 2651 q0 -38 28 -70q27 -31 71 -31q63 0 91 49q12 23 12 52q0 64 -52 90q-22 11 -48 11q-73 0 -96 -71q-6 -17 -6 -30zM-250 -2089q0 35 85 111l314 292q938 893 1258 1685l22 56l48 138q-104 -89 -149 -120q-129 -89 -234 -89q-103 0 -181 78q-66 66 -88 170q-2 0 -26 -25 q-41 -41 -102 -87q-181 -136 -319 -136q-99 0 -176 76q-70 68 -91 175q-8 34 -8 75q0 169 126 335q107 140 247 206q63 30 122 37h16q155 0 170 -89q2 -10 2 -22q0 -85 -83 -122q-30 -13 -52 -13q-45 0 -76 34q-27 31 -36 37q-25 16 -62 16q-84 -1 -123 -54 q-74 -105 -76 -232q0 -108 63 -197q72 -103 181 -103q108 0 196 85q79 75 115 201q45 156 176 290q132 134 271 163q32 7 62 7q128 0 153 -81q5 -15 5 -32q0 -68 -61 -109q-36 -25 -74 -25q-44 0 -78 37q-31 32 -44 39q-20 11 -46 11q-104 0 -162 -105q-43 -78 -43 -181 q0 -141 90 -231q22 -22 47 -38q47 -30 107 -30q152 0 295 251l11 19l81 162q74 135 165 206q49 39 77 39q3 0 5 -1q10 0 10 -14q0 -20 -23 -45q-53 -59 -88 -131q-19 -38 -38 -85q-19 -50 -86 -253q-41 -124 -88 -233q-333 -764 -1115 -1557l-286 -279q-237 -224 -310 -284 q-47 -38 -81 -41q-15 0 -15 13z" />
<glyph unicode="&#x162;" d="M-1443 1082q0 25 49 72q94 89 222 106q25 3 51 3q49 0 240 -31q102 -17 140 -17q93 0 155 45q32 22 47 23q12 0 12 -9q0 -23 -44 -68q-92 -93 -227 -110q-24 -3 -50 -3q-71 0 -215 27q-108 20 -173 20q-83 0 -146 -43q-35 -24 -51 -25q-10 0 -10 10zM-409 1303 q38 109 80 215q42 100 65 121q15 14 34 14q33 0 43 -32q3 -9 3 -19q0 -28 -47 -106l-20 -34l-69 -106l-38 -60q-15 -20 -30 -20q-19 5 -21 27z" />
<glyph unicode="&#x163;" horiz-adv-x="1910" d="M-1076 -210q0 25 49 72q94 89 222 106q25 3 51 3q49 0 240 -31q102 -17 140 -17q93 0 155 45q32 22 47 23q12 0 12 -9q0 -23 -44 -68q-92 -93 -227 -110q-24 -3 -50 -3q-71 0 -215 27q-108 20 -173 20q-83 0 -146 -43q-35 -24 -51 -25q-10 0 -10 10zM-174 675q0 30 55 86 q103 101 254 134q39 8 79 11h29q87 0 125 -81q21 -44 21 -102q0 -34 -13 -96q1 0 26 23q242 239 419 239q150 0 226 -138q39 -70 40 -130q0 -3 1 -6q13 10 94 86q138 130 248 168q57 19 113 19q107 0 184 -80q80 -84 80 -210q0 -183 -183 -383q-29 -31 -60 -60l36 1 q278 6 393 90l54 41q18 11 38 11h4q13 0 13 -17q-2 -38 -72 -98q-124 -106 -317 -147q-47 -10 -96 -15q-67 -8 -182 -8q-122 0 -412 20q-200 14 -348 14q-339 0 -671 -60q-19 -3 -25 -3q-15 0 -15 13q0 23 41 70q24 26 32 38q85 126 145 326q33 107 33 159q0 99 -61 139 q-26 18 -60 18q-109 0 -184 -52q-41 -28 -53 -31q-7 -2 -15 -2q-16 0 -16 13zM164 138q57 19 325 37q265 18 323 37q102 113 102 250q0 62 -34 132q-66 135 -205 135q-146 0 -306 -242q-41 -62 -147 -251q-37 -66 -58 -98zM890 189h1q73 0 352 -20q79 -6 112 -6 q126 0 185 68q84 95 93 213v22q0 125 -89 204q-53 46 -117 57q-14 1 -35 1q-112 0 -217 -132q-38 -47 -132 -197q-84 -134 -141 -195q-12 -13 -12 -15z" />
<glyph unicode="&#x164;" d="M0 2607q0 -45 36 -78q26 -22 60 -22q76 0 99 60q8 18 8 41q0 62 -52 89q-23 11 -50 11q-72 0 -95 -70q-6 -18 -6 -31zM105 2242q0 -32 24 -64q28 -37 76 -37q64 0 91 52q11 22 11 49q0 60 -49 88q-23 12 -52 12q-62 0 -89 -51q-12 -23 -12 -49zM209 1876q0 -38 28 -70 q27 -31 71 -31q63 0 91 49q12 23 12 52q0 64 -52 90q-22 11 -48 11q-73 0 -96 -71q-6 -17 -6 -30zM-409 1303q38 109 80 215q42 100 65 121q15 14 34 14q33 0 43 -32q3 -9 3 -19q0 -28 -47 -106l-20 -34l-69 -106l-38 -60q-15 -20 -30 -20q-19 5 -21 27z" />
<glyph unicode="&#x165;" horiz-adv-x="1910" d="M598 -198q2 33 61 86q29 26 66 50q557 353 879 737q233 277 277 488q9 42 9 78q0 122 -78 197q-61 60 -147 60q-58 0 -101 -31q-41 -30 -63 -37l-14 -4q-18 0 -18 15q0 27 51 79q81 83 212 128q162 55 276 137q36 26 55 48q50 56 50 132q0 123 -84 210q-90 93 -232 93 q-107 0 -150 -8q-123 -21 -227 -115q-74 -65 -109 -65q-16 0 -16 13q0 39 107 131q101 87 199 136q112 57 258 66l31 2h61q49 0 80 -7q124 -27 197 -134q59 -86 59 -189q0 -136 -141 -284q-88 -93 -227 -180q139 -77 145 -246q1 -7 1 -14q0 -164 -145 -402 q-96 -160 -247 -330q-297 -333 -732 -649q-164 -119 -287 -192q-26 -14 -41 -14t-15 15zM-174 675q0 30 55 86q103 101 254 134q39 8 79 11h29q87 0 125 -81q21 -44 21 -102q0 -34 -13 -96q1 0 26 23q242 239 419 239q150 0 226 -138q39 -70 40 -130q0 -3 1 -6q13 10 94 86 q138 130 248 168q57 19 113 19q107 0 184 -80q80 -84 80 -210q0 -183 -183 -383q-29 -31 -60 -60l36 1q278 6 393 90l54 41q18 11 38 11h4q13 0 13 -17q-2 -38 -72 -98q-124 -106 -317 -147q-47 -10 -96 -15q-67 -8 -182 -8q-122 0 -412 20q-200 14 -348 14q-339 0 -671 -60 q-19 -3 -25 -3q-15 0 -15 13q0 23 41 70q24 26 32 38q85 126 145 326q33 107 33 159q0 99 -61 139q-26 18 -60 18q-109 0 -184 -52q-41 -28 -53 -31q-7 -2 -15 -2q-16 0 -16 13zM164 138q57 19 325 37q265 18 323 37q102 113 102 250q0 62 -34 132q-66 135 -205 135 q-146 0 -306 -242q-41 -62 -147 -251q-37 -66 -58 -98zM890 189h1q73 0 352 -20q79 -6 112 -6q126 0 185 68q84 95 93 213v22q0 125 -89 204q-53 46 -117 57q-14 1 -35 1q-112 0 -217 -132q-38 -47 -132 -197q-84 -134 -141 -195q-12 -13 -12 -15z" />
<glyph unicode="&#x168;" d="M-88 2232q0 121 124 215q75 57 138 69l28 3q102 0 157 -75q35 -48 35 -110q0 -99 -94 -189q-82 -79 -174 -94q-16 -2 -31 -2q-52 0 -104 32q-79 50 -79 151zM46 2334q0 -47 33 -95q45 -68 129 -68q37 0 45 19q7 13 7 43q0 45 -30 92q-46 71 -135 71q-11 0 -16 -1 q-22 0 -26 -13q-1 -4 -2 -10q-5 -19 -5 -38zM-1111 751q0 25 43 66q18 17 37 28l597 347q213 128 303 217q110 110 110 214q0 83 -65 137q-53 44 -128 44q-65 0 -94 -23q-7 -5 -10 -11q-15 -30 -15 -66q0 -79 68 -107q20 -9 35 -9q5 0 10 1q4 0 31 16q17 9 29 9q11 0 11 -9 q0 -31 -57 -79q-72 -60 -134 -60q-73 0 -109 64q-18 33 -18 72q0 94 93 191q91 96 203 125q35 9 67 9h2q106 0 169 -75q46 -56 46 -129q0 -216 -388 -496q-112 -80 -265 -169l-536 -310q-15 -7 -24 -7q-11 0 -11 10z" />
<glyph unicode="&#x169;" horiz-adv-x="1009" d="M1861 2733q0 121 124 215q75 57 138 69l28 3q102 0 157 -75q35 -48 35 -110q0 -99 -94 -189q-82 -79 -174 -94q-16 -2 -31 -2q-52 0 -104 32q-79 50 -79 151zM1995 2835q0 -47 33 -95q45 -68 129 -68q37 0 45 19q7 13 7 43q0 45 -30 92q-46 71 -135 71q-11 0 -16 -1 q-22 0 -26 -13q-1 -4 -2 -10q-5 -19 -5 -38zM-991 -1806q0 30 60 88l234 215q231 220 484 507q133 153 151 181q0 3 -16 16q-60 45 -60 162q0 174 218 474l171 227q46 67 66 100l-7 21q-16 50 -70 258q-46 176 -89 231q-6 8 -13 15q-39 39 -83 39h-9q-65 0 -135 -49 q-45 -32 -62 -34q-3 -1 -7 -1q-16 0 -16 13q0 42 80 109q103 86 216 113q36 9 68 9q99 0 159 -107q10 -18 20 -41q54 54 153 105q117 61 211 61q149 0 179 -99q9 -30 9 -73q0 -210 -312 -740q-477 -809 -1311 -1596l-139 -131q-97 -86 -137 -86q-13 0 -13 13zM35 -506 q0 -80 44 -132q43 43 253 364q81 123 116 183l15 25q-66 60 -104 136q-225 -300 -279 -406q-42 -82 -45 -170zM394 669q80 -331 122 -425q25 -55 63 -103q50 76 112 242q56 151 56 221q0 121 -115 139q-24 3 -53 3h-2q-89 0 -183 -77z" />
<glyph unicode="&#x16a;" d="M-130 2334q0 38 73 104l123 109q31 30 56 57q27 29 36 33q7 3 14 3q24 0 28 -23q1 -3 1 -7q0 -41 -107 -186q-58 -79 -93 -113q-38 -36 -73 -36q-45 0 -56 45q-2 8 -2 14zM41 2129q0 54 99 268l30 66q16 36 19 40q12 17 28 17q21 0 28 -21q1 -5 1 -9q0 -5 -8.5 -76 t-24 -165t-28.5 -131q-21 -59 -61 -67q-6 -2 -12 -2h-6q-40 0 -58 42q-7 17 -7 38zM277 2432q0 200 49 200q24 0 33 -35l23 -137q17 -81 53 -157q16 -34 16 -56q0 -45 -35 -60q-11 -4 -23 -4q-59 0 -92 93q-24 68 -24 156zM-1111 751q0 25 43 66q18 17 37 28l597 347 q213 128 303 217q110 110 110 214q0 83 -65 137q-53 44 -128 44q-65 0 -94 -23q-7 -5 -10 -11q-15 -30 -15 -66q0 -79 68 -107q20 -9 35 -9q5 0 10 1q4 0 31 16q17 9 29 9q11 0 11 -9q0 -31 -57 -79q-72 -60 -134 -60q-73 0 -109 64q-18 33 -18 72q0 94 93 191 q91 96 203 125q35 9 67 9h2q106 0 169 -75q46 -56 46 -129q0 -216 -388 -496q-112 -80 -265 -169l-536 -310q-15 -7 -24 -7q-11 0 -11 10z" />
<glyph unicode="&#x16b;" horiz-adv-x="1009" d="M1819 2835q0 38 73 104l123 109q31 30 56 57q27 29 36 33q7 3 14 3q24 0 28 -23q1 -3 1 -7q0 -41 -107 -186q-58 -79 -93 -113q-38 -36 -73 -36q-45 0 -56 45q-2 8 -2 14zM1990 2630q0 54 99 268l30 66q16 36 19 40q12 17 28 17q21 0 28 -21q1 -5 1 -9q0 -5 -8.5 -76 t-24 -165t-28.5 -131q-21 -59 -61 -67q-6 -2 -12 -2h-6q-40 0 -58 42q-7 17 -7 38zM2226 2933q0 200 49 200q24 0 33 -35l23 -137q17 -81 53 -157q16 -34 16 -56q0 -45 -35 -60q-11 -4 -23 -4q-59 0 -92 93q-24 68 -24 156zM-991 -1806q0 30 60 88l234 215q231 220 484 507 q133 153 151 181q0 3 -16 16q-60 45 -60 162q0 174 218 474l171 227q46 67 66 100l-7 21q-16 50 -70 258q-46 176 -89 231q-6 8 -13 15q-39 39 -83 39h-9q-65 0 -135 -49q-45 -32 -62 -34q-3 -1 -7 -1q-16 0 -16 13q0 42 80 109q103 86 216 113q36 9 68 9q99 0 159 -107 q10 -18 20 -41q54 54 153 105q117 61 211 61q149 0 179 -99q9 -30 9 -73q0 -210 -312 -740q-477 -809 -1311 -1596l-139 -131q-97 -86 -137 -86q-13 0 -13 13zM35 -506q0 -80 44 -132q43 43 253 364q81 123 116 183l15 25q-66 60 -104 136q-225 -300 -279 -406 q-42 -82 -45 -170zM394 669q80 -331 122 -425q25 -55 63 -103q50 76 112 242q56 151 56 221q0 121 -115 139q-24 3 -53 3h-2q-89 0 -183 -77z" />
<glyph unicode="&#x16e;" d="M-394 2059q0 26 51 74q95 88 225 104q23 2 47 2q71 0 212 -26q107 -21 172 -21q93 0 148 43q37 23 48 25h4q10 0 10 -9q0 -23 -47 -69q-94 -91 -219 -109q-25 -3 -50 -3q-74 0 -223 27q-107 20 -170 20q-87 0 -148 -44q-32 -23 -48 -24q-12 0 -12 10zM-1111 751 q0 25 43 66q18 17 37 28l597 347q213 128 303 217q110 110 110 214q0 83 -65 137q-53 44 -128 44q-65 0 -94 -23q-7 -5 -10 -11q-15 -30 -15 -66q0 -79 68 -107q20 -9 35 -9q5 0 10 1q4 0 31 16q17 9 29 9q11 0 11 -9q0 -31 -57 -79q-72 -60 -134 -60q-73 0 -109 64 q-18 33 -18 72q0 94 93 191q91 96 203 125q35 9 67 9h2q106 0 169 -75q46 -56 46 -129q0 -216 -388 -496q-112 -80 -265 -169l-536 -310q-15 -7 -24 -7q-11 0 -11 10z" />
<glyph unicode="&#x16f;" horiz-adv-x="1009" d="M1555 2560q0 26 51 74q95 88 225 104q23 2 47 2q71 0 212 -26q107 -21 172 -21q93 0 148 43q37 23 48 25h4q10 0 10 -9q0 -23 -47 -69q-94 -91 -219 -109q-25 -3 -50 -3q-74 0 -223 27q-107 20 -170 20q-87 0 -148 -44q-32 -23 -48 -24q-12 0 -12 10zM-991 -1806 q0 30 60 88l234 215q231 220 484 507q133 153 151 181q0 3 -16 16q-60 45 -60 162q0 174 218 474l171 227q46 67 66 100l-7 21q-16 50 -70 258q-46 176 -89 231q-6 8 -13 15q-39 39 -83 39h-9q-65 0 -135 -49q-45 -32 -62 -34q-3 -1 -7 -1q-16 0 -16 13q0 42 80 109 q103 86 216 113q36 9 68 9q99 0 159 -107q10 -18 20 -41q54 54 153 105q117 61 211 61q149 0 179 -99q9 -30 9 -73q0 -210 -312 -740q-477 -809 -1311 -1596l-139 -131q-97 -86 -137 -86q-13 0 -13 13zM35 -506q0 -80 44 -132q43 43 253 364q81 123 116 183l15 25 q-66 60 -104 136q-225 -300 -279 -406q-42 -82 -45 -170zM394 669q80 -331 122 -425q25 -55 63 -103q50 76 112 242q56 151 56 221q0 121 -115 139q-24 3 -53 3h-2q-89 0 -183 -77z" />
<glyph unicode="&#x174;" horiz-adv-x="1921" d="M1508 2702q0 45 36 78q26 22 60 22q76 0 99 -60q8 -18 8 -41q0 -62 -52 -89q-23 -11 -50 -11q-72 0 -95 70q-6 18 -6 31zM1613 3067q0 32 24 64q28 37 76 37q64 0 91 -52q11 -22 11 -49q0 -60 -49 -88q-23 -12 -52 -12q-62 0 -89 51q-12 23 -12 49zM1717 3433q0 38 28 70 q27 31 71 31q63 0 91 -49q12 -23 12 -52q0 -64 -52 -90q-22 -11 -48 -11q-73 0 -96 71q-6 17 -6 30zM-1657 -2241q0 37 84 110l54 50q101 90 282 275l170 182q642 709 1024 1536l45 99l110 278q84 225 187 528l76 222q252 729 536 1100q112 147 268 286q60 54 99 54 q11 -2 11 -14q0 -28 -73 -100q-78 -77 -91 -91q-230 -251 -419 -699l-64 -160q-52 -134 -204 -581l-73 -208q1 0 10 9q153 150 270 209q90 44 168 44q123 0 201 -101q56 -73 63 -161q1 -11 2 -11l55 57l68 59q182 150 314 157h17q111 0 187 -81q76 -82 76 -207 q0 -152 -116 -305q-49 -63 -125 -139h14h14q293 0 418 90q8 6 16 13q45 39 76 39h4q13 0 13 -14q0 -32 -58 -88q-115 -109 -306 -155q-57 -14 -118 -20q-75 -8 -169 -8q-147 0 -417 20q-182 13 -327 13h-35q-303 0 -558 -44q-3 -1 -26 -50q-51 -111 -137 -271 q-227 -423 -526 -816l-152 -198l-114 -137l-233 -261l-44 -46q-90 -100 -339 -333l-111 -102q-50 -42 -82 -42q-15 0 -15 13zM180 135q71 21 357 43q206 15 246 28q19 6 25 13q87 99 95 224q1 10 1 19q0 164 -130 235q-58 32 -107 32q-81 0 -169 -75l-41 -37 q-122 -117 -204 -301q-14 -31 -27 -64l-43 -108q-3 -7 -3 -8v-1zM881 191q14 -3 34 -2h1q109 -2 327 -19q43 -4 66 -4q10 -1 30 -1q122 0 179 53q6 5 11 11q85 96 93 215v20q0 165 -130 235q-56 30 -105 30q-10 0 -15 -1q-105 0 -209 -133q-36 -46 -133 -200 q-84 -134 -141 -195q-8 -8 -8 -9z" />
<glyph unicode="&#x175;" horiz-adv-x="1921" d="M1573 2651q0 45 36 78q26 22 60 22q76 0 99 -60q8 -18 8 -41q0 -62 -52 -89q-23 -11 -50 -11q-72 0 -95 70q-6 18 -6 31zM1678 3016q0 32 24 64q28 37 76 37q64 0 91 -52q11 -22 11 -49q0 -60 -49 -88q-23 -12 -52 -12q-62 0 -89 51q-12 23 -12 49zM1782 3382q0 38 28 70 q27 31 71 31q63 0 91 -49q12 -23 12 -52q0 -64 -52 -90q-22 -11 -48 -11q-73 0 -96 71q-6 17 -6 30zM-1657 -2241q0 28 62 89l186 178l24 23q693 693 1283 1769l113 213q47 78 124 281q81 211 81 283q0 74 -41 118q-32 33 -82 33q-109 0 -184 -51q-40 -28 -51 -31 q-8 -2 -16 -2q-16 0 -16 13q0 29 54 84q100 102 246 135q42 10 86 12q10 1 19 1q62 0 92 -24q25 -18 44 -55q23 -44 23 -101q0 -42 -16 -102v-1q2 0 55 51q222 213 394 213q156 0 229 -144q32 -62 36 -118q1 -11 2 -11l88 85q206 188 352 188h14q109 0 186 -82 q78 -84 78 -214q0 -105 -75 -233q-51 -87 -132 -168l-35 -35h9h12q294 0 419 94l11 9q45 39 76 39h4q13 0 13 -14q0 -32 -58 -88q-115 -109 -306 -155q-57 -14 -118 -20q-75 -8 -169 -8q-147 0 -417 20q-182 13 -327 13h-124q-229 -7 -445 -41l-36 -5l-11 -20 q-339 -645 -772 -1219q-216 -287 -438 -529l-94 -101q-70 -77 -257 -253q-75 -71 -102 -93q-49 -40 -78 -40q-15 0 -15 14zM182 136h1q4 0 91 14q140 24 369 36q140 8 169 28q6 3 10 8q89 113 93 240q0 166 -131 236q-57 31 -107 31q-151 0 -310 -235q-71 -105 -129 -237 l-49 -106zM890 190l29 -1q56 -1 337 -20q70 -5 102 -5q120 0 183 65q36 38 63 102q30 68 30 135q0 114 -72 190q-68 72 -169 72q-134 0 -273 -205q-36 -53 -93 -152q-48 -85 -121 -163z" />
<glyph unicode="&#x176;" d="M255 2053q0 45 36 78q26 22 60 22q76 0 99 -60q8 -18 8 -41q0 -62 -52 -89q-23 -11 -50 -11q-72 0 -95 70q-6 18 -6 31zM360 2418q0 32 24 64q28 37 76 37q64 0 91 -52q11 -22 11 -49q0 -60 -49 -88q-23 -12 -52 -12q-62 0 -89 51q-12 23 -12 49zM464 2784q0 38 28 70 q27 31 71 31q63 0 91 -49q12 -23 12 -52q0 -64 -52 -90q-22 -11 -48 -11q-73 0 -96 71q-6 17 -6 30zM-1111 750q0 15 13 31q393 489 558 669q227 248 384 328q80 41 158 51l23 1q144 0 195 -114q19 -44 19 -94q0 -114 -100 -224q-87 -96 -190 -125q-31 -9 -59 -9 q-81 0 -121 60q-20 31 -20 69q0 77 82 150q50 44 77 45q11 0 11 -9q0 -14 -18 -37q-19 -22 -19 -48q0 -36 29 -69q33 -38 91 -38h3q63 0 79 40q21 43 21 93q0 94 -70 149q-48 39 -113 39q-171 0 -419 -289l-304 -366l-155 -192q-103 -121 -145 -121q-10 0 -10 10z" />
<glyph unicode="&#x177;" horiz-adv-x="1261" d="M1571 2651q0 45 36 78q26 22 60 22q76 0 99 -60q8 -18 8 -41q0 -62 -52 -89q-23 -11 -50 -11q-72 0 -95 70q-6 18 -6 31zM1676 3016q0 32 24 64q28 37 76 37q64 0 91 -52q11 -22 11 -49q0 -60 -49 -88q-23 -12 -52 -12q-62 0 -89 51q-12 23 -12 49zM1780 3382q0 38 28 70 q27 31 71 31q63 0 91 -49q12 -23 12 -52q0 -64 -52 -90q-22 -11 -48 -11q-73 0 -96 71q-6 17 -6 30zM-174 675q0 30 55 86q103 101 254 134q39 8 79 11h29q87 0 125 -81q21 -44 21 -102q0 -46 -16 -106q-4 -13 -4 -21l23 23q156 153 308 224q97 46 177 46q180 0 258 -146 q36 -70 36 -133q0 -107 -73 -235q-64 -112 -172 -203q-13 -10 -13 -12q0 -3 78 -3q226 0 342 82l62 47q21 12 41 12h4q13 0 13 -17q-2 -32 -64 -90q-121 -110 -308 -154q-98 -24 -204 -24q-66 0 -291 23q-71 6 -135 9q-24 1 -55 1q-196 0 -381 -54q-27 -8 -36 -8 q-15 0 -15 13q0 23 38 66q26 28 35 42q85 126 145 326q33 107 33 159q0 99 -61 139q-26 18 -60 18q-109 0 -184 -52q-41 -28 -53 -31q-7 -2 -15 -2q-16 0 -16 13zM171 148l134 25q103 16 216 16l168 -7q150 0 214 64q84 87 93 201q1 12 1 23q0 113 -83 190q-61 55 -145 67 q-12 2 -34 2q-80 0 -179 -64q-79 -51 -145 -132q-70 -86 -169 -264q-43 -80 -71 -121z" />
<glyph unicode="&#x178;" d="M-809 -837q0 24 39 72l75 88q259 303 375 411q38 35 47 35h4q17 -5 20 -24q-2 -23 -223 -309q-184 -238 -244 -298q-23 -22 -48 -22q-33 0 -43 36q-2 6 -2 11z" />
<glyph unicode="&#x179;" horiz-adv-x="1236" d="M1991 2776q0 39 88 160l92 125q21 29 32 33q4 2 8 2q20 0 22 -26q0 -7 -18 -48l-73 -162q-45 -95 -67 -116q-17 -17 -38 -17q-33 0 -43 29q-3 9 -3 20zM2304 2776q-2 37 82 152l98 133q22 29 32 33q4 2 9 2q21 0 21 -26q0 -14 -75 -177q-51 -111 -71 -136 q-22 -30 -49 -30q-43 0 -47 49zM-893 -2089q0 29 58 86l282 261q36 36 63 60l235 235q118 118 303 335l183 226q329 431 526 873q46 104 86 210q13 32 13 33q-2 0 -19 -16q-244 -219 -429 -230h-17q-122 0 -207 82t-85 206q0 104 78 232q87 140 235 251q0 5 -91 7h-32 q-230 0 -378 -102l-86 -63q-21 -13 -41 -15q-17 0 -17 16q0 31 70 95q124 113 303 171q82 26 165 36q47 6 104 6q87 0 254 -23q139 -19 246 -19q74 0 176 9l17 49q116 342 178 497q311 779 741 1142q49 42 83 44q16 0 16 -14q0 -30 -72 -101q-76 -73 -88 -86 q-276 -299 -492 -836q-55 -136 -266 -738q-187 -535 -266 -718q-319 -730 -1000 -1461l-93 -99q-58 -63 -242 -241l-348 -327q-82 -70 -106 -81q-13 -5 -26 -5h-5q-9 0 -9 13zM274 403q0 -120 90 -196q74 -63 172 -63q78 0 178 62q167 105 246 307l79 225q-115 -15 -244 -17 q-50 0 -169 9q-16 1 -27 1q-135 0 -233 -107q-81 -89 -91 -197q-1 -12 -1 -24z" />
<glyph unicode="&#x17a;" horiz-adv-x="1253" d="M1419 2599q0 39 88 160l92 125q21 29 32 33q4 2 8 2q20 0 22 -26q0 -7 -18 -48l-73 -162q-45 -95 -67 -116q-17 -17 -38 -17q-33 0 -43 29q-3 9 -3 20zM1732 2599q-2 37 82 152l98 133q22 29 32 33q4 2 9 2q21 0 21 -26q0 -14 -75 -177q-51 -111 -71 -136 q-22 -30 -49 -30q-43 0 -47 49zM-877 -2089q0 35 85 111l315 292q322 308 533 553q511 594 751 1198q63 156 63 165l-80 -68q-70 -55 -141 -98q-134 -81 -242 -81q-128 0 -213 88q-79 83 -79 202q0 117 89 253q79 119 215 223l16 13q-34 6 -123 6q-280 0 -446 -140 q-52 -46 -83 -46q-17 0 -17 16q0 33 69 96q125 114 315 174q120 37 247 43h52q95 -1 292 -25q236 -28 485 -28q88 0 151 31q25 12 38 12q17 0 17 -16q0 -50 -85 -103q-69 -44 -149 -60q-13 -3 -18 -11q-1 -2 -31 -79l-73 -198q-97 -265 -156 -397q-335 -755 -1112 -1542 l-279 -272q-234 -220 -310 -284q-48 -38 -81 -41q-15 0 -15 13zM290 403q0 -122 86 -196q73 -63 181 -63q86 0 190 73q90 64 157 163q48 72 93 189q34 92 71 145q-1 1 -79 2q-139 2 -342 23q-19 2 -35 2q-89 0 -181 -71q-110 -85 -135 -207q-6 -30 -6 -60z" />
<glyph unicode="&#x17b;" horiz-adv-x="1236" d="M2073 3071q0 185 153 346q124 129 287 186q82 28 153 28q151 0 238 -110q73 -93 73 -232q0 -187 -155 -350q-83 -86 -191 -144q-129 -68 -261 -68q-139 0 -223 109q-74 95 -74 235zM2247 3202q0 -139 84 -232q76 -84 183 -84q84 0 159 31q40 15 62 37q60 58 67 183 q1 11 1 20q0 146 -87 236q-75 78 -188 78q-73 0 -149 -29q-54 -21 -76 -52q-56 -76 -56 -188zM-893 -2089q0 29 58 86l282 261q36 36 63 60l235 235q118 118 303 335l183 226q329 431 526 873q46 104 86 210q13 32 13 33q-2 0 -19 -16q-244 -219 -429 -230h-17 q-122 0 -207 82t-85 206q0 104 78 232q87 140 235 251q0 5 -91 7h-32q-230 0 -378 -102l-86 -63q-21 -13 -41 -15q-17 0 -17 16q0 31 70 95q124 113 303 171q82 26 165 36q47 6 104 6q87 0 254 -23q139 -19 246 -19q74 0 176 9l17 49q116 342 178 497q311 779 741 1142 q49 42 83 44q16 0 16 -14q0 -30 -72 -101q-76 -73 -88 -86q-276 -299 -492 -836q-55 -136 -266 -738q-187 -535 -266 -718q-319 -730 -1000 -1461l-93 -99q-58 -63 -242 -241l-348 -327q-82 -70 -106 -81q-13 -5 -26 -5h-5q-9 0 -9 13zM274 403q0 -120 90 -196 q74 -63 172 -63q78 0 178 62q167 105 246 307l79 225q-115 -15 -244 -17q-50 0 -169 9q-16 1 -27 1q-135 0 -233 -107q-81 -89 -91 -197q-1 -12 -1 -24z" />
<glyph unicode="&#x17c;" horiz-adv-x="1253" d="M1501 2894q0 185 153 346q124 129 287 186q82 28 153 28q151 0 238 -110q73 -93 73 -232q0 -187 -155 -350q-83 -86 -191 -144q-129 -68 -261 -68q-139 0 -223 109q-74 95 -74 235zM1675 3025q0 -139 84 -232q76 -84 183 -84q84 0 159 31q40 15 62 37q60 58 67 183 q1 11 1 20q0 146 -87 236q-75 78 -188 78q-73 0 -149 -29q-54 -21 -76 -52q-56 -76 -56 -188zM-877 -2089q0 35 85 111l315 292q322 308 533 553q511 594 751 1198q63 156 63 165l-80 -68q-70 -55 -141 -98q-134 -81 -242 -81q-128 0 -213 88q-79 83 -79 202q0 117 89 253 q79 119 215 223l16 13q-34 6 -123 6q-280 0 -446 -140q-52 -46 -83 -46q-17 0 -17 16q0 33 69 96q125 114 315 174q120 37 247 43h52q95 -1 292 -25q236 -28 485 -28q88 0 151 31q25 12 38 12q17 0 17 -16q0 -50 -85 -103q-69 -44 -149 -60q-13 -3 -18 -11q-1 -2 -31 -79 l-73 -198q-97 -265 -156 -397q-335 -755 -1112 -1542l-279 -272q-234 -220 -310 -284q-48 -38 -81 -41q-15 0 -15 13zM290 403q0 -122 86 -196q73 -63 181 -63q86 0 190 73q90 64 157 163q48 72 93 189q34 92 71 145q-1 1 -79 2q-139 2 -342 23q-19 2 -35 2q-89 0 -181 -71 q-110 -85 -135 -207q-6 -30 -6 -60z" />
<glyph unicode="&#x17d;" horiz-adv-x="1236" d="M2334 3559q0 -45 36 -78q26 -22 60 -22q76 0 99 60q8 18 8 41q0 62 -52 89q-23 11 -50 11q-72 0 -95 -70q-6 -18 -6 -31zM2439 3194q0 -32 24 -64q28 -37 76 -37q64 0 91 52q11 22 11 49q0 60 -49 88q-23 12 -52 12q-62 0 -89 -51q-12 -23 -12 -49zM2543 2828 q0 -38 28 -70q27 -31 71 -31q63 0 91 49q12 23 12 52q0 64 -52 90q-22 11 -48 11q-73 0 -96 -71q-6 -17 -6 -30zM-893 -2089q0 29 58 86l282 261q36 36 63 60l235 235q118 118 303 335l183 226q329 431 526 873q46 104 86 210q13 32 13 33q-2 0 -19 -16q-244 -219 -429 -230 h-17q-122 0 -207 82t-85 206q0 104 78 232q87 140 235 251q0 5 -91 7h-32q-230 0 -378 -102l-86 -63q-21 -13 -41 -15q-17 0 -17 16q0 31 70 95q124 113 303 171q82 26 165 36q47 6 104 6q87 0 254 -23q139 -19 246 -19q74 0 176 9l17 49q116 342 178 497q311 779 741 1142 q49 42 83 44q16 0 16 -14q0 -30 -72 -101q-76 -73 -88 -86q-276 -299 -492 -836q-55 -136 -266 -738q-187 -535 -266 -718q-319 -730 -1000 -1461l-93 -99q-58 -63 -242 -241l-348 -327q-82 -70 -106 -81q-13 -5 -26 -5h-5q-9 0 -9 13zM274 403q0 -120 90 -196 q74 -63 172 -63q78 0 178 62q167 105 246 307l79 225q-115 -15 -244 -17q-50 0 -169 9q-16 1 -27 1q-135 0 -233 -107q-81 -89 -91 -197q-1 -12 -1 -24z" />
<glyph unicode="&#x17e;" horiz-adv-x="1253" d="M1762 3382q0 -45 36 -78q26 -22 60 -22q76 0 99 60q8 18 8 41q0 62 -52 89q-23 11 -50 11q-72 0 -95 -70q-6 -18 -6 -31zM1867 3017q0 -32 24 -64q28 -37 76 -37q64 0 91 52q11 22 11 49q0 60 -49 88q-23 12 -52 12q-62 0 -89 -51q-12 -23 -12 -49zM1971 2651 q0 -38 28 -70q27 -31 71 -31q63 0 91 49q12 23 12 52q0 64 -52 90q-22 11 -48 11q-73 0 -96 -71q-6 -17 -6 -30zM-877 -2089q0 35 85 111l315 292q322 308 533 553q511 594 751 1198q63 156 63 165l-80 -68q-70 -55 -141 -98q-134 -81 -242 -81q-128 0 -213 88 q-79 83 -79 202q0 117 89 253q79 119 215 223l16 13q-34 6 -123 6q-280 0 -446 -140q-52 -46 -83 -46q-17 0 -17 16q0 33 69 96q125 114 315 174q120 37 247 43h52q95 -1 292 -25q236 -28 485 -28q88 0 151 31q25 12 38 12q17 0 17 -16q0 -50 -85 -103q-69 -44 -149 -60 q-13 -3 -18 -11q-1 -2 -31 -79l-73 -198q-97 -265 -156 -397q-335 -755 -1112 -1542l-279 -272q-234 -220 -310 -284q-48 -38 -81 -41q-15 0 -15 13zM290 403q0 -122 86 -196q73 -63 181 -63q86 0 190 73q90 64 157 163q48 72 93 189q34 92 71 145q-1 1 -79 2 q-139 2 -342 23q-19 2 -35 2q-89 0 -181 -71q-110 -85 -135 -207q-6 -30 -6 -60z" />
<glyph unicode="&#x17f;" horiz-adv-x="1880" d="M-250 -2089q0 35 85 111l314 292q938 893 1258 1685l22 56l48 138q-104 -89 -149 -120q-129 -89 -234 -89q-103 0 -181 78q-66 66 -88 170q-2 0 -26 -25q-41 -41 -102 -87q-181 -136 -319 -136q-99 0 -176 76q-70 68 -91 175q-8 34 -8 75q0 169 126 335q107 140 247 206 q63 30 122 37h16q155 0 170 -89q2 -10 2 -22q0 -85 -83 -122q-30 -13 -52 -13q-45 0 -76 34q-27 31 -36 37q-25 16 -62 16q-84 -1 -123 -54q-74 -105 -76 -232q0 -108 63 -197q72 -103 181 -103q108 0 196 85q79 75 115 201q45 156 176 290q132 134 271 163q32 7 62 7 q128 0 153 -81q5 -15 5 -32q0 -68 -61 -109q-36 -25 -74 -25q-44 0 -78 37q-31 32 -44 39q-20 11 -46 11q-104 0 -162 -105q-43 -78 -43 -181q0 -141 90 -231q22 -22 47 -38q47 -30 107 -30q152 0 295 251l11 19l81 162q74 135 165 206q49 39 77 39q3 0 5 -1q10 0 10 -14 q0 -20 -23 -45q-53 -59 -88 -131q-19 -38 -38 -85q-19 -50 -86 -253q-41 -124 -88 -233q-333 -764 -1115 -1557l-286 -279q-237 -224 -310 -284q-47 -38 -81 -41q-15 0 -15 13z" />
<glyph unicode="&#x189;" d="M-1579 -616q0 38 76 107l128 113l49 49q27 30 39 35q6 1 11 1q23 0 27 -22q1 -3 1 -7q0 -45 -111 -193q-55 -74 -89 -106q-36 -36 -72 -36q-42 0 -55 37q-4 10 -4 22zM-1408 -821q0 61 121 316q26 56 30 61q11 13 26 13q20 0 27 -19q2 -5 2 -11q0 -19 -20 -160.5 t-34 -188.5q-25 -82 -73 -90q-6 -1 -13 -1q-29 0 -50 26q-16 21 -16 54zM-1171 -518q0 200 50 200q23 0 32 -39l22 -134q18 -82 53 -156q16 -29 16 -57q0 -44 -33 -58q-11 -5 -25 -5q-58 0 -91 93q-24 68 -24 156z" />
<glyph unicode="&#x1a0;" d="M-1778 -3030q2 33 61 86q29 26 66 50q557 353 879 737q233 277 277 488q9 42 9 78q0 122 -78 197q-61 60 -147 60q-58 0 -101 -31q-41 -30 -63 -37l-14 -4q-18 0 -18 15q0 27 51 79q81 83 212 128q162 55 276 137q36 26 55 48q50 56 50 132q0 123 -84 210q-90 93 -232 93 q-107 0 -150 -8q-123 -21 -227 -115q-74 -65 -109 -65q-16 0 -16 13q0 39 107 131q101 87 199 136q112 57 258 66l31 2h61q49 0 80 -7q124 -27 197 -134q59 -86 59 -189q0 -136 -141 -284q-88 -93 -227 -180q139 -77 145 -246q1 -7 1 -14q0 -164 -145 -402 q-96 -160 -247 -330q-297 -333 -732 -649q-164 -119 -287 -192q-26 -14 -41 -14t-15 15zM-1114 -725q0 31 91 170t125 151q21 0 21 -25v-3q-109 -277 -151 -323q-18 -20 -41 -20q-31 0 -42 31q-3 9 -3 19z" />
<glyph unicode="&#x1a1;" horiz-adv-x="1566" d="M1105 -198q2 33 61 86q29 26 66 50q557 353 879 737q233 277 277 488q9 42 9 78q0 122 -78 197q-61 60 -147 60q-58 0 -101 -31q-41 -30 -63 -37l-14 -4q-18 0 -18 15q0 27 51 79q81 83 212 128q162 55 276 137q36 26 55 48q50 56 50 132q0 123 -84 210q-90 93 -232 93 q-107 0 -150 -8q-123 -21 -227 -115q-74 -65 -109 -65q-16 0 -16 13q0 39 107 131q101 87 199 136q112 57 258 66l31 2h61q49 0 80 -7q124 -27 197 -134q59 -86 59 -189q0 -136 -141 -284q-88 -93 -227 -180q139 -77 145 -246q1 -7 1 -14q0 -164 -145 -402 q-96 -160 -247 -330q-297 -333 -732 -649q-164 -119 -287 -192q-26 -14 -41 -14t-15 15zM87 287q0 175 179 317q102 80 204 112q7 2 13 4q53 14 107 14q120 0 209 -83q71 -65 170 -229l25 -41l11 17q129 216 228 567l128 477q104 362 247 593q73 118 164 220 q154 173 213 173q16 0 16 -13q0 -26 -51 -78q-82 -86 -105 -112q-34 -41 -62 -84q-139 -211 -238 -544q-12 -40 -105 -381q-48 -180 -90 -305q-105 -315 -235 -507q-30 -46 -63 -86q-9 -11 -9 -13l1 -2l32 -43q68 -85 142 -114q49 -20 103 -20q164 0 294 96l86 66 q28 19 50 19q14 0 14 -13q0 -41 -90 -119q-128 -111 -292 -170q-84 -29 -161 -37q-15 -1 -43 -1q-167 0 -281 155q-10 14 -17 20q-2 0 -48 -35q-184 -141 -382 -141q-160 0 -264 94q-100 90 -100 227zM261 415q0 -77 42 -142q67 -100 194 -134q48 -13 98 -13q133 0 236 70 q10 6 10 8l-46 76q-107 177 -183 237q-71 56 -160 56h-32q-89 -10 -121 -39q-38 -35 -38 -119z" />
<glyph unicode="&#x1af;" d="M-982 -699q2 33 61 86q29 26 66 50q557 353 879 737q233 277 277 488q9 42 9 78q0 122 -78 197q-61 60 -147 60q-58 0 -101 -31q-41 -30 -63 -37l-14 -4q-18 0 -18 15q0 27 51 79q81 83 212 128q162 55 276 137q36 26 55 48q50 56 50 132q0 123 -84 210q-90 93 -232 93 q-107 0 -150 -8q-123 -21 -227 -115q-74 -65 -109 -65q-16 0 -16 13q0 39 107 131q101 87 199 136q112 57 258 66l31 2h61q49 0 80 -7q124 -27 197 -134q59 -86 59 -189q0 -136 -141 -284q-88 -93 -227 -180q139 -77 145 -246q1 -7 1 -14q0 -164 -145 -402 q-96 -160 -247 -330q-297 -333 -732 -649q-164 -119 -287 -192q-26 -14 -41 -14t-15 15zM-1111 751q0 25 43 66q18 17 37 28l597 347q213 128 303 217q110 110 110 214q0 83 -65 137q-53 44 -128 44q-65 0 -94 -23q-7 -5 -10 -11q-15 -30 -15 -66q0 -79 68 -107q20 -9 35 -9 q5 0 10 1q4 0 31 16q17 9 29 9q11 0 11 -9q0 -31 -57 -79q-72 -60 -134 -60q-73 0 -109 64q-18 33 -18 72q0 94 93 191q91 96 203 125q35 9 67 9h2q106 0 169 -75q46 -56 46 -129q0 -216 -388 -496q-112 -80 -265 -169l-536 -310q-15 -7 -24 -7q-11 0 -11 10z" />
<glyph unicode="&#x1b0;" horiz-adv-x="1009" d="M966 -198q2 33 61 86q29 26 66 50q557 353 879 737q233 277 277 488q9 42 9 78q0 122 -78 197q-61 60 -147 60q-58 0 -101 -31q-41 -30 -63 -37l-14 -4q-18 0 -18 15q0 27 51 79q81 83 212 128q162 55 276 137q36 26 55 48q50 56 50 132q0 123 -84 210q-90 93 -232 93 q-107 0 -150 -8q-123 -21 -227 -115q-74 -65 -109 -65q-16 0 -16 13q0 39 107 131q101 87 199 136q112 57 258 66l31 2h61q49 0 80 -7q124 -27 197 -134q59 -86 59 -189q0 -136 -141 -284q-88 -93 -227 -180q139 -77 145 -246q1 -7 1 -14q0 -164 -145 -402 q-96 -160 -247 -330q-297 -333 -732 -649q-164 -119 -287 -192q-26 -14 -41 -14t-15 15zM-991 -1806q0 30 60 88l234 215q231 220 484 507q133 153 151 181q0 3 -16 16q-60 45 -60 162q0 174 218 474l171 227q46 67 66 100l-7 21q-16 50 -70 258q-46 176 -89 231 q-6 8 -13 15q-39 39 -83 39h-9q-65 0 -135 -49q-45 -32 -62 -34q-3 -1 -7 -1q-16 0 -16 13q0 42 80 109q103 86 216 113q36 9 68 9q99 0 159 -107q10 -18 20 -41q54 54 153 105q117 61 211 61q149 0 179 -99q9 -30 9 -73q0 -210 -312 -740q-477 -809 -1311 -1596l-139 -131 q-97 -86 -137 -86q-13 0 -13 13zM35 -506q0 -80 44 -132q43 43 253 364q81 123 116 183l15 25q-66 60 -104 136q-225 -300 -279 -406q-42 -82 -45 -170zM394 669q80 -331 122 -425q25 -55 63 -103q50 76 112 242q56 151 56 221q0 121 -115 139q-24 3 -53 3h-2 q-89 0 -183 -77z" />
<glyph unicode="&#x1c0;" d="M-1515 -791q0 116 126 246l664 604q11 9 13 11q46 39 75 39q18 0 18 -15q0 -24 -36 -64q-18 -18 -336 -306q-325 -296 -335 -308q-33 -48 -33 -97q0 -64 50 -93q23 -12 49 -12q44 0 111 58q59 51 77 60q20 11 36 11t17 -15q0 -34 -85 -111q-109 -97 -210 -133 q-37 -14 -65 -14q-75 0 -113 59q-23 34 -23 80z" />
<glyph unicode="&#x1c1;" d="M-1515 -791q0 116 126 246l664 604q11 9 13 11q46 39 75 39q18 0 18 -15q0 -24 -36 -64q-18 -18 -336 -306q-325 -296 -335 -308q-33 -48 -33 -97q0 -64 50 -93q23 -12 49 -12q44 0 111 58q59 51 77 60q20 11 36 11t17 -15q0 -34 -85 -111q-109 -97 -210 -133 q-37 -14 -65 -14q-75 0 -113 59q-23 34 -23 80zM-1515 -791q0 116 126 246l664 604q11 9 13 11q46 39 75 39q18 0 18 -15q0 -24 -36 -64q-18 -18 -336 -306q-325 -296 -335 -308q-33 -48 -33 -97q0 -64 50 -93q23 -12 49 -12q44 0 111 58q59 51 77 60q20 11 36 11t17 -15 q0 -34 -85 -111q-109 -97 -210 -133q-37 -14 -65 -14q-75 0 -113 59q-23 34 -23 80z" />
<glyph unicode="&#x1c4;" horiz-adv-x="1236" d="M2334 3559q0 -45 36 -78q26 -22 60 -22q76 0 99 60q8 18 8 41q0 62 -52 89q-23 11 -50 11q-72 0 -95 -70q-6 -18 -6 -31zM2439 3194q0 -32 24 -64q28 -37 76 -37q64 0 91 52q11 22 11 49q0 60 -49 88q-23 12 -52 12q-62 0 -89 -51q-12 -23 -12 -49zM2543 2828 q0 -38 28 -70q27 -31 71 -31q63 0 91 49q12 23 12 52q0 64 -52 90q-22 11 -48 11q-73 0 -96 -71q-6 -17 -6 -30zM-893 -2089q0 29 58 86l282 261q36 36 63 60l235 235q118 118 303 335l183 226q329 431 526 873q46 104 86 210q13 32 13 33q-2 0 -19 -16q-244 -219 -429 -230 h-17q-122 0 -207 82t-85 206q0 104 78 232q87 140 235 251q0 5 -91 7h-32q-230 0 -378 -102l-86 -63q-21 -13 -41 -15q-17 0 -17 16q0 31 70 95q124 113 303 171q82 26 165 36q47 6 104 6q87 0 254 -23q139 -19 246 -19q74 0 176 9l17 49q116 342 178 497q311 779 741 1142 q49 42 83 44q16 0 16 -14q0 -30 -72 -101q-76 -73 -88 -86q-276 -299 -492 -836q-55 -136 -266 -738q-187 -535 -266 -718q-319 -730 -1000 -1461l-93 -99q-58 -63 -242 -241l-348 -327q-82 -70 -106 -81q-13 -5 -26 -5h-5q-9 0 -9 13zM274 403q0 -120 90 -196 q74 -63 172 -63q78 0 178 62q167 105 246 307l79 225q-115 -15 -244 -17q-50 0 -169 9q-16 1 -27 1q-135 0 -233 -107q-81 -89 -91 -197q-1 -12 -1 -24zM-481 1576q0 39 29 57q12 7 28 7h4q76 -2 103 -157q9 -52 9 -92q0 -201 -49 -201q-24 0 -32 34l-21 134q-17 83 -55 161 q-16 34 -16 57zM-276 1338l22 203q31 223 109 232q4 1 7 1q40 0 59 -40q8 -18 8 -41q0 -52 -99 -268l-30 -65q-26 -54 -48 -57q-20 0 -27 21q-2 7 -1 14zM-230 1214q0 40 85 159q89 126 149 164q13 8 22 10q5 1 18 1q40 -2 52 -38q4 -10 4 -22q0 -28 -30 -61 q-25 -28 -95 -89q-47 -41 -128 -123q-30 -31 -50 -32q-22 0 -26 22q-1 4 -1 9z" />
<glyph unicode="&#x1c5;" horiz-adv-x="1253" d="M1762 3382q0 -45 36 -78q26 -22 60 -22q76 0 99 60q8 18 8 41q0 62 -52 89q-23 11 -50 11q-72 0 -95 -70q-6 -18 -6 -31zM1867 3017q0 -32 24 -64q28 -37 76 -37q64 0 91 52q11 22 11 49q0 60 -49 88q-23 12 -52 12q-62 0 -89 -51q-12 -23 -12 -49zM1971 2651 q0 -38 28 -70q27 -31 71 -31q63 0 91 49q12 23 12 52q0 64 -52 90q-22 11 -48 11q-73 0 -96 -71q-6 -17 -6 -30zM-877 -2089q0 35 85 111l315 292q322 308 533 553q511 594 751 1198q63 156 63 165l-80 -68q-70 -55 -141 -98q-134 -81 -242 -81q-128 0 -213 88 q-79 83 -79 202q0 117 89 253q79 119 215 223l16 13q-34 6 -123 6q-280 0 -446 -140q-52 -46 -83 -46q-17 0 -17 16q0 33 69 96q125 114 315 174q120 37 247 43h52q95 -1 292 -25q236 -28 485 -28q88 0 151 31q25 12 38 12q17 0 17 -16q0 -50 -85 -103q-69 -44 -149 -60 q-13 -3 -18 -11q-1 -2 -31 -79l-73 -198q-97 -265 -156 -397q-335 -755 -1112 -1542l-279 -272q-234 -220 -310 -284q-48 -38 -81 -41q-15 0 -15 13zM290 403q0 -122 86 -196q73 -63 181 -63q86 0 190 73q90 64 157 163q48 72 93 189q34 92 71 145q-1 1 -79 2 q-139 2 -342 23q-19 2 -35 2q-89 0 -181 -71q-110 -85 -135 -207q-6 -30 -6 -60zM-481 1576q0 39 29 57q12 7 28 7h4q76 -2 103 -157q9 -52 9 -92q0 -201 -49 -201q-24 0 -32 34l-21 134q-17 83 -55 161q-16 34 -16 57zM-276 1338l22 203q31 223 109 232q4 1 7 1 q40 0 59 -40q8 -18 8 -41q0 -52 -99 -268l-30 -65q-26 -54 -48 -57q-20 0 -27 21q-2 7 -1 14zM-230 1214q0 40 85 159q89 126 149 164q13 8 22 10q5 1 18 1q40 -2 52 -38q4 -10 4 -22q0 -28 -30 -61q-25 -28 -95 -89q-47 -41 -128 -123q-30 -31 -50 -32q-22 0 -26 22 q-1 4 -1 9z" />
<glyph unicode="&#x1c6;" horiz-adv-x="2489" d="M2998 3382q0 -45 36 -78q26 -22 60 -22q76 0 99 60q8 18 8 41q0 62 -52 89q-23 11 -50 11q-72 0 -95 -70q-6 -18 -6 -31zM3103 3017q0 -32 24 -64q28 -37 76 -37q64 0 91 52q11 22 11 49q0 60 -49 88q-23 12 -52 12q-62 0 -89 -51q-12 -23 -12 -49zM3207 2651 q0 -38 28 -70q27 -31 71 -31q63 0 91 49q12 23 12 52q0 64 -52 90q-22 11 -48 11q-73 0 -96 -71q-6 -17 -6 -30zM359 -2089q0 35 85 111l315 292q322 308 533 553q511 594 751 1198q63 156 63 165l-80 -68q-70 -55 -141 -98q-134 -81 -242 -81q-128 0 -213 88 q-79 83 -79 202q0 117 89 253q79 119 215 223l16 13q-34 6 -123 6q-280 0 -446 -140q-52 -46 -83 -46q-17 0 -17 16q0 33 69 96q125 114 315 174q120 37 247 43h52q95 -1 292 -25q236 -28 485 -28q88 0 151 31q25 12 38 12q17 0 17 -16q0 -50 -85 -103q-69 -44 -149 -60 q-13 -3 -18 -11q-1 -2 -31 -79l-73 -198q-97 -265 -156 -397q-335 -755 -1112 -1542l-279 -272q-234 -220 -310 -284q-48 -38 -81 -41q-15 0 -15 13zM1526 403q0 -122 86 -196q73 -63 181 -63q86 0 190 73q90 64 157 163q48 72 93 189q34 92 71 145q-1 1 -79 2 q-139 2 -342 23q-19 2 -35 2q-89 0 -181 -71q-110 -85 -135 -207q-6 -30 -6 -60zM97 312q0 180 140 347q113 134 259 196q79 33 147 33q165 0 165 -110v-3q0 -72 -65 -112q-34 -21 -69 -21q-43 0 -83 41q-32 33 -46 39q-13 6 -27 6h-13q-153 0 -209 -144q-25 -64 -25 -138 q0 -151 113 -243q25 -21 50 -33q55 -26 111 -26q102 0 225 96q121 95 175 213q8 18 14 36l92 350q27 96 57 192q219 701 566 1156q78 101 164 195q204 223 265 223q16 0 16 -14q0 -33 -65 -93q-285 -259 -491 -657q-315 -611 -534 -1703q-13 -67 -94 -123q-45 -31 -67 -31 q-15 0 -15 12q0 26 47 235q8 35 10 42q-2 0 -16 -14q-224 -214 -405 -263q-46 -12 -88 -12q-119 0 -207 86q-97 95 -97 242z" />
<glyph unicode="&#x1c7;" d="M-953 751q0 39 119 120q35 23 294 182l283 180q239 158 317 280q46 73 46 140q0 84 -65 138q-53 44 -127 44q-95 0 -114 -60q-6 -18 -6 -42q0 -81 71 -111q22 -8 38 -8q9 0 37 17q18 11 31 11q11 0 11 -10q0 -18 -41 -62q-75 -78 -152 -78q-73 0 -109 63q-20 35 -20 76 q0 89 87 185q91 101 208 132q37 10 73 10q103 0 165 -72q47 -56 47 -131q0 -213 -368 -497q-100 -77 -222 -155l-566 -354q-17 -8 -26 -8q-11 0 -11 10zM-1101 -114q0 35 57 116l123 169q20 29 30 33q5 2 10 2q18 0 22 -22q0 -14 -38 -94l-53 -120q-45 -94 -68 -116 q-17 -17 -37 -17q-34 0 -43 30q-3 9 -3 19z" />
<glyph unicode="&#x1c8;" horiz-adv-x="1740" d="M-174 657q0 28 59 86q108 104 256 145q42 11 85 16q43 4 91 4q152 0 403 -49q243 -47 348 -56q66 -6 128 -6q214 0 327 84l68 55q23 15 47 15q16 0 16 -14q0 -41 -102 -123q-39 -33 -82 -60q-172 -110 -387 -117h-35q-99 0 -240 21q-20 3 -32 4q-249 -44 -419 -175 q-211 -163 -211 -407q0 -212 146 -363q145 -152 380 -185q57 -8 116 -8q248 0 399 114q66 50 106 119t40 127q0 33 -33 75q-34 44 -39 72q-1 8 -1 17q0 66 58 108q37 25 76 25q52 0 85 -48q29 -42 29 -109q0 -159 -181 -353q-33 -35 -66 -65q-258 -230 -583 -241 q-15 -1 -31 -1q-276 0 -464 147q-160 126 -199 314q-11 53 -11 107q0 157 73 295l15 28q123 215 370 376q62 40 121 70q0 10 -222 35q-115 12 -160 12q-164 0 -248 -61l-44 -33q-17 -10 -36 -10q-16 0 -16 13zM-1101 -114q0 35 57 116l123 169q20 29 30 33q5 2 10 2 q18 0 22 -22q0 -14 -38 -94l-53 -120q-45 -94 -68 -116q-17 -17 -37 -17q-34 0 -43 30q-3 9 -3 19z" />
<glyph unicode="&#x1c9;" horiz-adv-x="2698" d="M784 657q0 28 59 86q108 104 256 145q42 11 85 16q43 4 91 4q152 0 403 -49q243 -47 348 -56q66 -6 128 -6q214 0 327 84l68 55q23 15 47 15q16 0 16 -14q0 -41 -102 -123q-39 -33 -82 -60q-172 -110 -387 -117h-35q-99 0 -240 21q-20 3 -32 4q-249 -44 -419 -175 q-211 -163 -211 -407q0 -212 146 -363q145 -152 380 -185q57 -8 116 -8q248 0 399 114q66 50 106 119t40 127q0 33 -33 75q-34 44 -39 72q-1 8 -1 17q0 66 58 108q37 25 76 25q52 0 85 -48q29 -42 29 -109q0 -159 -181 -353q-33 -35 -66 -65q-258 -230 -583 -241 q-15 -1 -31 -1q-276 0 -464 147q-160 126 -199 314q-11 53 -11 107q0 157 73 295l15 28q123 215 370 376q62 40 121 70q0 10 -222 35q-115 12 -160 12q-164 0 -248 -61l-44 -33q-17 -10 -36 -10q-16 0 -16 13zM-399 102q0 32 60 88q59 57 96 58q13 0 25 -15q23 -28 56 -44 q38 -18 81 -18q79 0 163 75q164 146 204 258q12 34 12 64q0 66 -52 121q-54 57 -131 57q-109 0 -191 -59q-47 -33 -56 -37q-13 -6 -25 -6q-16 0 -16 13q0 25 53 81q102 108 244 149q66 19 134 19h7q93 -1 154 -68q58 -64 144 -260l95 -213q91 -182 173 -201q13 -3 29 -3 q72 0 167 74q70 53 80 59q22 13 37 13q13 -7 14 -16q0 -31 -79 -105q-116 -110 -242 -159q-67 -26 -121 -26q-88 0 -153 86q-52 69 -138 266l-47 110q-72 -103 -196 -222q-240 -230 -405 -230q-92 0 -153 57q-23 22 -23 34z" />
<glyph unicode="&#x1ca;" d="M-953 751q0 39 119 120q35 23 294 182l283 180q239 158 317 280q46 73 46 140q0 84 -65 138q-53 44 -127 44q-95 0 -114 -60q-6 -18 -6 -42q0 -81 71 -111q22 -8 38 -8q9 0 37 17q18 11 31 11q11 0 11 -10q0 -18 -41 -62q-75 -78 -152 -78q-73 0 -109 63q-20 35 -20 76 q0 89 87 185q91 101 208 132q37 10 73 10q103 0 165 -72q47 -56 47 -131q0 -213 -368 -497q-100 -77 -222 -155l-566 -354q-17 -8 -26 -8q-11 0 -11 10zM-589 750q0 17 181 367l28 52q172 328 387 483q127 91 223 91q93 0 154 -68q53 -60 53 -147q0 -122 -104 -232 q-85 -89 -181 -114q-25 -6 -46 -6q-80 0 -120 56q-22 31 -22 69q0 70 79 136q47 40 71 40q11 0 11 -10q0 -11 -17 -35q-10 -14 -10 -25q0 -73 74 -100q24 -8 42 -8q66 0 82 62q6 26 6 63q0 106 -77 162q-47 34 -105 34q-156 0 -343 -323q-51 -88 -172 -334q-45 -92 -68 -131 q-27 -46 -81 -78q-22 -13 -34 -13q-11 0 -11 9z" />
<glyph unicode="&#x1cb;" horiz-adv-x="1740" d="M-174 657q0 28 59 86q108 104 256 145q42 11 85 16q43 4 91 4q152 0 403 -49q243 -47 348 -56q66 -6 128 -6q214 0 327 84l68 55q23 15 47 15q16 0 16 -14q0 -41 -102 -123q-39 -33 -82 -60q-172 -110 -387 -117h-35q-99 0 -240 21q-20 3 -32 4q-249 -44 -419 -175 q-211 -163 -211 -407q0 -212 146 -363q145 -152 380 -185q57 -8 116 -8q248 0 399 114q66 50 106 119t40 127q0 33 -33 75q-34 44 -39 72q-1 8 -1 17q0 66 58 108q37 25 76 25q52 0 85 -48q29 -42 29 -109q0 -159 -181 -353q-33 -35 -66 -65q-258 -230 -583 -241 q-15 -1 -31 -1q-276 0 -464 147q-160 126 -199 314q-11 53 -11 107q0 157 73 295l15 28q123 215 370 376q62 40 121 70q0 10 -222 35q-115 12 -160 12q-164 0 -248 -61l-44 -33q-17 -10 -36 -10q-16 0 -16 13zM-589 750q0 17 181 367l28 52q172 328 387 483q127 91 223 91 q93 0 154 -68q53 -60 53 -147q0 -122 -104 -232q-85 -89 -181 -114q-25 -6 -46 -6q-80 0 -120 56q-22 31 -22 69q0 70 79 136q47 40 71 40q11 0 11 -10q0 -11 -17 -35q-10 -14 -10 -25q0 -73 74 -100q24 -8 42 -8q66 0 82 62q6 26 6 63q0 106 -77 162q-47 34 -105 34 q-156 0 -343 -323q-51 -88 -172 -334q-45 -92 -68 -131q-27 -46 -81 -78q-22 -13 -34 -13q-11 0 -11 9z" />
<glyph unicode="&#x1cc;" horiz-adv-x="2993" d="M1079 657q0 28 59 86q108 104 256 145q42 11 85 16q43 4 91 4q152 0 403 -49q243 -47 348 -56q66 -6 128 -6q214 0 327 84l68 55q23 15 47 15q16 0 16 -14q0 -41 -102 -123q-39 -33 -82 -60q-172 -110 -387 -117h-35q-99 0 -240 21q-20 3 -32 4q-249 -44 -419 -175 q-211 -163 -211 -407q0 -212 146 -363q145 -152 380 -185q57 -8 116 -8q248 0 399 114q66 50 106 119t40 127q0 33 -33 75q-34 44 -39 72q-1 8 -1 17q0 66 58 108q37 25 76 25q52 0 85 -48q29 -42 29 -109q0 -159 -181 -353q-33 -35 -66 -65q-258 -230 -583 -241 q-15 -1 -31 -1q-276 0 -464 147q-160 126 -199 314q-11 53 -11 107q0 157 73 295l15 28q123 215 370 376q62 40 121 70q0 10 -222 35q-115 12 -160 12q-164 0 -248 -61l-44 -33q-17 -10 -36 -10q-16 0 -16 13zM-233 598q0 33 69 96q125 114 315 174q120 37 247 43h52 q95 -1 292 -25q236 -28 485 -28q88 0 151 31q25 12 38 12q17 0 17 -16q0 -50 -86 -103q-73 -43 -163 -62q-69 -207 -79 -244q-41 -147 -58 -328q-2 -24 -5 -34q-22 -54 -93 -102q-42 -28 -64 -28q-12 6 -13 16q0 61 27 200q10 47 10 65q-115 -115 -250 -195 q-144 -86 -252 -86q-128 0 -213 89q-77 81 -77 198q0 196 209 396q52 50 112 95q-40 6 -127 6q-236 0 -380 -95l-99 -72q-6 -4 -12 -7q-22 -12 -36 -12q-17 0 -17 16zM292 403q0 -120 86 -195q73 -64 175 -64q126 0 256 122q119 112 173 260q45 131 87 188l-113 4 q-146 4 -299 20q-28 3 -47 3q-91 0 -184 -75q-106 -86 -129 -207q-5 -28 -5 -56z" />
<glyph unicode="&#x1cd;" horiz-adv-x="1236" d="M2334 3559q0 -45 36 -78q26 -22 60 -22q76 0 99 60q8 18 8 41q0 62 -52 89q-23 11 -50 11q-72 0 -95 -70q-6 -18 -6 -31zM2439 3194q0 -32 24 -64q28 -37 76 -37q64 0 91 52q11 22 11 49q0 60 -49 88q-23 12 -52 12q-62 0 -89 -51q-12 -23 -12 -49zM2543 2828 q0 -38 28 -70q27 -31 71 -31q63 0 91 49q12 23 12 52q0 64 -52 90q-22 11 -48 11q-73 0 -96 -71q-6 -17 -6 -30zM-893 -2089q0 29 58 86l282 261q36 36 63 60l235 235q118 118 303 335l183 226q388 508 584 1009l39 103l-102 -85q-184 -144 -329 -156q-9 -1 -25 -1 q-133 0 -221 98q-84 94 -84 230q0 180 140 347q112 134 259 196q80 33 148 33h15q120 0 145 -79q4 -16 4 -33q0 -70 -61 -110q-36 -24 -74 -24q-42 0 -82 40q-32 34 -46 40q-13 6 -27 6h-13q-155 0 -211 -147q-23 -62 -23 -135q0 -134 86 -221q79 -81 195 -81t254 130 q28 27 48 51q52 62 83 130q40 86 151 414q120 352 129 376q218 602 494 973q87 117 181 215q165 172 216 172q16 0 16 -14q0 -30 -72 -101l-88 -86q-315 -341 -570 -1034q-27 -74 -125 -361l-147 -422q-137 -378 -214 -547q-71 -156 -168 -325q-306 -540 -842 -1109l-51 -54 q-58 -63 -242 -241l-348 -327q-82 -70 -106 -81q-13 -5 -26 -5h-5q-9 0 -9 13z" />
<glyph unicode="&#x1ce;" horiz-adv-x="1253" d="M2000 3382q0 -45 36 -78q26 -22 60 -22q76 0 99 60q8 18 8 41q0 62 -52 89q-23 11 -50 11q-72 0 -95 -70q-6 -18 -6 -31zM2105 3017q0 -32 24 -64q28 -37 76 -37q64 0 91 52q11 22 11 49q0 60 -49 88q-23 12 -52 12q-62 0 -89 -51q-12 -23 -12 -49zM2209 2651 q0 -38 28 -70q27 -31 71 -31q63 0 91 49q12 23 12 52q0 64 -52 90q-22 11 -48 11q-73 0 -96 -71q-6 -17 -6 -30zM-877 -2089q0 35 85 111l315 292q998 953 1296 1786l43 128q-115 -97 -168 -134q-161 -111 -288 -111q-123 0 -211 90q-95 96 -95 243q0 226 228 428 q148 132 301 144h30q136 0 153 -91q2 -10 2 -22q0 -55 -46 -97q-38 -36 -90 -36q-44 0 -82 41q-31 33 -44 39q-12 7 -25 7q-4 0 -18 -1q-126 0 -182 -94q-14 -22 -26 -53q-26 -66 -26 -134q0 -97 51 -178q51 -80 142 -112q38 -13 81 -13q96 0 199 77q59 45 109 111 q44 58 118 200q73 138 128 198q42 47 93 76q27 15 43 15q14 0 14 -15q0 -22 -46 -73q-20 -22 -25 -30q-52 -80 -158 -386q-71 -204 -94 -258q-333 -764 -1115 -1557l-286 -279q-234 -220 -310 -284q-48 -38 -81 -41q-15 0 -15 13z" />
<glyph unicode="&#x1cf;" horiz-adv-x="784" d="M593 1842q0 -45 36 -78q26 -22 60 -22q76 0 99 60q8 18 8 41q0 62 -52 89q-23 11 -50 11q-72 0 -95 -70q-6 -18 -6 -31zM698 1477q0 -32 24 -64q28 -37 76 -37q64 0 91 52q11 22 11 49q0 60 -49 88q-23 12 -52 12q-62 0 -89 -51q-12 -23 -12 -49zM802 1111q0 -38 28 -70 q27 -31 71 -31q63 0 91 49q12 23 12 52q0 64 -52 90q-22 11 -48 11q-73 0 -96 -71q-6 -17 -6 -30zM-1012 -1711q0 27 53 79l239 224q154 149 323 329q523 557 772 971q182 302 182 481q0 161 -110 267q-82 80 -180 88h-16h-20q-225 0 -345 -87l-68 -52q-23 -15 -45 -15 q-17 0 -17 15q0 32 64 90q181 163 425 200q47 7 98 9h40q155 0 255 -118q92 -109 93 -267q0 -261 -362 -776q-340 -483 -879 -1025l-366 -350q-85 -77 -121 -77q-15 0 -15 14z" />
</font>
</defs>
</svg>
